<svg width="33" height="32" viewBox="0 0 33 32" fill="none" xmlns="http://www.w3.org/2000/svg">
<g clip-path="url(#clip0_4_117)">
<path d="M3.87848 16.0004L17.0442 0.448395L30.1215 15.9996L16.9562 31.5512L3.87848 16.0004Z" fill="url(#paint0_linear_4_117)"/>
<path d="M17.0438 0.672797L29.9327 15.9992L16.9566 31.3268L4.06772 16.0004L17.0438 0.672797ZM17.0446 0.224403L3.68924 16L16.9558 31.7756L30.3112 16L17.0446 0.224403Z" fill="#8A74A0"/>
<g opacity="0.48">
<path d="M15.6043 3.34787L16.4492 2.34983C16.4773 2.36595 16.5054 2.38207 16.5335 2.39777C17.1785 2.76558 17.8288 3.13586 18.5065 3.48796L20.446 5.7944C18.8118 5.1745 17.4082 4.37566 16.0501 3.60161C15.9009 3.51648 15.7526 3.43217 15.6043 3.34787ZM16.5335 19.6797C15.225 18.9338 13.8722 18.163 12.3624 17.5948C10.6626 16.9551 8.93462 16.6443 7.07942 16.6443C6.49146 16.6443 5.9192 16.6728 5.36346 16.7282L6.42576 17.9915C6.63897 17.9833 6.8563 17.9787 7.07901 17.9787C10.9526 17.9787 13.4284 19.39 16.0497 20.884C17.4644 21.6903 18.9271 22.5238 20.6492 23.1532C21.2951 23.3892 21.95 23.5843 22.6168 23.7409L23.5907 22.5904C20.7005 22.0552 18.5903 20.853 16.5327 19.6801L16.5335 19.6797ZM16.5533 22.597C15.2448 21.851 13.892 21.0803 12.3822 20.512C10.8853 19.9488 9.3664 19.6405 7.75829 19.5752L8.96809 21.0137C11.822 21.3811 13.8966 22.5622 16.0703 23.8012C17.4797 24.6046 18.937 25.4349 20.6513 26.0639L21.5628 24.9869C19.6609 24.3682 18.0925 23.4743 16.5538 22.5974L16.5533 22.597ZM20.6501 8.77653C21.6165 9.12987 22.602 9.39271 23.6205 9.56834L22.2132 7.89462C20.0022 7.27968 18.2499 6.28082 16.5339 5.30303C15.9596 4.97572 15.377 4.64387 14.7762 4.32607L13.9201 5.33733C14.6399 5.70348 15.3398 6.10228 16.0505 6.50729C17.4652 7.31357 18.9279 8.14712 20.6501 8.77653ZM7.07942 15.0726C10.953 15.0726 13.4288 16.4839 16.0501 17.9779C17.4648 18.7842 18.9275 19.6177 20.6497 20.2471C21.9747 20.7315 23.3362 21.0464 24.7691 21.1985L25.8302 19.945C21.7223 19.731 19.0874 18.2296 16.5335 16.7736C15.225 16.0277 13.8722 15.2569 12.3624 14.6887C10.6626 14.049 8.93462 13.7382 7.07942 13.7382C6.9877 13.7382 6.89679 13.7394 6.80589 13.7411L5.6246 15.1363C6.08489 15.0949 6.56955 15.0726 7.07942 15.0726ZM17.1434 30.2068L17.9929 29.2034C17.5045 28.9385 17.0277 28.667 16.5538 28.3967C15.7373 27.9314 14.9035 27.4561 14.0251 27.0263L16.2992 29.7308C16.5777 29.8895 16.8587 30.0486 17.1438 30.2064L17.1434 30.2068ZM16.5533 8.22068C15.4336 7.5826 14.2808 6.92634 13.0256 6.39405L12.1368 7.44416C13.5342 7.98016 14.7849 8.69263 16.0699 9.42494C17.4847 10.2312 18.9473 11.0648 20.6695 11.6942C22.4491 12.3447 24.294 12.6889 26.2905 12.7439L25.1083 11.3379C21.4182 10.9929 18.9502 9.58653 16.5533 8.22068ZM26.8636 14.3238C22.1636 14.3238 19.3118 12.6984 16.5533 11.1264C15.2448 10.3808 13.892 9.60967 12.3822 9.04143C11.9674 8.88522 11.5509 8.74925 11.1311 8.63188L10.18 9.75555C12.4343 10.2593 14.2164 11.2739 16.0703 12.3306C17.4851 13.1369 18.9478 13.9705 20.6699 14.5999C22.6189 15.3123 24.6448 15.6586 26.8636 15.6586C27.4854 15.6586 28.0903 15.6326 28.6795 15.5847L27.6085 14.311C27.3631 14.3197 27.1148 14.3242 26.8636 14.3242V14.3238ZM26.8636 17.2179C22.1636 17.2179 19.3118 15.5925 16.5533 14.0205C15.2448 13.2745 13.892 12.5038 12.3822 11.9355C11.2881 11.5235 10.1816 11.2491 9.03751 11.1049L7.98678 12.3459C11.3621 12.5426 13.6549 13.8481 16.0699 15.2247C17.4847 16.031 18.9473 16.8646 20.6695 17.494C22.6185 18.2064 24.6443 18.5527 26.8631 18.5527C26.9123 18.5527 26.9611 18.5523 27.0098 18.5519L28.1734 17.1774C27.7449 17.2038 27.3081 17.2183 26.8631 17.2183L26.8636 17.2179ZM18.8424 28.1996L19.713 27.171C18.5895 26.6627 17.5648 26.0791 16.5533 25.5026C15.2448 24.7571 13.892 23.986 12.3822 23.4177C11.7645 23.185 11.1427 22.9966 10.5126 22.8503L12.0674 24.6992C13.4929 25.2381 14.7638 25.9622 16.0703 26.7069C16.9579 27.2127 17.8648 27.7297 18.8428 28.2L18.8424 28.1996Z" fill="url(#paint1_linear_4_117)"/>
</g>
<path d="M16.4864 15.1441H11.2067L11.308 15.1875L11.9253 15.4516L10.965 18.0229L10.8741 18.2659H15.6679L15.2968 19.2598C15.2262 19.4454 15.0419 19.5677 14.825 19.5677H10.2667C9.49325 19.5677 8.90983 18.8292 9.15816 18.161L9.26104 17.8866L10.3122 15.0817C10.3316 15.0305 10.3531 14.9809 10.3766 14.9321C10.6948 14.2759 11.3931 13.8601 12.1967 13.8601H17.3231L16.9579 14.8367C16.8872 15.0222 16.7029 15.1445 16.486 15.1445L16.4864 15.1441ZM20.1728 13.8659H20.1691C19.3341 13.8659 18.6127 14.3172 18.3143 15.0197C18.3028 15.0466 18.292 15.0739 18.2817 15.1016L18.0945 15.602L17.9627 15.9591C17.7144 16.6273 18.2978 17.3658 19.0713 17.3658H22.7106L22.3702 18.2792H17.4566C17.2396 18.2792 17.0554 18.3982 16.9843 18.5837L16.6095 19.5776H22.1582C23.0251 19.5776 23.7667 19.0945 24.046 18.3494L24.3807 17.4572C24.5299 17.0555 24.3799 16.6277 24.0679 16.3496C23.8605 16.1649 23.582 16.0467 23.2717 16.0467H19.6361L19.8535 15.4586L19.2721 15.2049L19.1481 15.1507H24.8836C25.1005 15.1507 25.2848 15.0284 25.3554 14.8429L25.7207 13.8663H20.172L20.1728 13.8659Z" fill="url(#paint2_linear_4_117)"/>
<path d="M11.3724 14.7776H11.3712L11.3724 14.7742V14.7776ZM11.3708 14.7767L10.6522 14.4693H15.9319C16.1488 14.4693 16.3331 14.3469 16.4038 14.1614L16.769 13.1848H11.6426C10.7795 13.1848 10.0378 13.6642 9.7581 14.406L8.60408 17.4857C8.35575 18.1539 8.93917 18.8924 9.71265 18.8924H14.2709C14.4874 18.8924 14.6721 18.7701 14.7428 18.5846L15.1138 17.5907H10.32L11.3712 14.7763L11.3708 14.7767ZM19.6188 13.191H19.615C18.7482 13.191 18.0032 13.6774 17.728 14.4263L17.5409 14.9267L17.4091 15.2838C17.1607 15.9521 17.7441 16.6906 18.5176 16.6906H22.157L21.8165 17.6039H16.9029C16.686 17.6039 16.5017 17.7229 16.4306 17.9085L16.0559 18.9024H21.6045C22.4714 18.9024 23.2131 18.4193 23.4924 17.6741L23.8271 16.7819C24.0754 16.1136 23.4953 15.3714 22.7181 15.3714H19.0825L19.2998 14.7833L18.5945 14.4755H24.3299C24.5468 14.4755 24.7311 14.3531 24.8018 14.1676L25.167 13.191H19.6184H19.6188Z" fill="url(#paint3_linear_4_117)"/>
<path d="M16.7686 13.1852L16.4034 14.1618C16.3327 14.3473 16.1484 14.4697 15.9315 14.4697H10.6518L11.3703 14.7771L10.3192 17.5915H15.113L14.7419 18.5854C14.6713 18.7709 14.487 18.8933 14.2701 18.8933H9.71182C8.93834 18.8933 8.35492 18.1548 8.60325 17.4865L9.75727 14.4069C10.037 13.665 10.7787 13.1857 11.6418 13.1857H16.7682M25.167 13.191L24.8018 14.1676C24.7311 14.3531 24.5464 14.4755 24.3299 14.4755H18.5945L19.2998 14.7833L19.0825 15.3714H22.7181C23.4953 15.3714 24.075 16.1132 23.8271 16.7819L23.4924 17.6741C23.2131 18.4197 22.4714 18.9024 21.6045 18.9024H16.0559L16.4306 17.9085C16.5013 17.7229 16.686 17.6039 16.9029 17.6039H21.8165L22.157 16.6906H18.5176C17.7441 16.6906 17.1607 15.9521 17.4091 15.2838L17.5409 14.9267L17.728 14.4263C18.0032 13.6774 18.7482 13.191 19.615 13.191H25.1674M11.372 14.7738V14.7771L11.3708 14.7767L11.372 14.7738ZM16.7686 13.1026H11.6422C10.7423 13.1026 9.97213 13.6031 9.68042 14.3775L8.5264 17.4572C8.4074 17.7779 8.45822 18.1333 8.66605 18.4321C8.90281 18.7722 9.29368 18.9755 9.71224 18.9755H14.2705C14.5201 18.9755 14.7357 18.8338 14.8196 18.6143L15.1911 17.62C15.2006 17.5948 15.1969 17.5663 15.1816 17.544C15.1663 17.5216 15.1407 17.5084 15.1138 17.5084H10.439L11.4439 14.8181C11.4522 14.804 11.4563 14.7875 11.4546 14.7709V14.7676C11.4513 14.7292 11.4216 14.6978 11.3832 14.6924C11.3832 14.6924 11.3827 14.6924 11.3823 14.6924L11.0555 14.5527H15.9315C16.1811 14.5527 16.3967 14.411 16.4806 14.1915L16.8459 13.2146C16.8554 13.1894 16.8517 13.1609 16.8364 13.1385C16.8211 13.1162 16.7955 13.103 16.7686 13.103V13.1026ZM25.167 13.1084H19.6146C18.7089 13.1084 17.9379 13.6146 17.6499 14.3978L17.4632 14.8978L17.3314 15.2553C17.2124 15.5756 17.2636 15.931 17.4714 16.2298C17.7082 16.5699 18.0991 16.7732 18.5176 16.7732H22.038L21.7591 17.5212H16.9029C16.6521 17.5212 16.4364 17.6617 16.3538 17.8787L15.9786 18.873C15.9691 18.8982 15.9724 18.9267 15.9881 18.9491C16.0034 18.9714 16.029 18.9846 16.0559 18.9846H21.6045C22.5065 18.9846 23.2779 18.4812 23.5696 17.7027L23.9043 16.8104C24.0237 16.4885 23.9729 16.1314 23.7643 15.8314C23.5279 15.4913 23.137 15.2884 22.7185 15.2884H19.2014L19.3775 14.8119C19.3928 14.7709 19.3733 14.7251 19.3328 14.7073L18.9903 14.5577H24.3299C24.5799 14.5577 24.7951 14.416 24.879 14.1965L25.2443 13.2195C25.2538 13.1943 25.2501 13.1658 25.2348 13.1435C25.2195 13.1212 25.1939 13.108 25.167 13.108V13.1084Z" fill="#E47AA2"/>
<path d="M17.0413 1.27492L29.4241 16L16.9583 30.7251L4.44 16.0017L17.0413 1.27492ZM17.043 0.562866L16.888 0.74553L4.08507 15.8694L3.97475 15.9996L4.08466 16.1302L16.8025 31.2536L16.9566 31.4371L17.1116 31.2545L29.9149 16.131L30.0252 16.0008L29.9153 15.8702L17.1971 0.746356L17.043 0.562866Z" fill="url(#paint4_linear_4_117)"/>
</g>
<defs>
<linearGradient id="paint0_linear_4_117" x1="24.9538" y1="-2.82012" x2="10.9294" y2="30.3508" gradientUnits="userSpaceOnUse">
<stop stop-color="#171524"/>
<stop offset="0.69" stop-color="#BB1E61"/>
</linearGradient>
<linearGradient id="paint1_linear_4_117" x1="14.9192" y1="2.05517" x2="21.1553" y2="43.8657" gradientUnits="userSpaceOnUse">
<stop offset="0.03" stop-color="#1BAEE5"/>
<stop offset="0.28" stop-color="#AE3593"/>
<stop offset="0.6" stop-color="#541919"/>
</linearGradient>
<linearGradient id="paint2_linear_4_117" x1="19.1072" y1="22.8718" x2="14.2898" y2="4.024" gradientUnits="userSpaceOnUse">
<stop offset="0.19" stop-color="#802A51"/>
<stop offset="0.55" stop-color="#87484A"/>
<stop offset="1" stop-color="#FFEEBD"/>
</linearGradient>
<linearGradient id="paint3_linear_4_117" x1="18.4069" y1="25.3791" x2="16.5502" y2="13.5945" gradientUnits="userSpaceOnUse">
<stop offset="0.47" stop-color="#BB1E61"/>
<stop offset="0.52" stop-color="#BC2560"/>
<stop offset="0.59" stop-color="#C0385F"/>
<stop offset="0.67" stop-color="#C6595E"/>
<stop offset="0.68" stop-color="#C85E5E"/>
<stop offset="0.77" stop-color="#D7877F"/>
<stop offset="0.99" stop-color="#FDF0D2"/>
<stop offset="1" stop-color="#FFF5D6"/>
</linearGradient>
<linearGradient id="paint4_linear_4_117" x1="25.5901" y1="38.4817" x2="13.3007" y2="6.33076" gradientUnits="userSpaceOnUse">
<stop stop-color="#00ADEE"/>
<stop offset="1" stop-color="#FFEEBD"/>
</linearGradient>
<clipPath id="clip0_4_117">
<rect width="27" height="32" fill="white" transform="translate(3.5)"/>
</clipPath>
</defs>
</svg>
