<svg width="32" height="32" viewBox="0 0 32 32" fill="none" xmlns="http://www.w3.org/2000/svg">
<g clip-path="url(#clip0_39_44)">
<path d="M2.57 15.98L16 0L29.43 15.98L16 31.95L2.57 15.98Z" fill="#4D4D4F"/>
<path d="M12.86 12.25L15.94 8.6L19 12.25L15.92 15.9L12.86 12.25Z" fill="#595A5A"/>
<path d="M9.81 8.6L12.89 4.95L15.95 8.6L12.87 12.25L9.81 8.6Z" fill="#BBBBBA"/>
<path d="M15.94 8.6L19.02 4.95L22.08 8.6L19 12.25L15.94 8.6Z" fill="#BBBBBA"/>
<path d="M19.01 4.95L15.93 8.6L12.87 4.95L15.95 1.3L19.01 4.95Z" fill="#595A5A"/>
<path d="M22.05 15.9L18.97 19.55L15.91 15.9L18.99 12.25L22.05 15.9Z" fill="#BBBBBA"/>
<path d="M25.13 12.25L22.05 15.9L18.99 12.25L22.07 8.6L25.13 12.25Z" fill="#595A5A"/>
<path d="M18.97 19.55L22.05 15.9L25.11 19.55L22.03 23.2L18.97 19.55Z" fill="#595A5A"/>
<path d="M28.18 15.9L25.1 19.55L22.04 15.9L25.12 12.25L28.18 15.9Z" fill="#BBBBBA"/>
<path d="M12.86 12.25L9.78 15.9L6.72 12.25L9.8 8.6L12.86 12.25Z" fill="#595A5A"/>
<path d="M15.92 15.9L12.84 19.55L9.78 15.9L12.86 12.25L15.92 15.9Z" fill="#BBBBBA"/>
<path d="M6.71 19.55L9.79 15.9L12.85 19.55L9.77 23.2L6.71 19.55Z" fill="#595A5A"/>
<path d="M9.78 15.9L6.7 19.55L3.64 15.9L6.72 12.25L9.78 15.9Z" fill="#BBBBBA"/>
<path d="M18.97 19.55L15.89 23.2L12.83 19.55L15.91 15.9L18.97 19.55Z" fill="#595A5A"/>
<path d="M22.03 23.2L18.95 26.85L15.89 23.2L18.97 19.55L22.03 23.2Z" fill="#BBBBBA"/>
<path d="M15.9 23.2L12.82 26.85L9.76 23.2L12.84 19.55L15.9 23.2Z" fill="#BBBBBA"/>
<path d="M18.95 26.85L15.87 30.5L12.81 26.85L15.89 23.2L18.95 26.85Z" fill="#595A5A"/>
<path d="M15.99 1.08L28.36 15.76L15.91 30.44L3.53 15.76L15.99 1.08Z" fill="url(#paint0_linear_39_44)"/>
<path opacity="0.62" d="M15.15 15.51H9.93L10.03 15.55L10.64 15.81L9.69 18.35L9.6 18.59H14.34L13.97 19.57C13.9 19.75 13.72 19.87 13.5 19.87H9C8.24 19.87 7.66 19.14 7.9 18.48L8 18.21L9.04 15.44C9.06 15.39 9.08 15.34 9.1 15.29C9.41 14.64 10.1 14.23 10.9 14.23H15.96L15.6 15.19C15.53 15.37 15.35 15.49 15.13 15.49L15.15 15.51ZM18.8 14.25C17.98 14.25 17.26 14.7 16.97 15.39C16.96 15.42 16.95 15.44 16.94 15.47L16.76 15.96L16.63 16.31C16.38 16.97 16.96 17.7 17.73 17.7H21.33L20.99 18.6H16.14C15.93 18.6 15.74 18.72 15.67 18.9L15.3 19.88H20.78C21.64 19.88 22.37 19.4 22.65 18.67L22.98 17.79C23.13 17.39 22.98 16.97 22.67 16.7C22.47 16.52 22.19 16.4 21.88 16.4H18.29L18.5 15.82L17.93 15.57L17.81 15.52H23.48C23.69 15.52 23.88 15.4 23.95 15.22L24.31 14.26H18.83L18.8 14.25Z" fill="#333333"/>
<path d="M10.54 14.78L9.83 14.48H15.05C15.26 14.48 15.45 14.36 15.52 14.18L15.88 13.22H10.82C9.97 13.22 9.23 13.69 8.96 14.43L7.82 17.47C7.57 18.13 8.15 18.86 8.92 18.86H13.42C13.63 18.86 13.82 18.74 13.89 18.56L14.26 17.58H9.52L10.56 14.8L10.54 14.78ZM18.69 13.22C17.83 13.22 17.1 13.7 16.83 14.44L16.65 14.93L16.52 15.28C16.27 15.94 16.85 16.67 17.62 16.67H21.22L20.88 17.57H16.03C15.82 17.57 15.63 17.69 15.56 17.87L15.19 18.85H20.67C21.53 18.85 22.26 18.37 22.54 17.64L22.87 16.76C23.12 16.1 22.54 15.37 21.77 15.37H18.18L18.39 14.79L17.69 14.49H23.36C23.57 14.49 23.76 14.37 23.83 14.19L24.19 13.23H18.71L18.69 13.22Z" fill="#D5D6D5"/>
<path d="M15.87 13.21L15.51 14.17C15.44 14.35 15.26 14.47 15.04 14.47H9.82L10.53 14.77L9.49 17.55H14.23L13.86 18.53C13.79 18.71 13.61 18.83 13.39 18.83H8.89C8.13 18.83 7.55 18.1 7.79 17.44L8.93 14.4C9.21 13.67 9.94 13.19 10.79 13.19H15.85M24.17 13.22L23.81 14.18C23.74 14.36 23.56 14.48 23.34 14.48H17.67L18.37 14.78L18.16 15.36H21.75C22.52 15.36 23.09 16.09 22.85 16.75L22.52 17.63C22.24 18.37 21.51 18.84 20.65 18.84H15.17L15.54 17.86C15.61 17.68 15.79 17.56 16.01 17.56H20.86L21.2 16.66H17.6C16.84 16.66 16.26 15.93 16.5 15.27L16.63 14.92L16.81 14.43C17.08 13.69 17.82 13.21 18.67 13.21H24.16M16.03 13.1H10.81C9.91 13.1 9.14 13.6 8.85 14.38L7.71 17.42C7.59 17.75 7.64 18.11 7.85 18.41C8.09 18.75 8.48 18.96 8.91 18.96H13.41C13.67 18.96 13.89 18.81 13.98 18.59L14.35 17.61L14.4 17.46H9.66L10.6 14.93L10.66 14.96V14.8L10.68 14.73H10.65V14.59H15.06C15.32 14.59 15.54 14.44 15.63 14.22L15.99 13.25L16.04 13.1H16.03ZM10.36 14.59H10.5L10.48 14.64L10.36 14.59ZM24.32 13.11H18.68C17.77 13.11 17 13.62 16.71 14.4L16.53 14.89L16.4 15.24C16.28 15.56 16.33 15.92 16.54 16.23C16.78 16.57 17.17 16.78 17.6 16.78H21.04L20.78 17.47H16C15.74 17.47 15.52 17.62 15.43 17.84L15.06 18.82L15 18.97H20.64C21.54 18.97 22.31 18.47 22.61 17.69L22.94 16.81C23.06 16.48 23.01 16.12 22.8 15.82C22.56 15.48 22.17 15.27 21.74 15.27H18.3L18.46 14.83L18.5 14.73L18.41 14.69L18.19 14.59H23.34C23.6 14.59 23.82 14.44 23.91 14.22L24.27 13.25L24.32 13.1V13.11Z" fill="#333333"/>
<g opacity="0.91">
<path d="M21.94 24.88C21.76 24.58 21.46 24.41 21.07 24.41C20.47 24.41 20 24.78 20 25.56V27.19L20.6 26.48V25.57C20.6 25.15 20.83 24.97 21.12 24.97C21.34 24.97 21.52 25.07 21.6 25.29L22.16 24.62C22.07 24.69 22 24.77 21.94 24.88Z" fill="#2D292A"/>
<path d="M11.22 26.26H12.34V27.54H12.94V24.48H12.34V25.71H10.87V24.48H10.27V25.14L11.22 26.26Z" fill="#2D292A"/>
<path d="M15.33 26.44C15.74 26.3 15.97 25.97 15.97 25.49C15.97 24.9 15.63 24.48 14.85 24.48H13.57V27.55H14.17V26.51H14.72L15.37 27.55H16.08L15.33 26.45V26.44ZM14.86 25.95H14.17V25.04H14.86C15.24 25.04 15.37 25.23 15.37 25.49C15.37 25.75 15.24 25.95 14.86 25.95Z" fill="#2D292A"/>
<path d="M16.33 26.01C16.33 26.93 17.01 27.6 17.96 27.6C18.91 27.6 19.59 26.92 19.59 26.01C19.59 25.09 18.91 24.42 17.96 24.42C17.01 24.42 16.33 25.1 16.33 26.01ZM18.98 26.01C18.98 26.61 18.57 27.05 17.96 27.05C17.35 27.05 16.94 26.61 16.94 26.01C16.94 25.41 17.35 24.97 17.96 24.97C18.57 24.97 18.98 25.41 18.98 26.01Z" fill="#2D292A"/>
</g>
<path d="M9.86 23.3L3.66 15.89L15.97 1.34L28.21 15.89L21.93 23.3H22.52L28.8 15.89L15.97 0.64L3.19 15.89L9.36 23.3H9.86Z" fill="#D5D6D5"/>
<path d="M18.23 27.67L15.89 30.43L13.57 27.67H13L15.89 31.14L18.82 27.67H18.23Z" fill="#D5D6D5"/>
<path d="M18.69 27.03C17.71 27.03 17 26.34 17 25.38C17 24.42 17.71 23.73 18.69 23.73C19.67 23.73 20.38 24.42 20.38 25.38C20.38 26.34 19.67 27.03 18.69 27.03ZM18.69 24.4C18.12 24.4 17.72 24.8 17.72 25.38C17.72 25.96 18.12 26.37 18.69 26.37C19.26 26.37 19.66 25.96 19.66 25.38C19.66 24.8 19.26 24.4 18.69 24.4ZM8.95 27.03C7.97 27.03 7.26 26.34 7.26 25.38C7.26 24.42 7.97 23.73 8.95 23.73C9.76 23.73 10.4 24.21 10.58 24.94L10.6 25.01H9.86V24.98C9.7 24.62 9.37 24.4 8.95 24.4C8.38 24.4 7.98 24.8 7.98 25.38C7.98 25.96 8.38 26.37 8.95 26.37C9.37 26.37 9.7 26.15 9.85 25.79V25.76H10.6L10.58 25.83C10.4 26.57 9.76 27.04 8.95 27.04V27.03ZM27.11 26.97V26.05H25.72V26.97H25.03V25.12C25.03 24.25 25.55 23.73 26.42 23.73C27.29 23.73 27.82 24.25 27.82 25.12V26.97H27.11ZM27.11 25.4V25.12C27.11 24.64 26.88 24.4 26.41 24.4C25.94 24.4 25.72 24.64 25.72 25.12V25.4H27.11ZM23.95 26.97V24.94C23.95 24.59 23.78 24.4 23.48 24.4C23.18 24.4 23.01 24.59 23.01 24.94V26.97H22.3V24.94C22.3 24.59 22.13 24.4 21.83 24.4C21.53 24.4 21.36 24.59 21.36 24.94V26.97H20.65V24.94C20.65 24.18 21.07 23.73 21.77 23.73C22.14 23.73 22.45 23.88 22.64 24.15C22.83 23.88 23.14 23.73 23.51 23.73C24.21 23.73 24.63 24.18 24.63 24.94V26.97H23.92H23.95ZM16.07 26.97L15.42 25.93H14.95V26.97H14.24V23.8H15.58C16.33 23.8 16.75 24.19 16.75 24.87C16.75 25.35 16.53 25.69 16.14 25.85L16.91 26.98H16.06L16.07 26.97ZM15.59 25.26C15.89 25.26 16.04 25.13 16.04 24.85C16.04 24.57 15.9 24.45 15.59 24.45H14.95V25.26H15.59ZM13.01 26.97V25.69H11.65V26.97H10.94V23.8H11.65V25.03H13.01V23.8H13.72V26.97H13.01ZM6.26 26.97V26.05H4.87V26.97H4.18V25.12C4.18 24.25 4.7 23.73 5.57 23.73C6.44 23.73 6.97 24.25 6.97 25.12V26.97H6.26ZM6.26 25.4V25.12C6.26 24.64 6.03 24.4 5.56 24.4C5.09 24.4 4.87 24.64 4.87 25.12V25.4H6.26Z" fill="#D5D6D5"/>
<path d="M8.95 23.79C9.75 23.79 10.36 24.26 10.53 24.96H9.9C9.75 24.59 9.41 24.35 8.95 24.35C8.34 24.35 7.93 24.79 7.93 25.39C7.93 25.99 8.34 26.43 8.95 26.43C9.4 26.43 9.75 26.18 9.9 25.81H10.53C10.36 26.51 9.75 26.98 8.95 26.98C7.99 26.98 7.32 26.3 7.32 25.39C7.32 24.48 8 23.8 8.95 23.8M5.57 23.79C6.44 23.79 6.92 24.3 6.92 25.12V26.92H6.32V26H4.82V26.92H4.23V25.12C4.23 24.3 4.7 23.79 5.57 23.79ZM4.82 25.45H6.32V25.12C6.32 24.63 6.08 24.35 5.57 24.35C5.06 24.35 4.82 24.63 4.82 25.12V25.45ZM18.69 23.79C19.65 23.79 20.32 24.47 20.32 25.38C20.32 26.29 19.64 26.97 18.69 26.97C17.74 26.97 17.06 26.29 17.06 25.38C17.06 24.46 17.74 23.79 18.69 23.79ZM18.69 26.42C19.3 26.42 19.71 25.98 19.71 25.38C19.71 24.78 19.3 24.34 18.69 24.34C18.08 24.34 17.67 24.78 17.67 25.38C17.67 25.98 18.08 26.42 18.69 26.42ZM26.42 23.79C27.29 23.79 27.77 24.3 27.77 25.12V26.92H27.17V26H25.67V26.92H25.08V25.12C25.08 24.3 25.55 23.79 26.42 23.79ZM25.67 25.45H27.17V25.12C27.17 24.63 26.93 24.35 26.42 24.35C25.91 24.35 25.67 24.63 25.67 25.12V25.45ZM23.53 23.79C24.13 23.79 24.6 24.16 24.6 24.94V26.91H24V24.94C24 24.52 23.77 24.34 23.48 24.34C23.19 24.34 22.96 24.52 22.96 24.94V26.91H22.36V24.94C22.36 24.52 22.13 24.34 21.84 24.34C21.54 24.34 21.32 24.51 21.32 24.94V26.91H20.72V24.94C20.72 24.15 21.18 23.79 21.79 23.79C22.18 23.79 22.48 23.95 22.66 24.26C22.84 23.96 23.14 23.79 23.53 23.79ZM11.6 23.85V25.08H13.07V23.85H13.67V26.92H13.07V25.64H11.6V26.92H11V23.85H11.6ZM15.58 23.85C16.36 23.85 16.7 24.28 16.7 24.86C16.7 25.34 16.47 25.68 16.06 25.81L16.81 26.91H16.1L15.45 25.87H14.9V26.91H14.3V23.84H15.58M14.89 25.32H15.58C15.96 25.32 16.09 25.12 16.09 24.86C16.09 24.6 15.96 24.41 15.58 24.41H14.89V25.32ZM8.95 23.68C7.94 23.68 7.21 24.4 7.21 25.38C7.21 26.36 7.94 27.08 8.95 27.08C9.78 27.08 10.45 26.59 10.64 25.83L10.67 25.7H9.82L9.79 25.77C9.65 26.11 9.34 26.32 8.94 26.32C8.4 26.32 8.03 25.94 8.03 25.39C8.03 24.84 8.41 24.46 8.94 24.46C9.34 24.46 9.65 24.66 9.79 25.01L9.82 25.08H10.67L10.64 24.95C10.45 24.19 9.79 23.7 8.95 23.7V23.68ZM5.57 23.68C4.67 23.68 4.13 24.22 4.13 25.12V27.02H4.93V26.1H6.21V27.02H7.03V25.12C7.03 24.22 6.49 23.68 5.58 23.68H5.57ZM4.93 25.34V25.12C4.93 24.67 5.14 24.45 5.57 24.45C6 24.45 6.21 24.67 6.21 25.12V25.34H4.93ZM18.69 23.68C17.68 23.68 16.95 24.4 16.95 25.38C16.95 26.37 17.68 27.08 18.69 27.08C19.7 27.08 20.43 26.36 20.43 25.38C20.43 24.4 19.7 23.68 18.69 23.68ZM18.69 26.31C18.15 26.31 17.78 25.93 17.78 25.38C17.78 24.83 18.16 24.45 18.69 24.45C19.22 24.45 19.6 24.83 19.6 25.38C19.6 25.93 19.22 26.31 18.69 26.31ZM26.42 23.68C25.52 23.68 24.98 24.22 24.98 25.12V27.02H25.78V26.1H27.06V27.02H27.77H27.88V25.12C27.88 24.22 27.34 23.68 26.43 23.68H26.42ZM25.78 25.34V25.12C25.78 24.67 25.99 24.45 26.42 24.45C26.64 24.45 26.8 24.51 26.91 24.62C27.01 24.73 27.07 24.9 27.07 25.12V25.34H25.79H25.78ZM23.53 23.68C23.17 23.68 22.86 23.82 22.66 24.07C22.46 23.82 22.15 23.68 21.79 23.68C21.06 23.68 20.61 24.16 20.61 24.94V27.02H21.43V24.94C21.43 24.77 21.47 24.64 21.55 24.56C21.62 24.49 21.72 24.45 21.84 24.45C22.11 24.45 22.25 24.62 22.25 24.94V27.02H23.07V24.94C23.07 24.62 23.21 24.45 23.48 24.45C23.75 24.45 23.89 24.61 23.89 24.94V26.91V27.02H24.71V24.94C24.71 24.16 24.26 23.68 23.53 23.68ZM11.7 23.74H10.88V27.02H11.7V25.74H12.95V27.02H13.77V23.74H12.95V24.97H11.7V23.74ZM15.58 23.74H14.19V27.02H15.01V25.98H15.4L16.02 26.97L16.05 27.02H17.03L16.91 26.85L16.23 25.86C16.61 25.68 16.81 25.33 16.81 24.86C16.81 24.53 16.71 24.25 16.51 24.06C16.3 23.85 15.98 23.74 15.58 23.74ZM15 24.51H15.59C15.94 24.51 15.99 24.69 15.99 24.86C15.99 25.1 15.87 25.21 15.59 25.21H15V24.51Z" fill="#3A3A3A"/>
</g>
<defs>
<linearGradient id="paint0_linear_39_44" x1="11.06" y1="2.96" x2="21.9" y2="31.35" gradientUnits="userSpaceOnUse">
<stop offset="0.11" stop-color="#231F20" stop-opacity="0"/>
<stop offset="1" stop-color="#231F20"/>
</linearGradient>
<clipPath id="clip0_39_44">
<rect width="26.86" height="31.95" fill="white" transform="translate(2.57)"/>
</clipPath>
</defs>
</svg>
