<svg width="32" height="32" viewBox="0 0 32 32" fill="none" xmlns="http://www.w3.org/2000/svg">
<g clip-path="url(#clip0_2_329)">
<path d="M3 16L16 0L29 16L16 32L3 16Z" fill="url(#paint0_linear_2_329)"/>
<path d="M16.0021 27.49L27.4572 14.8984C26.4449 13.8108 25.672 12.7872 24.8566 11.6807C22.5786 9.87896 19.8549 8.59308 16.0822 8.59308C12.3096 8.59308 9.41569 9.90876 7.13136 11.7067C6.21072 12.8148 5.49851 13.8661 4.58677 14.8984L16.0021 27.49Z" fill="#8971B3"/>
<path d="M16.0157 31.0057L28.3779 16.0461C28.3779 16.0461 26.3999 13.4418 24.7634 11.4813C22.2109 10.2333 19.2563 9.52024 16.1068 9.52024C12.9574 9.52024 9.87286 10.2648 7.28271 11.5642C5.93107 13.3746 3.66246 16.065 3.66246 16.065L16.0162 31.0057H16.0157Z" fill="url(#paint1_linear_2_329)"/>
<path d="M15.59 15.6445H10.5411L10.638 15.6873L11.2287 15.9485L10.3107 18.4926L10.2237 18.7332H14.8081L14.453 19.7167C14.3855 19.9004 14.209 20.0213 14.0016 20.0213H9.64244C8.903 20.0213 8.34527 19.2908 8.5825 18.6292L8.68095 18.3577L9.68591 15.5828C9.70424 15.5324 9.72519 15.483 9.7477 15.4348C10.052 14.7857 10.7197 14.3744 11.4884 14.3744H16.3907L16.0414 15.3405C15.9738 15.5242 15.7973 15.6451 15.59 15.6451V15.6445ZM19.1159 14.3798H19.1123C18.3136 14.3798 17.624 14.8263 17.3385 15.521C17.3275 15.5475 17.3171 15.5746 17.3076 15.6017L17.1285 16.097L17.0029 16.4503C16.7656 17.1114 17.3234 17.8424 18.0628 17.8424H21.5432L21.218 18.7462H16.5195C16.3121 18.7462 16.1356 18.8638 16.0681 19.0475L15.7094 20.031H21.0153C21.8443 20.031 22.5534 19.5531 22.8205 18.8156L23.1405 17.9329C23.2829 17.5357 23.1399 17.1119 22.8414 16.8372C22.6435 16.6546 22.3769 16.5375 22.08 16.5375H18.6032L18.8112 15.9561L18.2555 15.7052L18.1372 15.6516H23.6217C23.8291 15.6516 24.0051 15.5302 24.0732 15.347L24.4225 14.3809H19.1165L19.1159 14.3798Z" fill="#333333"/>
<path d="M15.1663 18.9679L15.5517 17.9112C15.6271 17.7069 15.8235 17.5747 16.0524 17.5747H20.7147L21.0012 16.7792H17.5962C17.2045 16.7792 16.8389 16.5825 16.6174 16.2536C16.4237 15.9653 16.376 15.6229 16.4865 15.3145L16.6122 14.9612L16.7913 14.4659C17.0626 13.7024 17.7905 13.2088 18.6451 13.2088H24.0302L23.6547 14.2481C23.5783 14.4546 23.3819 14.5879 23.1546 14.5879H17.9204L18.41 14.809L18.211 15.3655H21.6123C22.0041 15.3655 22.3696 15.5616 22.5906 15.8911C22.7849 16.1804 22.8331 16.524 22.7215 16.8339L22.4015 17.7172C22.1266 18.4769 21.3987 18.9679 20.5472 18.9679H15.1652H15.1663ZM9.17531 18.9586C8.78412 18.9586 8.41806 18.7619 8.19654 18.433C8.00278 18.1448 7.95512 17.8023 8.06562 17.494L9.16903 14.447C9.44397 13.6916 10.1708 13.2034 11.0203 13.2034H15.9979L15.6224 14.2427C15.546 14.4491 15.3496 14.5824 15.1223 14.5824H10.329L10.7307 14.7602L10.793 14.5884L10.8108 14.7959L10.8265 14.803L10.8139 14.8371L10.8202 14.9141L10.7904 14.9022L9.83045 17.5622H14.4148L14.0336 18.6189C13.9571 18.8253 13.7607 18.9586 13.5334 18.9586H9.17427H9.17531Z" fill="url(#paint2_linear_2_329)"/>
<path d="M15.9235 13.257L15.5742 14.2232C15.5067 14.4069 15.3302 14.5277 15.1228 14.5277H10.074L10.761 14.8317L9.75608 17.6159H14.3404L13.9854 18.5994C13.9178 18.7831 13.7413 18.9039 13.534 18.9039H9.17479C8.43534 18.9039 7.87762 18.1735 8.11485 17.5118L9.21826 14.4649C9.48586 13.7306 10.1949 13.2565 11.0203 13.2565H15.9225M23.9548 13.263L23.6055 14.2291C23.5379 14.4128 23.3615 14.5337 23.1541 14.5337H17.6695L18.344 14.8382L18.1361 15.4197H21.6129C22.356 15.4197 22.9106 16.1539 22.6733 16.815L22.3534 17.6977C22.0863 18.4352 21.3772 18.9131 20.5482 18.9131H15.2422L15.6009 17.9296C15.6685 17.7459 15.845 17.6283 16.0524 17.6283H20.7509L21.0761 16.7245H17.5957C16.8562 16.7245 16.2985 15.994 16.5357 15.3324L16.6614 14.9791L16.8405 14.4838C17.1039 13.7431 17.8161 13.2619 18.6451 13.2619H23.9548M10.7626 14.829V14.8323L10.7616 14.8317L10.7626 14.829ZM16.0744 13.1486H11.0208C10.1494 13.1486 9.40364 13.6504 9.12085 14.4269L8.01744 17.4739C7.90066 17.7996 7.95041 18.1599 8.15412 18.4634C8.38507 18.8069 8.76684 19.0123 9.17584 19.0123H13.535C13.7848 19.0123 14 18.8654 14.0838 18.6379L14.4389 17.6538L14.4918 17.5075H9.90743L10.8213 14.9759L10.8799 15.0019L10.8684 14.8442L10.8941 14.7726L10.8616 14.758L10.8522 14.6356H15.1228C15.3726 14.6356 15.5879 14.4887 15.6716 14.2611L16.0209 13.2944L16.0738 13.1481L16.0744 13.1486ZM10.5856 14.6361H10.7202L10.7019 14.6876L10.5856 14.6361ZM24.1056 13.1546H18.6451C17.768 13.1546 17.0212 13.6623 16.7421 14.4475L16.5635 14.9423L16.4373 15.2961C16.3205 15.6212 16.3702 15.9816 16.574 16.285C16.8049 16.6286 17.1867 16.834 17.5957 16.834H20.9253L20.6781 17.521H16.0518C15.8015 17.521 15.5858 17.6668 15.5025 17.8922L15.1438 18.8757L15.0904 19.0226H20.5477C21.4212 19.0226 22.168 18.5181 22.4508 17.7367L22.7707 16.854C22.8881 16.5272 22.8383 16.1653 22.6335 15.8607C22.4026 15.5172 22.0208 15.3124 21.6123 15.3124H18.2859L18.4414 14.8767L18.4755 14.7808L18.3849 14.7396L18.1702 14.6426H23.1536C23.4034 14.6426 23.6186 14.4958 23.7029 14.2682L24.0522 13.3015L24.1051 13.1551L24.1056 13.1546Z" fill="#8971B3"/>
<path d="M18.9478 27.361L16 30.9894L13.0522 27.361H12.5049L16 31.663L19.4951 27.361H18.9478Z" fill="url(#paint3_linear_2_329)"/>
<path d="M9.25491 22.6878L3.82114 16L16 1.0106L28.1789 16L22.7451 22.6878H23.2923L28.7261 16L16 0.337048L3.27389 16L8.70766 22.6878H9.25491Z" fill="url(#paint4_linear_2_329)"/>
<path opacity="0.76" d="M20.3534 26.6766V25.3913C20.3534 24.8998 20.5985 24.6104 21.0881 24.6104C21.4175 24.6104 21.6359 24.7416 21.7438 24.9767L22.1675 24.4592C21.9381 24.1699 21.5731 24.0068 21.0881 24.0068C20.211 24.0068 19.726 24.5389 19.726 25.3907V27.3881H19.7705L20.3534 26.6761V26.6766Z" fill="#333333"/>
<path opacity="0.76" d="M19.2458 26.7904H17.5119V25.9944H18.962V25.4167H17.5119V24.6765H19.2458V24.0734H16.8845V27.3886H19.2458V26.7904Z" fill="#333333"/>
<path opacity="0.76" d="M11.0847 25.9399C11.2056 25.9741 11.3308 25.9979 11.4507 26.0201C11.7985 26.0863 12.0975 26.1421 12.0975 26.4309C12.0975 26.6178 12.0011 26.7609 11.8068 26.8286L12.1923 27.3028C12.5164 27.1305 12.7097 26.82 12.7097 26.4103C12.7097 25.6397 12.1315 25.5335 11.6466 25.442C11.2989 25.3759 10.9998 25.32 10.9998 25.0312C10.9998 24.7879 11.1763 24.5901 11.5288 24.5901C11.8812 24.5901 12.0577 24.7727 12.0629 25.0263H12.6557C12.6311 24.4178 12.1855 24.0076 11.524 24.0076C10.8626 24.0076 10.3924 24.4384 10.3924 25.0518C10.3924 25.0648 10.3929 25.0767 10.3934 25.0892L11.0847 25.9394V25.9399Z" fill="#333333"/>
<path opacity="0.76" d="M14.7484 27.4542C15.5863 27.4542 16.2184 26.9421 16.3996 26.1867H15.7382C15.5863 26.5872 15.2239 26.856 14.7484 26.856C14.1116 26.856 13.6806 26.3797 13.6806 25.7305C13.6806 25.0813 14.1116 24.6104 14.7484 24.6104C15.2234 24.6104 15.5863 24.8743 15.7382 25.2748H16.3996C16.2184 24.5194 15.5863 24.0073 14.7484 24.0073C13.7492 24.0073 13.0433 24.7372 13.0433 25.731C13.0433 26.7248 13.7487 27.4547 14.7484 27.4547V27.4542Z" fill="#333333"/>
<path d="M14.6327 26.7649C13.6382 26.7649 12.9171 26.035 12.9171 25.0293C12.9171 24.0236 13.6387 23.2937 14.6327 23.2937C15.4559 23.2937 16.1079 23.7954 16.2943 24.5714L16.3105 24.6386H15.5627L15.5496 24.6045C15.404 24.2203 15.061 23.9911 14.6327 23.9911C14.0498 23.9911 13.6429 24.4181 13.6429 25.0298C13.6429 25.6416 14.0498 26.0735 14.6327 26.0735C15.06 26.0735 15.4025 25.8421 15.5496 25.4552L15.5627 25.4211H16.3105L16.2943 25.4883C16.1079 26.2642 15.4559 26.766 14.6327 26.766V26.7649ZM11.4827 26.7649C10.76 26.7649 10.2834 26.352 10.2688 25.7131L10.2677 25.6579H10.9705L10.9716 25.711C10.9763 25.9543 11.158 26.0881 11.4832 26.0881C11.8084 26.0881 11.9948 25.9543 11.9948 25.7121C11.9948 25.4877 11.7723 25.4341 11.4099 25.3653L11.4136 25.3111L11.4041 25.3642C10.926 25.2742 10.3311 25.1621 10.3311 24.3666C10.3311 23.7348 10.8066 23.2937 11.4879 23.2937C12.1692 23.2937 12.6191 23.7142 12.6442 24.34L12.6463 24.3964H11.9619L11.9608 24.3433C11.9561 24.1103 11.7812 23.971 11.4921 23.971C11.203 23.971 11.0281 24.1151 11.0281 24.3471C11.0281 24.579 11.2502 24.6251 11.6131 24.6939L11.611 24.7486L11.6204 24.6955C12.1001 24.7855 12.6966 24.8982 12.6966 25.6926C12.6966 26.3444 12.22 26.7655 11.4827 26.7655V26.7649ZM23.3049 26.701V24.055H22.3727V23.3581H24.9535V24.055H24.0213V26.701H23.3049ZM21.4835 26.701V24.6982C21.4835 24.2354 21.2536 23.9905 20.819 23.9905C20.3843 23.9905 20.1544 24.2354 20.1544 24.6982V26.701H19.438V24.6982C19.438 23.8187 19.9544 23.2937 20.8195 23.2937C21.6846 23.2937 22.201 23.8187 22.201 24.6982V26.701H21.4846H21.4835ZM16.6646 26.701V23.3576H19.0735V24.0545H17.3815V24.6684H18.7965V25.3409H17.3815V26.009H19.0735V26.701H16.6646ZM9.2502 26.701V25.7316H7.82996V26.701H7.1277V24.7524C7.1277 23.8388 7.65662 23.2937 8.54218 23.2937C9.42773 23.2937 9.9666 23.8388 9.9666 24.7524V26.701H9.2502ZM9.2502 25.0493V24.7524C9.2502 24.2468 9.01035 23.9905 8.53799 23.9905C8.06562 23.9905 7.83049 24.2468 7.83049 24.7524V25.0493H9.25073H9.2502Z" fill="url(#paint5_linear_2_329)"/>
<path d="M20.8184 23.3473C21.6741 23.3473 22.1476 23.8664 22.1476 24.6977V26.6463H21.5359V24.6977C21.5359 24.2181 21.2971 23.9358 20.819 23.9358C20.3408 23.9358 20.102 24.2176 20.102 24.6977V26.6463H19.4904V24.6977C19.4904 23.867 19.9638 23.3473 20.8195 23.3473M14.6327 23.3473C15.4501 23.3473 16.0665 23.8469 16.2435 24.5839H15.5983C15.4501 24.1932 15.0966 23.9358 14.6327 23.9358C14.011 23.9358 13.5905 24.3958 13.5905 25.0288C13.5905 25.6617 14.011 26.1266 14.6327 26.1266C15.0961 26.1266 15.4501 25.8643 15.5983 25.4736H16.2435C16.0665 26.2106 15.4501 26.7102 14.6327 26.7102C13.6575 26.7102 12.9694 25.9982 12.9694 25.0288C12.9694 24.0593 13.6575 23.3473 14.6327 23.3473ZM11.4874 23.3473C12.1326 23.3473 12.5678 23.7478 12.5918 24.3417H12.0137C12.009 24.0946 11.832 23.9163 11.4926 23.9163C11.1533 23.9163 10.9763 24.1092 10.9763 24.3465C10.9763 24.6283 11.268 24.683 11.6073 24.747C12.0807 24.8358 12.6447 24.9399 12.6447 25.6915C12.6447 26.3195 12.1813 26.7102 11.4832 26.7102C10.7851 26.7102 10.3358 26.3293 10.3217 25.711H10.9192C10.9239 25.9684 11.1103 26.1412 11.4832 26.1412C11.8561 26.1412 12.0472 25.9684 12.0472 25.711C12.0472 25.4292 11.7555 25.3745 11.4162 25.3105C10.9428 25.2217 10.3835 25.1176 10.3835 24.366C10.3835 23.7673 10.8234 23.3473 11.4879 23.3473M8.5427 23.3473C9.42721 23.3473 9.91476 23.8865 9.91476 24.7519V26.6463H9.30309V25.6768H7.77812V26.6463H7.18059V24.7519C7.18059 23.8865 7.65872 23.3473 8.5427 23.3473ZM7.77759 25.1035H9.30257V24.7524C9.30257 24.2333 9.05382 23.9363 8.53799 23.9363C8.02216 23.9363 7.77812 24.2333 7.77812 24.7524V25.1035M24.9011 23.4118V24.0003H23.9689V26.6463H23.3573V24.0003H22.4251V23.4118H24.9011ZM19.0211 23.4118V24.0003H17.3291V24.7226H18.7441V25.2867H17.3291V26.0632H19.0211V26.6468H16.7169V23.4118H19.0211ZM20.8184 23.2389C19.9208 23.2389 19.3846 23.7841 19.3846 24.6977V26.7546H20.2057V24.6977C20.2057 24.2642 20.4115 24.0442 20.8179 24.0442C21.2243 24.0442 21.4301 24.2642 21.4301 24.6977V26.7546H22.2512V24.6977C22.2512 23.7841 21.7155 23.2389 20.8174 23.2389H20.8184ZM14.6327 23.2389C13.6083 23.2389 12.8647 23.9916 12.8647 25.0288C12.8647 26.0659 13.6083 26.8186 14.6327 26.8186C15.4805 26.8186 16.1529 26.3011 16.3451 25.4996L16.3776 25.3653H15.5271L15.5009 25.4341C15.3621 25.7998 15.0375 26.0182 14.6327 26.0182C14.0807 26.0182 13.6953 25.6113 13.6953 25.0288C13.6953 24.4462 14.0807 24.0442 14.6327 24.0442C15.0385 24.0442 15.3632 24.2609 15.5009 24.6234L15.5271 24.6922H16.3776L16.3451 24.5579C16.1529 23.757 15.4805 23.2389 14.6327 23.2389ZM11.4874 23.2389C10.7757 23.2389 10.2782 23.7022 10.2782 24.366C10.2782 25.207 10.9234 25.3284 11.3942 25.4167H11.3968L11.3994 25.4178C11.7765 25.4894 11.9414 25.5387 11.9414 25.7115C11.9414 25.9917 11.6534 26.0334 11.4822 26.0334C11.2753 26.0334 11.0276 25.977 11.0229 25.7094L11.0208 25.6031H10.2133L10.2159 25.7142C10.2316 26.3856 10.7286 26.8191 11.4822 26.8191C12.2357 26.8191 12.7484 26.3764 12.7484 25.692C12.7484 24.8521 12.1017 24.7302 11.6293 24.6413H11.6251L11.6225 24.6402C11.2454 24.5687 11.0805 24.5194 11.0805 24.3465C11.0805 24.145 11.2344 24.0247 11.4921 24.0247C11.7498 24.0247 11.9042 24.1412 11.9084 24.3438L11.9105 24.45H12.7008L12.6961 24.3373C12.6699 23.6806 12.1839 23.2395 11.4874 23.2395V23.2389ZM8.5427 23.2389C7.62415 23.2389 7.07585 23.8047 7.07585 24.7519V26.7546H7.88285V25.7852H9.19836V26.7546H10.0195V24.7519C10.0195 23.8047 9.46753 23.2389 8.5427 23.2389ZM7.88233 24.9952V24.7524C7.88233 24.2761 8.09652 24.0447 8.53746 24.0447C8.97841 24.0447 9.19731 24.2761 9.19731 24.7524V24.9952H7.88181H7.88233ZM25.0058 23.3034H22.3204V24.1086H23.2525V26.7546H24.0737V24.1086H25.0058V23.3034ZM19.1259 23.3034H16.6122V26.7552H19.1259V25.9548H17.4339V25.3951H18.8489V24.6142H17.4339V24.1086H19.1259V23.3034Z" fill="#8971B3"/>
</g>
<defs>
<linearGradient id="paint0_linear_2_329" x1="16" y1="12.4431" x2="16" y2="1.77681" gradientUnits="userSpaceOnUse">
<stop offset="0.13" stop-color="#68437E"/>
<stop offset="0.32" stop-color="#614076"/>
<stop offset="0.59" stop-color="#4F3A63"/>
<stop offset="0.88" stop-color="#353147"/>
</linearGradient>
<linearGradient id="paint1_linear_2_329" x1="18.5802" y1="32.9407" x2="15.313" y2="12.8149" gradientUnits="userSpaceOnUse">
<stop offset="0.05" stop-color="#68437E"/>
<stop offset="0.25" stop-color="#614076"/>
<stop offset="0.56" stop-color="#4F3A63"/>
<stop offset="0.88" stop-color="#353147"/>
</linearGradient>
<linearGradient id="paint2_linear_2_329" x1="16.1252" y1="28.332" x2="15.9474" y2="8.31304" gradientUnits="userSpaceOnUse">
<stop stop-color="#8DD3D9"/>
<stop offset="1" stop-color="#C2C2C1"/>
</linearGradient>
<linearGradient id="paint3_linear_2_329" x1="16.154" y1="31.5887" x2="15.9875" y2="27.3181" gradientUnits="userSpaceOnUse">
<stop stop-color="#8DD3D9"/>
<stop offset="1" stop-color="#C2C2C1"/>
</linearGradient>
<linearGradient id="paint4_linear_2_329" x1="16.2409" y1="22.6136" x2="15.391" y2="0.833427" gradientUnits="userSpaceOnUse">
<stop stop-color="#8DD3D9"/>
<stop offset="1" stop-color="#C2C2C1"/>
</linearGradient>
<linearGradient id="paint5_linear_2_329" x1="16.0408" y1="21.8989" x2="16.0408" y2="26.5704" gradientUnits="userSpaceOnUse">
<stop stop-color="#8DD3D9"/>
<stop offset="1" stop-color="#C2C2C1"/>
</linearGradient>
<clipPath id="clip0_2_329">
<rect width="26" height="32" fill="white" transform="translate(3)"/>
</clipPath>
</defs>
</svg>
