<svg width="32" height="32" viewBox="0 0 32 32" fill="none" xmlns="http://www.w3.org/2000/svg">
<g clip-path="url(#clip0_39_2)">
<path d="M2.57 15.98L16 0L29.43 15.98L16 31.95L2.57 15.98Z" fill="url(#paint0_linear_39_2)"/>
<path d="M12.88 12.27L16.02 8.57L19.13 12.27L15.99 15.97L12.88 12.27Z" fill="#E79024"/>
<path d="M9.75999 8.57L12.9 4.87L16.01 8.57L12.87 12.27L9.75999 8.57Z" fill="#BE1F4E"/>
<path d="M16.01 8.57L19.15 4.87L22.26 8.57L19.12 12.27L16.01 8.57Z" fill="#008CBF"/>
<path d="M19.15 4.87L16.01 8.57L12.9 4.87L16.04 1.17L19.15 4.87Z" fill="#D5559E"/>
<path d="M22.24 15.97L19.1 19.67L15.99 15.97L19.13 12.27L22.24 15.97Z" fill="#D5559E"/>
<path d="M25.38 12.27L22.24 15.97L19.13 12.27L22.27 8.57L25.38 12.27Z" fill="#E0E0E0"/>
<path d="M19.11 19.68L22.25 15.98L25.36 19.68L22.22 23.38L19.11 19.68Z" fill="#0F9F4A"/>
<path d="M28.49 15.97L25.35 19.67L22.24 15.97L25.38 12.27L28.49 15.97Z" fill="#C1D840"/>
<path d="M12.88 12.27L9.74 15.97L6.63 12.27L9.77 8.57L12.88 12.27Z" fill="#C1D840"/>
<path d="M15.99 15.97L12.85 19.67L9.74 15.97L12.88 12.27L15.99 15.97Z" fill="#0F9F4A"/>
<path d="M6.61 19.68L9.75 15.98L12.86 19.68L9.72 23.38L6.61 19.68Z" fill="#008CBF"/>
<path d="M9.74 15.97L6.6 19.67L3.49 15.97L6.63 12.27L9.74 15.97Z" fill="#E79024"/>
<path d="M19.11 19.68L15.97 23.38L12.86 19.68L16 15.98L19.11 19.68Z" fill="#BE1F4E"/>
<path d="M22.22 23.38L19.08 27.08L15.97 23.38L19.11 19.68L22.22 23.38Z" fill="#C1D840"/>
<path d="M15.97 23.38L12.83 27.08L9.72 23.38L12.86 19.68L15.97 23.38Z" fill="#E79024"/>
<path d="M19.09 27.08L15.95 30.78L12.84 27.08L15.98 23.38L19.09 27.08Z" fill="#E0E0E0"/>
<path d="M19.3 25.09C18.7 25.09 18.3 25.52 18.3 26.11C18.3 26.61 18.59 26.99 19.03 27.1L19.32 26.75L19.1 26.44H19.58L20.22 25.69C20.08 25.33 19.74 25.09 19.3 25.09Z" fill="url(#paint1_linear_39_2)"/>
<path d="M16.02 1.2L3.52 15.97L9.9 23.59L10.75 24.6H10.91C11.67 24.6 12.01 25.02 12.01 25.59C12.01 25.74 11.99 25.88 11.94 26L12.53 26.7V24.6H13.12V27.06H14.69V27.6H13.3L13.75 28.13L15.94 30.74L18.15 28.13L18.65 27.54C18.07 27.31 17.7 26.77 17.7 26.1C17.7 25.2 18.36 24.54 19.3 24.54C19.88 24.54 20.36 24.79 20.63 25.2L21.99 23.59L28.44 15.97L16.02 1.2ZM10.23 15.58L10.84 15.84L9.89 18.38L9.8 18.62H14.54L14.17 19.6C14.1 19.78 13.92 19.9 13.7 19.9H9.2C8.44 19.9 7.86 19.17 8.1 18.51L8.2 18.24L9.24 15.47C9.26 15.42 9.28 15.37 9.3 15.32C9.61 14.67 10.3 14.26 11.1 14.26H16.16L15.8 15.22C15.73 15.4 15.55 15.52 15.33 15.52H10.11L10.21 15.56L10.23 15.58ZM17.33 25.15H15.7V25.82H17.06V26.34H15.7V27.06H17.33V27.6H15.11V24.59H17.33V25.14V25.15ZM23.64 15.54H17.97L18.09 15.59L18.66 15.84L18.45 16.42H22.04C22.35 16.42 22.62 16.54 22.83 16.72C23.14 16.99 23.29 17.42 23.14 17.81L22.81 18.69C22.53 19.43 21.8 19.9 20.94 19.9H15.46L15.83 18.92C15.9 18.74 16.08 18.62 16.3 18.62H21.15L21.49 17.72H17.89C17.13 17.72 16.55 16.99 16.79 16.33L16.92 15.98L17.1 15.49C17.1 15.49 17.12 15.44 17.13 15.41C17.42 14.72 18.14 14.27 18.96 14.27H24.45L24.09 15.23C24.02 15.41 23.84 15.53 23.62 15.53L23.64 15.54Z" fill="url(#paint2_linear_39_2)"/>
<path opacity="0.62" d="M15.35 15.54H10.13L10.23 15.58L10.84 15.84L9.89 18.38L9.8 18.62H14.54L14.17 19.6C14.1 19.78 13.92 19.9 13.7 19.9H9.2C8.44 19.9 7.86 19.17 8.1 18.51L8.2 18.24L9.24 15.47C9.26 15.42 9.28 15.37 9.3 15.32C9.61 14.67 10.3 14.26 11.1 14.26H16.16L15.8 15.22C15.73 15.4 15.55 15.52 15.33 15.52L15.35 15.54ZM18.99 14.28C18.17 14.28 17.45 14.73 17.16 15.42C17.15 15.45 17.14 15.47 17.13 15.5L16.95 15.99L16.82 16.34C16.57 17 17.15 17.73 17.92 17.73H21.52L21.18 18.63H16.33C16.12 18.63 15.93 18.75 15.86 18.93L15.49 19.91H20.97C21.83 19.91 22.56 19.43 22.84 18.7L23.17 17.82C23.32 17.42 23.17 17 22.86 16.73C22.66 16.55 22.38 16.43 22.07 16.43H18.48L18.69 15.85L18.12 15.6L18 15.55H23.67C23.88 15.55 24.07 15.43 24.14 15.25L24.5 14.29H19.02L18.99 14.28Z" fill="#333333"/>
<path d="M10.63 14.81L9.92 14.51H15.14C15.35 14.51 15.54 14.39 15.61 14.21L15.97 13.25H10.91C10.06 13.25 9.32 13.72 9.05 14.46L7.91 17.5C7.66 18.16 8.24 18.89 9.01 18.89H13.51C13.72 18.89 13.91 18.77 13.98 18.59L14.35 17.61H9.61L10.65 14.83L10.63 14.81ZM18.78 13.24C17.92 13.24 17.19 13.72 16.92 14.46L16.74 14.95L16.61 15.3C16.36 15.96 16.94 16.69 17.71 16.69H21.31L20.97 17.59H16.12C15.91 17.59 15.72 17.71 15.65 17.89L15.28 18.87H20.76C21.62 18.87 22.35 18.39 22.63 17.66L22.96 16.78C23.21 16.12 22.63 15.39 21.86 15.39H18.27L18.48 14.81L17.78 14.51H23.45C23.66 14.51 23.85 14.39 23.92 14.21L24.28 13.25H18.8L18.78 13.24Z" fill="url(#paint3_linear_39_2)"/>
<g opacity="0.39">
<path d="M21.3 24.6V25.71L21.89 25.02V24.6H21.3Z" fill="#333333"/>
<path d="M19.3 24.54C18.36 24.54 17.7 25.2 17.7 26.1C17.7 27 18.36 27.66 19.3 27.66C19.43 27.66 19.56 27.65 19.69 27.62L20.9 26.18C20.9 26.18 20.9 26.13 20.9 26.1C20.9 25.2 20.24 24.54 19.3 24.54ZM20.05 26.81L19.79 26.44H19.11L19.58 27.09C19.49 27.11 19.4 27.12 19.3 27.12C18.7 27.12 18.3 26.69 18.3 26.1C18.3 25.51 18.7 25.08 19.3 25.08C19.9 25.08 20.3 25.51 20.3 26.1C20.3 26.38 20.21 26.62 20.05 26.8V26.81Z" fill="#333333"/>
<path d="M12.01 25.59C12.01 25.02 11.67 24.6 10.91 24.6H9.88L10.34 25.15H10.92C11.29 25.15 11.42 25.34 11.42 25.6C11.42 25.82 11.33 25.99 11.08 26.04L11.47 26.5C11.82 26.35 12.01 26.04 12.01 25.6V25.59Z" fill="#333333"/>
<path d="M17.33 27.07H15.71V26.34H17.07V25.82H15.71V25.15H17.33V24.6H15.12V27.61H17.33V27.07Z" fill="#333333"/>
<path d="M12.53 24.6V27.61H14.69V27.07H13.12V24.6H12.53Z" fill="#333333"/>
</g>
<path d="M9.39 23.59L3.04 15.98L16.02 0.49L29.05 15.98L22.6 23.6H22L28.45 15.98L16.02 1.2L3.52 15.97L9.9 23.59H9.39ZM18.15 28.14L15.94 30.75L13.75 28.14H13.17L15.94 31.46L18.75 28.14H18.15Z" fill="url(#paint4_linear_39_2)"/>
<path d="M20.61 27.59L20.25 27.08C20.07 27.14 19.87 27.18 19.66 27.18C18.7 27.18 18.01 26.5 18.01 25.56C18.01 24.62 18.71 23.94 19.66 23.94C20.61 23.94 21.31 24.62 21.31 25.56C21.31 26.03 21.14 26.45 20.82 26.74L21.42 27.59H20.62H20.61ZM19.66 24.6C19.1 24.6 18.71 25 18.71 25.56C18.71 26.12 19.1 26.53 19.66 26.53C19.73 26.53 19.79 26.53 19.84 26.52L19.36 25.85H20.17L20.41 26.18C20.54 26.01 20.61 25.8 20.61 25.57C20.61 25 20.22 24.61 19.66 24.61V24.6ZM22.93 27.18C22.1 27.18 21.6 26.69 21.6 25.87V24H22.3V25.87C22.3 26.3 22.52 26.53 22.93 26.53C23.34 26.53 23.57 26.3 23.57 25.87V24H24.25V25.87C24.25 26.69 23.76 27.18 22.94 27.18H22.93ZM27.79 27.12V25.25C27.79 24.82 27.57 24.6 27.15 24.6C26.73 24.6 26.51 24.83 26.51 25.25V27.12H25.81V25.25C25.81 24.43 26.31 23.94 27.14 23.94C27.97 23.94 28.47 24.43 28.47 25.25V27.12H27.77H27.79ZM24.69 27.12V24.01H25.39V27.12H24.69ZM15.42 27.12V24.01H17.74V24.67H16.11V25.23H17.47V25.86H16.11V26.47H17.74V27.12H15.42ZM12.83 27.12V24.01H13.53V26.47H15.1V27.12H12.83ZM11.75 27.12L11.11 26.1H10.65V27.12H9.95V24.01H11.26C11.99 24.01 12.41 24.39 12.41 25.06C12.41 25.53 12.2 25.87 11.81 26.02L12.57 27.13H11.74L11.75 27.12ZM11.28 25.44C11.58 25.44 11.72 25.31 11.72 25.04C11.72 24.77 11.58 24.65 11.28 24.65H10.65V25.44H11.28ZM8.82 27.12V26.22H7.46V27.12H6.78V25.31C6.78 24.46 7.29 23.95 8.14 23.95C8.99 23.95 9.51 24.46 9.51 25.31V27.12H8.81H8.82ZM8.82 25.57V25.3C8.82 24.83 8.59 24.6 8.14 24.6C7.69 24.6 7.46 24.84 7.46 25.3V25.57H8.82ZM5.65 27.12V25.86H4.32V27.12H3.62V24.01H4.32V25.22H5.65V24.01H6.35V27.12H5.65Z" fill="#BE1F4E"/>
<path d="M27.16 24C27.98 24 28.44 24.48 28.44 25.26V27.07H27.85V25.26C27.85 24.81 27.62 24.55 27.16 24.55C26.7 24.55 26.47 24.81 26.47 25.26V27.07H25.88V25.26C25.88 24.49 26.34 24 27.16 24ZM19.66 24C20.6 24 21.26 24.66 21.26 25.56C21.26 26.04 21.07 26.46 20.75 26.74L21.32 27.54H20.65L20.28 27.02C20.1 27.09 19.89 27.13 19.67 27.13C18.73 27.13 18.07 26.47 18.07 25.57C18.07 24.67 18.73 24.01 19.67 24.01M19.66 26.58C19.76 26.58 19.85 26.58 19.94 26.55L19.47 25.9H20.15L20.41 26.27C20.57 26.09 20.66 25.85 20.66 25.57C20.66 24.98 20.26 24.55 19.66 24.55C19.06 24.55 18.66 24.98 18.66 25.57C18.66 26.16 19.06 26.59 19.66 26.59M8.14 24C8.99 24 9.46 24.5 9.46 25.31V27.07H8.87V26.17H7.4V27.07H6.83V25.31C6.83 24.51 7.29 24 8.14 24ZM7.41 25.63H8.88V25.3C8.88 24.82 8.64 24.54 8.14 24.54C7.64 24.54 7.41 24.82 7.41 25.3V25.63ZM25.33 24.05V27.06H24.74V24.05H25.33ZM24.19 24.05V25.86C24.19 26.63 23.74 27.11 22.93 27.11C22.12 27.11 21.65 26.63 21.65 25.86V24.05H22.24V25.86C22.24 26.31 22.47 26.57 22.92 26.57C23.37 26.57 23.61 26.3 23.61 25.86V24.05H24.18M17.69 24.05V24.6H16.06V25.27H17.42V25.79H16.06V26.51H17.69V27.05H15.47V24.04H17.69M13.48 24.05V26.51H15.05V27.05H12.89V24.04H13.48M11.27 24.05C12.03 24.05 12.37 24.47 12.37 25.04C12.37 25.51 12.14 25.84 11.74 25.97L12.48 27.05H11.78L11.14 26.03H10.6V27.05H10.01V24.04H11.27M10.6 25.5H11.28C11.65 25.5 11.78 25.31 11.78 25.05C11.78 24.79 11.66 24.6 11.28 24.6H10.6V25.5ZM6.29 24.05V27.06H5.7V25.8H4.26V27.06H3.67V24.05H4.26V25.26H5.7V24.05H6.29ZM27.16 23.89C26.29 23.89 25.77 24.4 25.77 25.25V27.17H26.57V25.25C26.57 24.85 26.77 24.65 27.15 24.65C27.53 24.65 27.73 24.85 27.73 25.25V27.17H28.53V25.25C28.53 24.4 28.01 23.89 27.14 23.89H27.16ZM19.66 23.89C18.67 23.89 17.95 24.59 17.95 25.56C17.95 26.53 18.67 27.23 19.66 27.23C19.86 27.23 20.05 27.2 20.23 27.14L20.56 27.59L20.59 27.64H21.53L21.41 27.47L20.9 26.75C21.21 26.45 21.38 26.03 21.38 25.56C21.38 24.59 20.66 23.89 19.67 23.89H19.66ZM19.66 26.47C19.13 26.47 18.77 26.09 18.77 25.56C18.77 25.03 19.14 24.65 19.66 24.65C20.18 24.65 20.55 25.02 20.55 25.56C20.55 25.76 20.5 25.93 20.41 26.08L20.23 25.83L20.2 25.78H19.25L19.37 25.95L19.74 26.46C19.74 26.46 19.68 26.46 19.65 26.46L19.66 26.47ZM8.14 23.89C7.25 23.89 6.72 24.42 6.72 25.3V27.17H7.51V26.27H8.76V27.17H9.56V25.3C9.56 24.41 9.03 23.89 8.13 23.89H8.14ZM7.52 25.52V25.3C7.52 24.86 7.72 24.65 8.14 24.65C8.56 24.65 8.77 24.86 8.77 25.3V25.52H7.52ZM25.44 23.95H24.64V27.17H25.44V23.95ZM24.3 23.95H23.51V25.87C23.51 26.27 23.31 26.47 22.93 26.47C22.55 26.47 22.35 26.27 22.35 25.87V23.95H21.55V25.87C21.55 26.72 22.07 27.23 22.94 27.23C23.36 27.23 23.71 27.1 23.95 26.86C24.18 26.62 24.31 26.28 24.31 25.87V23.95H24.3ZM17.8 23.95H15.37V27.17H17.8V26.41H16.17V25.9H17.53V25.16H16.17V24.71H17.8V23.95ZM13.58 23.95H12.78V27.17H15.16V26.41H13.59V23.95H13.58ZM11.27 23.95H9.9V27.17H10.7V26.15H11.07L11.68 27.12L11.71 27.17H12.67L12.55 27L11.89 26.03C12.26 25.86 12.46 25.51 12.46 25.05C12.46 24.36 12.01 23.95 11.25 23.95H11.27ZM10.71 24.71H11.28C11.62 24.71 11.67 24.88 11.67 25.05C11.67 25.29 11.55 25.39 11.28 25.39H10.71V24.71ZM6.4 23.95H5.6V25.16H4.38V23.95H3.58V27.17H4.38V25.91H5.6V27.17H6.4V23.95Z" fill="#E89727"/>
<path d="M15.97 13.24L15.61 14.2C15.54 14.38 15.36 14.5 15.14 14.5H9.92L10.63 14.8L9.59 17.58H14.33L13.96 18.56C13.89 18.74 13.71 18.86 13.49 18.86H8.99C8.23 18.86 7.65 18.13 7.89 17.47L9.03 14.43C9.31 13.7 10.04 13.22 10.89 13.22H15.95M24.27 13.24L23.91 14.2C23.84 14.38 23.66 14.5 23.44 14.5H17.77L18.47 14.8L18.26 15.38H21.85C22.62 15.38 23.19 16.11 22.95 16.77L22.62 17.65C22.34 18.39 21.61 18.86 20.75 18.86H15.27L15.64 17.88C15.71 17.7 15.89 17.58 16.11 17.58H20.96L21.3 16.68H17.7C16.94 16.68 16.36 15.95 16.6 15.29L16.73 14.94L16.91 14.45C17.18 13.71 17.92 13.23 18.77 13.23H24.26M16.12 13.13H10.9C10 13.13 9.23 13.63 8.94 14.41L7.8 17.45C7.68 17.78 7.73 18.14 7.94 18.44C8.18 18.78 8.57 18.99 9 18.99H13.5C13.76 18.99 13.98 18.84 14.07 18.62L14.44 17.64L14.49 17.49H9.75L10.69 14.96L10.75 14.99V14.83L10.77 14.76H10.74V14.62H15.15C15.41 14.62 15.63 14.47 15.72 14.25L16.08 13.28L16.13 13.13H16.12ZM10.45 14.61H10.59L10.57 14.66L10.45 14.61ZM24.42 13.13H18.78C17.87 13.13 17.1 13.64 16.81 14.42L16.63 14.91L16.5 15.26C16.38 15.58 16.43 15.94 16.64 16.25C16.88 16.59 17.27 16.8 17.7 16.8H21.14L20.88 17.49H16.1C15.84 17.49 15.62 17.64 15.53 17.86L15.16 18.84L15.1 18.99H20.74C21.64 18.99 22.41 18.49 22.71 17.71L23.04 16.83C23.16 16.5 23.11 16.14 22.9 15.84C22.66 15.5 22.27 15.29 21.84 15.29H18.4L18.56 14.85L18.6 14.75L18.51 14.71L18.29 14.61H23.44C23.7 14.61 23.92 14.46 24.01 14.24L24.37 13.27L24.42 13.12V13.13Z" fill="#DD7173"/>
</g>
<defs>
<linearGradient id="paint0_linear_39_2" x1="17.06" y1="32.76" x2="15.05" y2="0.889998" gradientUnits="userSpaceOnUse">
<stop stop-color="#D6609F"/>
<stop offset="0.68" stop-color="#E1B896"/>
<stop offset="1" stop-color="#EEDDD4"/>
</linearGradient>
<linearGradient id="paint1_linear_39_2" x1="19.28" y1="24.98" x2="19.24" y2="27.35" gradientUnits="userSpaceOnUse">
<stop offset="0.29" stop-color="#D9D98B" stop-opacity="0"/>
<stop offset="1" stop-color="#FFDFBD"/>
</linearGradient>
<linearGradient id="paint2_linear_39_2" x1="16.28" y1="-0.41" x2="15.64" y2="34.48" gradientUnits="userSpaceOnUse">
<stop offset="0.29" stop-color="#D9D98B" stop-opacity="0"/>
<stop offset="1" stop-color="#FFDFBD"/>
</linearGradient>
<linearGradient id="paint3_linear_39_2" x1="17.22" y1="22.93" x2="15.38" y2="11.29" gradientUnits="userSpaceOnUse">
<stop stop-color="#D6609F"/>
<stop offset="0.09" stop-color="#D6679E"/>
<stop offset="0.22" stop-color="#D97A9C"/>
<stop offset="0.38" stop-color="#DD9B99"/>
<stop offset="0.56" stop-color="#E3C795"/>
<stop offset="0.63" stop-color="#E6DD93"/>
<stop offset="0.8" stop-color="#E9DDAF"/>
<stop offset="1" stop-color="#EEDDD4"/>
</linearGradient>
<linearGradient id="paint4_linear_39_2" x1="16.64" y1="30.65" x2="15.63" y2="5.65" gradientUnits="userSpaceOnUse">
<stop offset="0.05" stop-color="#E89727"/>
<stop offset="0.61" stop-color="#D5559E"/>
<stop offset="0.72" stop-color="#B870B2"/>
<stop offset="0.94" stop-color="#71B8E6"/>
<stop offset="1" stop-color="#5ECBF4"/>
</linearGradient>
<clipPath id="clip0_39_2">
<rect width="26.86" height="31.95" fill="white" transform="translate(2.57)"/>
</clipPath>
</defs>
</svg>
