<svg width="32" height="32" viewBox="0 0 32 32" fill="none" xmlns="http://www.w3.org/2000/svg">
<g clip-path="url(#clip0_4_145)">
<path d="M30 16L16.4547 32L3 16L16.5453 0L30.0004 16H30Z" fill="url(#paint0_linear_4_145)"/>
<path d="M14.2819 6.20837C13.4115 6.40243 12.5826 6.70715 11.8111 7.10785L12.6836 6.07718C13.1811 5.8894 13.6936 5.73934 14.2165 5.62701L14.2823 6.20795L14.2819 6.20837ZM15.0677 7.83968C13.3533 8.13056 11.7747 8.94161 10.5217 10.1948C10.2698 10.4468 10.036 10.7117 9.82061 10.9879L10.2724 11.3601C11.4512 9.83858 13.1739 8.75844 15.146 8.41474L15.0672 7.83926L15.0677 7.83968ZM16.4686 7.13174L16.4606 6.5529C14.2727 6.56213 12.1996 7.29563 10.5146 8.6394L8.07356 11.5227C7.41354 12.7156 7.01627 14.0397 6.90983 15.4228L7.49609 15.3558C7.91138 10.7628 11.7739 7.14935 16.4682 7.13174H16.4686ZM9.75357 13.4105L10.2921 13.6381C11.0531 11.7826 12.6208 10.3407 14.5577 9.75265L14.4625 9.17381C13.2967 9.51123 12.2285 10.1387 11.3472 11.0201C10.6524 11.7151 10.1152 12.5266 9.75398 13.4101L9.75357 13.4105ZM24.1902 15.7858C24.1902 18.4277 22.8835 20.7699 20.8825 22.2L21.2274 22.6724C21.6033 22.4028 21.9603 22.1011 22.2939 21.7674C23.8901 20.1709 24.7693 18.0467 24.7693 15.7858C24.7693 13.525 23.8901 11.4007 22.2939 9.80421C21.4738 8.98394 20.5142 8.35355 19.4686 7.93398L19.1556 8.4378C22.0986 9.58038 24.1906 12.4431 24.1906 15.7858H24.1902ZM12.5822 23.3807L12.8437 22.8576C10.8381 21.8693 9.31104 20.0519 8.71262 17.8551L8.15485 18.0224C8.53662 19.4257 9.27793 20.7116 10.3331 21.767C11.0003 22.4343 11.7596 22.9754 12.5826 23.3803L12.5822 23.3807ZM21.8573 15.7858C21.8573 17.4259 21.1411 18.9017 20.0054 19.9177L20.4647 20.2874C20.5251 20.2317 20.585 20.1755 20.6437 20.1173C21.7994 18.9613 22.436 17.423 22.436 15.7862C22.436 14.1495 21.7994 12.6112 20.6437 11.4552C20.2661 11.0776 19.8475 10.7557 19.3982 10.4929L19.1116 11.0013C20.7526 11.9653 21.8573 13.7492 21.8573 15.7862V15.7858ZM14.4843 24.6449C12.6476 24.2659 11.012 23.3287 9.76488 22.0181L9.61318 22.1501L11.0292 23.8342C12.0508 24.5078 13.1886 24.9751 14.3892 25.2174L14.4847 24.6449H14.4843ZM21.4688 20.9421C22.8446 19.5661 23.6026 17.7344 23.6026 15.7858C23.6026 13.8372 22.845 12.0056 21.4688 10.6295C21.3422 10.5029 21.2119 10.3818 21.0778 10.2657L20.6914 10.7037C22.1188 11.9356 23.0239 13.7572 23.0239 15.7862C23.0239 19.2073 20.4513 22.0386 17.1395 22.4473L17.2074 23.0232C18.8174 22.8279 20.3059 22.1065 21.4692 20.943L21.4688 20.9421ZM15.7218 25.9807C14.4257 25.9061 13.194 25.5888 12.071 25.0732L12.8642 26.0163C13.7715 26.321 14.7236 26.5046 15.6996 26.5591L15.7218 25.9807ZM17.6407 26.4958C18.4993 26.391 19.3345 26.1856 20.1324 25.8847L21.0049 24.854C19.9409 25.4069 18.7675 25.7778 17.5271 25.9253L17.6411 26.4954L17.6407 26.4958ZM22.2005 8.44786L21.9859 8.74629C24.0406 10.4057 25.3572 12.9449 25.3572 15.7858C25.3572 19.844 22.6715 23.286 18.985 24.4286L19.019 25.0267C20.2087 24.6805 21.3209 24.1054 22.3015 23.3237L24.7425 20.4404C25.5215 19.0325 25.9364 17.4419 25.9364 15.7862C25.9364 14.4437 25.6636 13.1435 25.1448 11.949L22.2009 8.44828L22.2005 8.44786ZM28.2676 15.6626L27.6587 14.9383C27.6793 15.2183 27.6906 15.5008 27.6906 15.7858C27.6906 16.2092 27.6667 16.6275 27.6214 17.0391L28.2584 16.2867C28.2651 16.1203 28.2693 15.9535 28.2693 15.7858C28.2693 15.7447 28.268 15.7037 28.2676 15.6626ZM26.1887 13.1905C26.4066 14.0195 26.5235 14.8893 26.5235 15.7858C26.5235 16.8768 26.3508 17.9285 26.0324 18.9151L26.8977 17.8929C27.0326 17.2063 27.1018 16.5017 27.1018 15.7862C27.1018 15.2254 27.059 14.6713 26.9757 14.1273L26.1882 13.1909L26.1887 13.1905ZM13.5423 26.8231L14.1541 27.5504C14.8594 27.6782 15.581 27.7436 16.3131 27.7436C17.1491 27.7436 17.9717 27.6577 18.7717 27.4917L19.4116 26.736C18.4264 27.0151 17.3867 27.1647 16.3131 27.1647C15.3576 27.1647 14.4294 27.0457 13.5423 26.8227V26.8231ZM15.783 29.4872L16.2787 30.077C16.2901 30.077 16.3018 30.0774 16.3131 30.0774C16.404 30.0774 16.495 30.0757 16.5855 30.074L17.0917 29.4759C16.834 29.4906 16.5746 29.4985 16.3131 29.4985C16.1354 29.4985 15.959 29.4939 15.783 29.4872ZM14.7274 28.2319L15.2629 28.869C15.6108 28.8962 15.9607 28.9109 16.3135 28.9109C16.7544 28.9109 17.1923 28.8891 17.6252 28.8468L18.1783 28.1933C17.5699 28.2843 16.9471 28.3321 16.3135 28.3321C15.7763 28.3321 15.247 28.2981 14.7274 28.2323V28.2319Z" fill="url(#paint1_linear_4_145)"/>
<path d="M15.8144 15.0079H10.4597L10.5624 15.0519L11.1884 15.3197L10.2145 17.9276L10.1223 18.1741H14.9843L14.608 19.1821C14.5363 19.3703 14.3494 19.4944 14.1294 19.4944H9.50632C8.72184 19.4944 8.13013 18.7454 8.38198 18.0676L8.48633 17.7893L9.55242 14.9446C9.57211 14.8926 9.5939 14.8423 9.61779 14.7929C9.94047 14.1273 10.6487 13.7056 11.4637 13.7056H16.663L16.2926 14.696C16.2209 14.8842 16.034 15.0083 15.814 15.0083L15.8144 15.0079ZM19.5537 13.7115H19.5499C18.703 13.7115 17.9713 14.1692 17.6688 14.8817C17.657 14.909 17.6461 14.9366 17.6357 14.9647L17.4458 15.4723L17.3121 15.8344C17.0603 16.5122 17.652 17.2612 18.4365 17.2612H22.1276L21.7822 18.1875H16.7988C16.5788 18.1875 16.3919 18.3082 16.3198 18.4964L15.9397 19.5045H21.5673C22.4465 19.5045 23.1987 19.0145 23.482 18.2588L23.8214 17.3538C23.9727 16.9464 23.8206 16.5126 23.5042 16.2305C23.2938 16.0432 23.0113 15.9233 22.6966 15.9233H19.0093L19.2298 15.3269L18.6401 15.0695L18.5144 15.0146H24.3314C24.5514 15.0146 24.7383 14.8905 24.81 14.7023L25.1804 13.7119H19.5529L19.5537 13.7115Z" fill="url(#paint2_radial_4_145)"/>
<path d="M10.7903 14.7987H10.7891L10.7903 14.7954V14.7987ZM10.7891 14.7979L10.0603 14.486H15.4151C15.6351 14.486 15.822 14.362 15.8936 14.1738L16.2641 13.1833H11.0648C10.1894 13.1833 9.43717 13.6696 9.15347 14.4219L7.98304 17.5454C7.73118 18.2231 8.32289 18.9722 9.10737 18.9722H13.7304C13.95 18.9722 14.1373 18.8481 14.209 18.6599L14.5853 17.6518H9.72339L10.7895 14.7975L10.7891 14.7979ZM19.1539 13.1896H19.1501C18.2709 13.1896 17.5154 13.683 17.2363 14.4425L17.0465 14.95L16.9128 15.3122C16.6609 15.9899 17.2526 16.739 18.0371 16.739H21.7282L21.3829 17.6653H16.3994C16.1794 17.6653 15.9925 17.786 15.9204 17.9742L15.5404 18.9822H21.1679C22.0471 18.9822 22.7993 18.4922 23.0826 17.7365L23.422 16.8316C23.6739 16.1538 23.0855 15.401 22.2973 15.401H18.61L18.8304 14.8046L18.1151 14.4923H23.932C24.152 14.4923 24.3389 14.3683 24.4106 14.1801L24.781 13.1896H19.1535H19.1539Z" fill="url(#paint3_linear_4_145)"/>
<path d="M16.5423 1.05499L29.1103 16.0004L16.4581 30.9459L3.75221 16.0021L16.5423 1.05499ZM16.5436 0.331963L16.3864 0.517644L3.39224 15.8675L3.28035 15.9996L3.39182 16.132L16.3001 31.4819L16.4564 31.668L16.6136 31.4824L29.6082 16.1324L29.7201 16.0004L29.6086 15.868L16.7003 0.518063L16.544 0.331963H16.5436Z" fill="url(#paint4_linear_4_145)"/>
</g>
<defs>
<linearGradient id="paint0_linear_4_145" x1="11.6951" y1="-16.2293" x2="18.829" y2="31.601" gradientUnits="userSpaceOnUse">
<stop offset="0.15" stop-color="#2AB565"/>
<stop offset="1" stop-color="#195449"/>
</linearGradient>
<linearGradient id="paint1_linear_4_145" x1="14.8782" y1="-5.03225" x2="18.9699" y2="26.0152" gradientUnits="userSpaceOnUse">
<stop stop-color="#56A646"/>
<stop offset="1" stop-color="#1B3D4E"/>
</linearGradient>
<radialGradient id="paint2_radial_4_145" cx="0" cy="0" r="1" gradientUnits="userSpaceOnUse" gradientTransform="translate(16.1096 17.089) rotate(-0.360073) scale(11.662 4.78239)">
<stop stop-color="#196B53"/>
<stop offset="1" stop-color="#224A51"/>
</radialGradient>
<linearGradient id="paint3_linear_4_145" x1="17.0632" y1="20.0787" x2="15.5242" y2="10.3119" gradientUnits="userSpaceOnUse">
<stop stop-color="#60BB4F"/>
<stop offset="1" stop-color="#99BF82"/>
</linearGradient>
<linearGradient id="paint4_linear_4_145" x1="16.6215" y1="16.5139" x2="10.3969" y2="-9.77849" gradientUnits="userSpaceOnUse">
<stop stop-color="#60BB4F"/>
<stop offset="1" stop-color="#99BF82"/>
</linearGradient>
<clipPath id="clip0_4_145">
<rect width="27" height="32" fill="white" transform="translate(3)"/>
</clipPath>
</defs>
</svg>
