<svg width="33" height="32" viewBox="0 0 33 32" fill="none" xmlns="http://www.w3.org/2000/svg">
<g clip-path="url(#clip0_2_428)">
<path d="M3.5 16L16.5 0L29.5 16L16.5 32L3.5 16Z" fill="url(#paint0_linear_2_428)"/>
<path d="M16.7629 1.07833L19.7296 4.72842V27.1258L16.7629 30.7515V1.07833ZM23.5844 9.47038L22.3978 8.01057V24.7556L23.5844 23.305V9.47038ZM21.8898 7.38578L20.7031 5.92597V26.8614L21.8898 25.4108V7.38578ZM12.4425 5.74119L9.47579 9.32841V23.3722L12.4425 26.9822V5.74119ZM27.4398 14.2134L24.7276 10.8771V21.0178L27.4398 17.7037V14.2134ZM5.74819 18.1106L7.78166 20.5848V11.3767L5.74819 13.8352V18.1106Z" fill="url(#paint1_linear_2_428)"/>
<path opacity="0.62" d="M16.1219 15.3216H11.073L11.1699 15.3644L11.7606 15.6256L10.8426 18.1697L10.7557 18.4103H15.34L14.985 19.3938C14.9174 19.5775 14.7409 19.6983 14.5336 19.6983H10.1744C9.43494 19.6983 8.87721 18.9679 9.11444 18.3062L9.2129 18.0347L10.2179 15.2598C10.2362 15.2094 10.2571 15.1601 10.2796 15.1119C10.5839 14.4627 11.2516 14.0514 12.0204 14.0514H16.9226L16.5733 15.0176C16.5058 15.2013 16.3293 15.3221 16.1219 15.3221V15.3216ZM19.6479 14.0568H19.6442C18.8456 14.0568 18.1559 14.5033 17.8705 15.198C17.8595 15.2246 17.849 15.2517 17.8396 15.2788L17.6605 15.774L17.5348 16.1273C17.2976 16.7884 17.8553 17.5194 18.5947 17.5194H22.0752L21.75 18.4233H17.0514C16.8441 18.4233 16.6676 18.5409 16.6 18.7246L16.2413 19.7081H21.5473C22.3763 19.7081 23.0854 19.2301 23.3524 18.4926L23.6724 17.6099C23.8149 17.2127 23.6719 16.789 23.3734 16.5142C23.1754 16.3316 22.9089 16.2146 22.6119 16.2146H19.1352L19.3431 15.6332L18.7875 15.3823L18.6691 15.3286H24.1537C24.3611 15.3286 24.537 15.2072 24.6051 15.0241L24.9544 14.0579H19.6484L19.6479 14.0568Z" fill="#333333"/>
<path d="M11.3941 14.7905H11.3925L11.3935 14.7873V14.7905H11.3941ZM11.393 14.79L10.7059 14.486H15.7548C15.9622 14.486 16.1381 14.3646 16.2062 14.1815L16.5555 13.2153H11.6533C10.8279 13.2153 10.1184 13.6894 9.85127 14.4237L8.74786 17.4707C8.51063 18.1317 9.06836 18.8627 9.80781 18.8627H14.167C14.3744 18.8627 14.5503 18.7414 14.6184 18.5582L14.9735 17.5747H10.3891L11.3941 14.7905L11.393 14.79ZM19.2803 13.2213H19.2766C18.4476 13.2213 17.7354 13.7024 17.472 14.4432L17.2929 14.9385L17.1672 15.2918C16.9299 15.9529 17.4877 16.6839 18.2271 16.6839H21.7075L21.3823 17.5877H16.6838C16.4764 17.5877 16.3 17.7053 16.2324 17.889L15.8737 18.8725H21.1797C22.0087 18.8725 22.7177 18.3946 22.9848 17.6571L23.3048 16.7743C23.542 16.1133 22.9874 15.379 22.2443 15.379H18.7676L18.9755 14.7976L18.301 14.493H23.7855C23.9929 14.493 24.1689 14.3717 24.2369 14.1885L24.5862 13.2223H19.2803V13.2213Z" fill="#E8EED2"/>
<path d="M16.555 13.2153L16.2057 14.1815C16.1381 14.3652 15.9616 14.486 15.7543 14.486H10.7054L11.3925 14.79L10.3875 17.5742H14.9719L14.6168 18.5577C14.5493 18.7414 14.3728 18.8622 14.1654 18.8622H9.80623C9.06679 18.8622 8.50906 18.1317 8.74629 17.4701L9.8497 14.4231C10.1173 13.6889 10.8264 13.2148 11.6517 13.2148H16.5539M24.5862 13.2213L24.2369 14.1874C24.1694 14.3711 23.9929 14.492 23.7855 14.492H18.301L18.9755 14.7965L18.7676 15.3779H22.2443C22.9874 15.3779 23.542 16.1122 23.3048 16.7733L22.9848 17.656C22.7177 18.3935 22.0087 18.8714 21.1797 18.8714H15.8737L16.2324 17.8879C16.3 17.7042 16.4764 17.5866 16.6838 17.5866H21.3823L21.7075 16.6828H18.2271C17.4877 16.6828 16.9299 15.9523 17.1672 15.2907L17.2929 14.9374L17.472 14.4421C17.7354 13.7014 18.4476 13.2202 19.2766 13.2202H24.5862M11.3941 14.7867V14.79L11.393 14.7894L11.3941 14.7867ZM16.555 13.1069H11.6528C10.7813 13.1069 10.0356 13.6087 9.75282 14.3852L8.64941 17.4322C8.53263 17.7578 8.58238 18.1182 8.78609 18.4216C9.01704 18.7652 9.39881 18.9706 9.80781 18.9706H14.167C14.4168 18.9706 14.632 18.8237 14.7158 18.5961L15.0709 17.6121C15.0829 17.579 15.0782 17.5416 15.0588 17.5124C15.0394 17.4831 15.007 17.4658 14.9729 17.4658H10.5394L11.4867 14.842C11.4962 14.8241 11.5009 14.803 11.4993 14.7819V14.7786C11.4951 14.7288 11.459 14.6887 11.4119 14.6805L11.2176 14.5944H15.7553C16.0051 14.5944 16.2203 14.4475 16.3041 14.2199L16.6534 13.2532C16.6655 13.2202 16.6608 13.1828 16.6414 13.1535C16.622 13.1243 16.5895 13.1069 16.5555 13.1069H16.555ZM24.5862 13.1129H19.2766C18.3994 13.1129 17.6526 13.6206 17.3735 14.4058L17.1949 14.9005L17.0687 15.2544C16.9519 15.5795 17.0017 15.9399 17.2054 16.2428C17.4363 16.5863 17.8181 16.7917 18.2271 16.7917H21.5567L21.3095 17.4788H16.6833C16.433 17.4788 16.2172 17.6245 16.1339 17.85L15.7752 18.8335C15.7632 18.8665 15.7674 18.9039 15.7873 18.9332C15.8066 18.9624 15.8391 18.9798 15.8731 18.9798H21.1791C22.0526 18.9798 22.7994 18.4753 23.0822 17.6939L23.4022 16.8112C23.5195 16.4844 23.4697 16.1225 23.265 15.8179C23.034 15.4744 22.6523 15.2696 22.2438 15.2696H18.9173L19.0729 14.8339C19.0922 14.7802 19.0676 14.7201 19.0163 14.6968L18.8016 14.5998H23.785C24.0348 14.5998 24.25 14.4529 24.3344 14.2254L24.6837 13.2586C24.6957 13.2256 24.691 13.1882 24.6716 13.1589C24.6522 13.1297 24.6198 13.1123 24.5857 13.1123L24.5862 13.1129Z" fill="url(#paint2_linear_2_428)"/>
<path d="M9.89212 22.8705L4.32114 16L16.5 1.0106L28.6789 16L23.0843 22.8564H23.6316L29.2261 16L16.5 0.337048L3.77389 16L9.34487 22.8705H9.89212Z" fill="url(#paint3_linear_2_428)"/>
<path d="M19.585 27.2347L16.5 30.9894L13.4186 27.2071H12.8714L16.5 31.663L20.1323 27.2347H19.585Z" fill="url(#paint4_linear_2_428)"/>
<path opacity="0.76" d="M14.9782 26.1136H15.5563L16.2371 27.2337H16.9818L16.1931 26.0426C16.6241 25.8958 16.8645 25.5354 16.8645 25.0136C16.8645 24.3801 16.5068 23.9184 15.6935 23.9184H14.3513V27.2337H14.9782V26.1136ZM14.9782 24.5216H15.7035C16.1004 24.5216 16.2324 24.7291 16.2324 25.013C16.2324 25.297 16.0999 25.5099 15.7035 25.5099H14.9782V24.5216Z" fill="#333333"/>
<path opacity="0.76" d="M20.867 26.3862L20.9859 26.2398L21.4635 25.6519H20.867V25.2921C20.867 24.76 21.1215 24.4554 21.6457 24.4554C21.9181 24.4554 22.1171 24.5367 22.2469 24.6874L22.6476 24.1943C22.4109 23.9737 22.0752 23.8523 21.6505 23.8523C20.744 23.8523 20.2543 24.4051 20.2543 25.2921V27.1399L20.8665 26.3862H20.867Z" fill="#333333"/>
<path opacity="0.76" d="M19.7793 26.6354H18.0449V25.8394H19.495V25.2618H18.0449V24.5216H19.7793V23.9184H17.418V27.2337H19.7793V26.6354Z" fill="#333333"/>
<path opacity="0.76" d="M11.1102 25.3062C11.2134 24.8012 11.6061 24.456 12.1508 24.456C12.7876 24.456 13.2186 24.9274 13.2186 25.5761C13.2186 26.2247 12.8274 26.6544 12.2403 26.6972L12.6713 27.2277C13.3862 27.0207 13.8554 26.3862 13.8554 25.5761C13.8554 24.5822 13.15 23.8523 12.1503 23.8523C11.4653 23.8523 10.9185 24.1953 10.6426 24.7307L11.1102 25.3062Z" fill="#333333"/>
<path d="M9.29878 24.9778V24.9675C9.56325 24.8304 9.71512 24.572 9.71512 24.2376C9.71512 23.7358 9.39671 23.376 8.78924 23.376H7.25588V26.6912H8.91649C9.53863 26.6912 9.86227 26.3108 9.86227 25.7939C9.86227 25.3983 9.65175 25.0943 9.29878 24.9778ZM7.88326 23.9791H8.70649C8.99557 23.9791 9.0935 24.1363 9.0935 24.3492C9.0935 24.5622 8.97096 24.7193 8.71121 24.7193H7.88326V23.9791ZM8.80914 26.093H7.88326V25.297H8.81385C9.0736 25.297 9.22023 25.4742 9.22023 25.6974C9.22023 25.9207 9.1024 26.093 8.80861 26.093H8.80914Z" fill="#E8EED2"/>
<path d="M23.9777 26.093V23.3755H23.3509V26.6912H25.6535V26.093H23.9777Z" fill="#E8EED2"/>
<path d="M17.1284 26.6912H19.4897V26.093H17.7558V25.297H19.2059V24.7188H17.7558V23.9791H19.4897V23.3755H17.1284V26.6912Z" fill="#E8EED2"/>
<path d="M21.3614 23.3099C20.4549 23.3099 19.9652 23.8626 19.9652 24.7497V26.6912H20.5774V25.6974H22.1401V26.6912H22.767V24.7497C22.767 23.8626 22.2674 23.3099 21.3609 23.3099H21.3614ZM22.1406 25.1095H20.5779V24.7497C20.5779 24.2176 20.8325 23.913 21.3567 23.913C21.8809 23.913 22.1406 24.217 22.1406 24.7497V25.1095Z" fill="#E8EED2"/>
<path d="M16.5749 24.4706C16.5749 23.8372 16.2172 23.3755 15.4039 23.3755H14.0617V26.6907H14.6886V25.5706H15.2667L15.9475 26.6907H16.6922L15.9035 25.4996C16.3345 25.3528 16.5749 24.9924 16.5749 24.4706ZM15.4139 24.9675H14.6886V23.9791H15.4139C15.8108 23.9791 15.9428 24.1867 15.9428 24.4706C15.9428 24.7546 15.8103 24.9675 15.4139 24.9675Z" fill="#E8EED2"/>
<path d="M11.8617 23.3099C10.8625 23.3099 10.1566 24.0398 10.1566 25.0336C10.1566 26.0274 10.862 26.7573 11.8617 26.7573C12.8614 26.7573 13.5668 26.0274 13.5668 25.0336C13.5668 24.0398 12.8614 23.3099 11.8617 23.3099ZM11.8617 26.1586C11.2249 26.1586 10.7939 25.6823 10.7939 25.0331C10.7939 24.3839 11.2249 23.913 11.8617 23.913C12.4985 23.913 12.9295 24.3845 12.9295 25.0331C12.9295 25.6817 12.4985 26.1586 11.8617 26.1586Z" fill="#E8EED2"/>
<path d="M11.8617 23.2557C10.8437 23.2557 10.1042 24.0035 10.1042 25.0336C10.1042 26.0637 10.8431 26.8115 11.8617 26.8115C12.8803 26.8115 13.6192 26.0637 13.6192 25.0336C13.6192 24.0035 12.8803 23.2557 11.8617 23.2557ZM11.8617 26.7026C10.9044 26.7026 10.209 26.0003 10.209 25.0331C10.209 24.0658 10.9039 23.3636 11.8617 23.3636C12.8195 23.3636 13.5145 24.0658 13.5145 25.0331C13.5145 26.0003 12.8195 26.7026 11.8617 26.7026ZM11.8617 23.8588C11.2019 23.8588 10.7415 24.3417 10.7415 25.0331C10.7415 25.7245 11.2024 26.2128 11.8617 26.2128C12.521 26.2128 12.9819 25.7278 12.9819 25.0331C12.9819 24.3384 12.521 23.8588 11.8617 23.8588ZM11.8617 26.1044C11.2637 26.1044 10.8463 25.6638 10.8463 25.0331C10.8463 24.4023 11.2642 23.9672 11.8617 23.9672C12.4592 23.9672 12.8771 24.4056 12.8771 25.0331C12.8771 25.6606 12.4592 26.1044 11.8617 26.1044ZM7.88326 24.773H8.71121C8.97933 24.773 9.14587 24.6104 9.14587 24.3487C9.14587 24.1552 9.06941 23.9244 8.70649 23.9244H7.88326C7.85446 23.9244 7.83089 23.9488 7.83089 23.9786V24.7188C7.83089 24.7486 7.85446 24.773 7.88326 24.773ZM7.93563 24.0333H8.70649C8.93482 24.0333 9.04113 24.1336 9.04113 24.3492C9.04113 24.5497 8.92121 24.6652 8.71121 24.6652H7.93563V24.0333ZM8.81385 25.2428H7.88326C7.85446 25.2428 7.83089 25.2672 7.83089 25.297V26.093C7.83089 26.1228 7.85446 26.1472 7.88326 26.1472H8.80914C9.09978 26.1472 9.27312 25.9792 9.27312 25.6974C9.27312 25.4157 9.0846 25.2428 8.81437 25.2428H8.81385ZM8.80914 26.0388H7.93563V25.3512H8.81385C9.02909 25.3512 9.16786 25.4872 9.16786 25.6974C9.16786 25.8248 9.12125 26.0388 8.80861 26.0388H8.80914ZM9.41085 24.9632C9.6418 24.8066 9.76801 24.5524 9.76801 24.2371C9.76801 23.6719 9.39305 23.3213 8.78976 23.3213H7.25641C7.2276 23.3213 7.20404 23.3457 7.20404 23.3755V26.6907C7.20404 26.7205 7.2276 26.7449 7.25641 26.7449H8.91702C9.53235 26.7449 9.91516 26.3802 9.91516 25.7933C9.91516 25.4113 9.72873 25.1079 9.41138 24.9632H9.41085ZM8.91702 26.637H7.30877V23.4302H8.78976C9.33701 23.4302 9.66327 23.732 9.66327 24.2376C9.66327 24.5481 9.52554 24.7898 9.27574 24.9193C9.25794 24.9285 9.24694 24.9475 9.24694 24.9675V24.9778C9.24694 25.0017 9.2616 25.0223 9.2836 25.0293C9.61352 25.1382 9.81043 25.4243 9.81043 25.7939C9.81043 26.3217 9.47631 26.637 8.91702 26.637ZM15.9852 25.5267C16.4 25.3577 16.6273 24.9854 16.6273 24.4706C16.6273 23.7402 16.1816 23.3213 15.4039 23.3213H14.0617C14.0329 23.3213 14.0093 23.3457 14.0093 23.3755V26.6907C14.0093 26.7205 14.0329 26.7449 14.0617 26.7449H14.6886C14.7174 26.7449 14.7409 26.7205 14.7409 26.6907V25.6248H15.2379L15.9035 26.72C15.9129 26.7357 15.9297 26.7454 15.948 26.7454H16.6927C16.7121 26.7454 16.7299 26.734 16.7388 26.7167C16.7477 26.6988 16.7467 26.6771 16.7357 26.6609L15.9852 25.5273V25.5267ZM15.9763 26.637L15.3107 25.5419C15.3013 25.5262 15.2845 25.5164 15.2662 25.5164H14.688C14.6592 25.5164 14.6357 25.5408 14.6357 25.5706V26.6365H14.1136V23.4297H15.4034C16.1245 23.4297 16.522 23.7992 16.522 24.4706C16.522 24.9686 16.3026 25.3067 15.8868 25.4482C15.8711 25.4536 15.859 25.466 15.8538 25.4823C15.8485 25.4986 15.8506 25.5164 15.8601 25.5305L16.5927 26.637H15.9763ZM15.4139 23.925H14.6886C14.6598 23.925 14.6362 23.9493 14.6362 23.9791V24.9675C14.6362 24.9973 14.6598 25.0217 14.6886 25.0217H15.4139C15.8946 25.0217 15.9952 24.7221 15.9952 24.4706C15.9952 24.1135 15.7941 23.925 15.4139 23.925ZM15.4139 24.9133H14.7409V24.0333H15.4139C15.7391 24.0333 15.8904 24.1726 15.8904 24.4706C15.8904 24.7687 15.7344 24.9133 15.4139 24.9133ZM19.4897 23.3213H17.1284C17.0996 23.3213 17.0761 23.3457 17.0761 23.3755V26.6907C17.0761 26.7205 17.0996 26.7449 17.1284 26.7449H19.4897C19.5185 26.7449 19.5421 26.7205 19.5421 26.6907V26.0925C19.5421 26.0627 19.5185 26.0383 19.4897 26.0383H17.8076V25.3506H19.2054C19.2342 25.3506 19.2577 25.3262 19.2577 25.2964V24.7183C19.2577 24.6885 19.2342 24.6641 19.2054 24.6641H17.8076V24.0322H19.4897C19.5185 24.0322 19.5421 24.0079 19.5421 23.9781V23.3749C19.5421 23.3451 19.5185 23.3208 19.4897 23.3208V23.3213ZM19.4374 23.925H17.7553C17.7265 23.925 17.7029 23.9493 17.7029 23.9791V24.7193C17.7029 24.7491 17.7265 24.7735 17.7553 24.7735H19.153V25.2433H17.7553C17.7265 25.2433 17.7029 25.2677 17.7029 25.2975V26.0935C17.7029 26.1233 17.7265 26.1477 17.7553 26.1477H19.4374V26.6376H17.1808V23.4308H19.4374V23.9255V23.925ZM21.3567 23.8588C20.8204 23.8588 20.5251 24.1753 20.5251 24.7497V25.1095C20.5251 25.1393 20.5486 25.1637 20.5774 25.1637H22.1401C22.1689 25.1637 22.1925 25.1393 22.1925 25.1095V24.7497C22.1925 24.1753 21.8955 23.8588 21.3561 23.8588H21.3567ZM22.0883 25.0553H20.6303V24.7497C20.6303 24.2306 20.8749 23.9672 21.3572 23.9672C21.8395 23.9672 22.0888 24.2306 22.0888 24.7497V25.0553H22.0883ZM21.3614 23.2557C20.4544 23.2557 19.9129 23.8144 19.9129 24.7497V26.6912C19.9129 26.721 19.9364 26.7454 19.9652 26.7454H20.5774C20.6062 26.7454 20.6298 26.721 20.6298 26.6912V25.7516H22.0877V26.6912C22.0877 26.721 22.1113 26.7454 22.1401 26.7454H22.767C22.7958 26.7454 22.8193 26.721 22.8193 26.6912V24.7497C22.8193 23.8144 22.2742 23.2557 21.3609 23.2557H21.3614ZM22.7151 26.637H22.193V25.6974C22.193 25.6676 22.1694 25.6432 22.1406 25.6432H20.5779C20.5491 25.6432 20.5256 25.6676 20.5256 25.6974V26.637H20.0181V24.7497C20.0181 23.8691 20.5078 23.3641 21.3619 23.3641C22.216 23.3641 22.7156 23.8691 22.7156 24.7497V26.637H22.7151ZM25.6535 26.0388H24.0301V23.376C24.0301 23.3462 24.0065 23.3218 23.9777 23.3218H23.3509C23.3221 23.3218 23.2985 23.3462 23.2985 23.376V26.6912C23.2985 26.721 23.3221 26.7454 23.3509 26.7454H25.6535C25.6823 26.7454 25.7059 26.721 25.7059 26.6912V26.093C25.7059 26.0632 25.6823 26.0388 25.6535 26.0388ZM25.6012 26.637H23.4032V23.4302H23.9254V26.093C23.9254 26.1228 23.9489 26.1472 23.9777 26.1472H25.6012V26.637Z" fill="url(#paint5_linear_2_428)"/>
</g>
<defs>
<linearGradient id="paint0_linear_2_428" x1="15.318" y1="-2.63623" x2="17.67" y2="32.0036" gradientUnits="userSpaceOnUse">
<stop offset="0.19" stop-color="#839953"/>
<stop offset="0.31" stop-color="#7F9150"/>
<stop offset="0.49" stop-color="#747E4B"/>
<stop offset="0.58" stop-color="#6F7348"/>
<stop offset="0.76" stop-color="#51593B"/>
<stop offset="0.88" stop-color="#3D4732"/>
</linearGradient>
<linearGradient id="paint1_linear_2_428" x1="23.0806" y1="33.7253" x2="10.9571" y2="3.0668" gradientUnits="userSpaceOnUse">
<stop offset="0.29" stop-color="#A7A96D"/>
<stop offset="1" stop-color="#C5C0A3"/>
</linearGradient>
<linearGradient id="paint2_linear_2_428" x1="17.2641" y1="19.6474" x2="16.0757" y2="12.3564" gradientUnits="userSpaceOnUse">
<stop stop-color="#839953"/>
<stop offset="0.08" stop-color="#7F9150"/>
<stop offset="0.17" stop-color="#79854D"/>
<stop offset="0.63" stop-color="#88A244"/>
<stop offset="1" stop-color="#96BD3D"/>
</linearGradient>
<linearGradient id="paint3_linear_2_428" x1="16.7467" y1="22.7729" x2="15.8911" y2="0.836691" gradientUnits="userSpaceOnUse">
<stop offset="0.29" stop-color="#DADA8C"/>
<stop offset="1" stop-color="#C2C2C1"/>
</linearGradient>
<linearGradient id="paint4_linear_2_428" x1="16.6608" y1="31.586" x2="16.4881" y2="27.1615" gradientUnits="userSpaceOnUse">
<stop offset="0.29" stop-color="#DADA8C"/>
<stop offset="1" stop-color="#C2C2C1"/>
</linearGradient>
<linearGradient id="paint5_linear_2_428" x1="16.4099" y1="28.3841" x2="16.4873" y2="22.9762" gradientUnits="userSpaceOnUse">
<stop stop-color="#839953"/>
<stop offset="0.08" stop-color="#7F9150"/>
<stop offset="0.17" stop-color="#79854D"/>
<stop offset="0.63" stop-color="#88A244"/>
<stop offset="1" stop-color="#96BD3D"/>
</linearGradient>
<clipPath id="clip0_2_428">
<rect width="26" height="32" fill="white" transform="translate(3.5)"/>
</clipPath>
</defs>
</svg>
