<svg width="32" height="32" viewBox="0 0 32 32" fill="none" xmlns="http://www.w3.org/2000/svg">
<g clip-path="url(#clip0_129_700)">
<path d="M31.97 15.95L16.12 0.130005L4.51 11.74L0.220001 15.98L4.45 20.2L9.35 25.1L11.83 27.58L14.92 30.67L16.12 31.87L16.91 31.06L20.29 27.69L21.59 26.39L26.62 21.35L27.75 20.22L30.78 17.19L32 16L31.95 15.95H31.97ZM24.79 10.11L25.1 10.43H24.48L24.79 10.11ZM23.34 9.24L23.66 8.98L24.39 9.71L23.86 10.24C23.45 9.82 22.98 9.54 23.34 9.24ZM22.82 8.14001L23.21 8.54L22.7 9.07L22.42 8.79C22.42 8.79 22.38 8.58 22.42 8.54L22.81 8.15L22.82 8.14001ZM22.4 7.73L21.88 8.28L21.12 7.53L21.66 6.99L22.4 7.73ZM20.88 6.2L21.25 6.57L20.73 7.09L20.42 6.76C20.33 6.67 20.63 6.32 20.87 6.2H20.88ZM11.72 5.84L11.74 6.4L11.45 6.11L11.72 5.84ZM11.03 6.53L11.56 7.03L10.97 7.63C10.89 7.71 10.76 7.73 10.69 7.66L10.33 7.26L11.04 6.54L11.03 6.53ZM9.87 7.69L10.38 8.19L10.12 8.46C10.06 8.52 9.91 8.51 9.85 8.46L9.5 8.08L9.86 7.7L9.87 7.69ZM9.07 8.5L9.58 9.02001L8.85 9.76C8.67 9.63001 8.51 9.44001 8.36 9.22001L9.07 8.51V8.5ZM7.91 9.66L8.41 10.17L8.12 10.45C8.02 10.55 7.84 10.4 7.78 10.32L7.53 10.04L7.91 9.65V9.66ZM7.52 21.92L6.99 21.42V21.1H7.36C7.41 21.1 7.54 21.18 7.54 21.23L7.52 21.92ZM9.56 23.97L10.28 23.95C10.33 23.95 10.45 24.05 10.45 24.11V24.86L9.55 23.96L9.56 23.97ZM14.29 28.7L13.3 27.71H14.35V28.52C14.35 28.56 14.31 28.66 14.29 28.7ZM13.55 26.65L14.02 27.11C13.85 27.11 13.71 27.13 13.57 27.1C13.41 27.06 13.36 26.74 13.55 26.65ZM19.15 27.52V27.17C19.15 27.1 19.23 26.96 19.3 26.96H19.72L19.16 27.53L19.15 27.52ZM20.67 26.01L19.77 26.9V26.37H18.55V27.86H17.64C17.59 27.86 17.47 27.77 17.47 27.71V26.37H16.26C15.97 26.37 15.72 26.61 15.72 26.9V27.92C15.72 28.19 15.94 28.44 16.22 28.44H18.21L16.11 30.55L14.94 29.38V27.71C14.94 27.57 14.9 27.44 14.86 27.29L15.25 26.9L14.83 26.48L14.49 26.82L13.66 26.01C13.55 25.9 13.32 25.87 13.18 25.92C12.79 26.06 12.86 26.78 12.85 27.29L11.81 26.23C11.69 26.11 11.6 26.01 11.48 25.9L11.04 25.48H11.66C11.95 25.46 12.2 25.24 12.2 24.94V23.92C12.2 23.66 11.98 23.39 11.69 23.39H8.94L8.01 22.44C8.09 22.29 8.15 22.14 8.15 21.99V21.04H8.97C8.88 21.57 9.4 21.68 9.44 22C9.34 22.16 9.22 22.27 9.06 22.42L9.5 22.86L10.01 22.34C10.21 22.14 10.21 21.81 10.01 21.6L9.72 21.31C9.72 21.31 9.67 21.06 9.74 21.05H11.58L10.86 21.8C10.76 21.91 10.72 22.14 10.77 22.28C10.9 22.65 11.64 22.63 12.14 22.59C12.35 22.57 12.56 22.36 12.56 22.15V21.13H13.45V22.09C13.45 22.37 13.69 22.61 13.97 22.61H14.6L14.58 23.4H13.28L13.29 24.67C13.29 24.81 13.19 24.9 13.06 24.9H12.66V25.49H13.88V24L15.48 24.02C15.68 24.02 15.87 23.94 16.08 24.08L15.25 24.93C15.14 25.04 15.11 25.27 15.16 25.41C15.29 25.78 16.06 25.77 16.56 25.71C16.76 25.68 16.95 25.47 16.95 25.28V24.25H17.83C17.91 24.25 18.01 24.36 18.01 24.43V25.74H18.6V24.26H18.98C19.06 24.26 19.15 24.36 19.15 24.45V25.74H19.74V24.25H20.77V25.08L20.52 25.18V25.74L20.78 25.75C20.78 25.86 20.75 25.98 20.68 26.05L20.67 26.01ZM16.87 26.95V27.85H16.51C16.44 27.85 16.32 27.74 16.32 27.67V27.13C16.32 27.06 16.43 26.95 16.5 26.95H16.87ZM11.05 23.97L11.42 23.95C11.5 23.95 11.6 24.06 11.61 24.13V24.67C11.61 24.74 11.5 24.85 11.43 24.85H11.06V23.97H11.05ZM11.97 21.42V21.81C11.99 21.92 11.85 22.01 11.74 22H11.58C11.58 22 11.52 21.87 11.55 21.84L11.97 21.42ZM14.07 21.18C14.2 21.05 14.47 21.07 14.59 21.18L14.61 21.99H14.25C13.99 21.99 14.03 21.58 14.07 21.18ZM16.35 24.53V24.92C16.37 25.03 16.23 25.12 16.12 25.11H15.96C15.96 25.11 15.9 24.98 15.93 24.95L16.35 24.53ZM21.56 25.05C21.56 25.05 21.44 25.09 21.39 25.1V24.21C21.58 24.21 21.75 24.21 21.89 24.25C22.05 24.68 21.87 24.79 21.56 25.05ZM25.19 21.5L24.79 21.87C24.79 21.87 24.64 21.77 24.64 21.72V21.17C24.64 21.17 24.74 21.03 24.79 21.03H25.1H25.2V21.5H25.19ZM26.27 20.4H24.05V21.93C24.05 22.1 24.13 22.26 24.27 22.4L23.56 23.11L22.54 24.14C22.51 23.96 22.42 23.67 22.19 23.67L16.66 23.65C16.55 23.48 16.38 23.37 16.18 23.37H15.2V21.1H16.11C16.17 21.1 16.28 21.19 16.28 21.25V22.59H17.49C17.78 22.59 18.02 22.36 18.03 22.06V21.04H19.12V21.82C19.12 21.88 19.03 22 18.97 22H18.5V22.6H19.72V21.95V20.42H5.98L2.59 17.02L2.08 16.5L1.57 16L2.1 15.46L6.25 11.32L7.09 10.48C7.23 10.61 7.36 10.7 7.49 10.87C7.7 11.13 8.21 11.38 8.52 11.07L12.48 7.13L12.77 7.1V6.54L12.29 6.52V5.3L13.6 3.98L16.12 1.46L20.43 5.77L19.87 6.35C19.68 6.55 19.66 6.86 19.85 7.07L20.3 7.54L19.73 8.12L20.16 8.56001L20.73 7.97L23.39 10.63C23.51 10.75 23.63 10.83 23.79 10.91V11.46H24.39V10.99L25.63 10.98L26.18 11.53C26.05 11.92 26.18 12.4 25.97 12.41L25.46 12.43V13.03H26.18C26.49 13.03 26.7 12.78 26.72 12.49L26.74 12.11L27.62 12.98L30.75 15.96L26.27 20.44V20.4ZM16.87 21.1L17.24 21.08C17.32 21.08 17.42 21.19 17.43 21.26V21.8C17.43 21.87 17.32 21.98 17.25 21.98H16.88V21.1H16.87Z" fill="url(#paint0_linear_129_700)"/>
<path d="M30.3872 15.9952L16.1178 1.72578L1.84837 15.9952L16.1178 30.2646L30.3872 15.9952Z" fill="url(#paint1_radial_129_700)"/>
<path d="M30.16 15.2L30.05 15.09L28.12 17.03H26.81L26.47 16.69L27.23 15.93L25.96 14.66V12.79H27.75L27.61 12.66H25.96V11.8H26.75L26.62 11.67H25.96V11.62L26.26 11.32L26.16 11.22L25.96 11.42V11.02L25.82 10.88V11.57L25.71 11.68H23.99V10.42L24.64 9.77L24.68 9.73L24.57 9.62L24 10.19V9.05L23.84 8.89V10.36L23.68 10.52V8.74L23.45 8.51L21.68 10.29H21.57L19.57 8.29H23.22L23.06 8.13H19.41L16.2 4.92L16.16 4.88L13.27 7.77V3.98L13.14 4.12V7.91L12.92 8.13H12.53V4.72L12.4 4.86V8.13H9.13L8.97 8.29H12.4V8.65L10.76 10.29H10.54L9.9 9.66V9.48H9.71L8.74 8.52L8.63 8.63L9.48 9.48H8.49V8.77L8.33 8.93V9.48H7.78L7.62 9.64H8.33V10.91L7.6 11.64H7.47L6.58 10.75L6.54 10.71L6.43 10.82L7.25 11.64H5.83V11.42L5.7 11.55V11.63H5.62L5.48 11.77H5.71V12.77L5.1 12.16L4.97 12.29V14.29L4.21 15.06H2.21L2.07 15.19H4.08L3.23 16.05H1.39L1.53 16.18H3.1L2.32 16.97L2.54 17.19H4.99V18.05H3.39L3.53 18.18H4.99V19.64L5.12 19.78V18.18H5.73V20.38L5.86 20.52V18.18H7.35L7.75 18.58V19.57L6.37 20.95L6.33 20.99L6.43 21.09L7.75 19.77V22.41L7.89 22.55L8.35 22.09V23.01L8.51 23.17V21.93L9.75 20.69V22.27L8.71 23.31L8.68 23.35L8.79 23.46L9.75 22.5V23.61H8.94L9.1 23.77H9.75V24.42L9.91 24.58V23.77H12.41V27.08L12.54 27.22V23.77H12.93L13.15 23.99V27.82L13.28 27.96V24.13L16.17 27.01L19.41 23.77H23.1L23.26 23.61H19.57L21.57 21.61H21.69L23.45 23.35L23.49 23.39L23.6 23.28L21.75 21.44L23.52 19.67V21.75H23.84V23.04L24 22.88V21.75H25.13L25.29 21.59H24V21.43L25.84 19.59H25.95L26.62 20.26L26.73 20.15L26.17 19.59H27.29L27.43 19.45H26.02L26 19.43L27.23 18.2H27.74L28.21 18.67L28.31 18.57L27.94 18.2H28.69L28.83 18.07H27.81L27.59 17.85L28.22 17.22H29.69L29.83 17.09H28.36L30.14 15.3L30.18 15.26L30.16 15.2ZM25.82 18.16V19.21L24.88 18.27L25 18.15H25.82V18.16ZM25.77 19.39L23.99 21.18V19.17L24.77 18.39L25.77 19.39ZM23.99 18.94V18.16H24.54L24.66 18.28L23.99 18.94ZM24.63 18.02L23.99 17.38V17.16H25.76L24.9 18.02H24.62H24.63ZM23.99 18.02V17.61L24.4 18.02H23.99ZM25.82 17.34V18.02H25.14L25.82 17.34ZM23.99 15.88V14.41L25.82 16.24V17.03H23.99V15.97L24.03 15.93L23.99 15.89V15.88ZM24.58 12.79L24.34 13.03L24.1 12.79H24.58ZM25.82 12.79V14.51L24.44 13.13L24.78 12.79H25.82ZM24.71 12.65H23.99V11.79H25.57L24.71 12.65ZM23.99 13.38V12.91L24.22 13.14L23.99 13.37V13.38ZM25.82 14.74V16.04L23.99 14.21V13.58L24.32 13.25L25.81 14.74H25.82ZM25.82 11.79V12.65H24.92L25.78 11.79H25.82ZM27.35 18.02L27.47 17.9L27.59 18.02H27.34H27.35ZM27.98 17.17L27.46 17.69L26.94 17.17H27.98ZM26.99 18.16L25.95 19.2V18.16H26.99ZM25.96 16.97V16.38L26.25 16.67L25.96 16.96V16.97ZM26.12 17.03L26.36 16.79L26.6 17.03H26.12ZM26.35 16.58L25.96 16.19V14.89L27.01 15.94L26.36 16.59L26.35 16.58ZM25.96 18.02V17.19L25.99 17.16H26.74L27.36 17.78L27.12 18.02H25.95H25.96ZM21.54 12.85V13.44L21.25 13.15L21.54 12.86V12.85ZM18.47 18.16H21.54V18.21L20.04 19.71L18.47 18.15V18.16ZM13.28 18.02V17.16H14.81L13.96 18.02H13.29H13.28ZM13.28 10.26V8.26H15.68L13.68 10.26H13.28ZM16.16 8.26L18.16 10.26H13.87L15.87 8.26H16.15H16.16ZM21.38 12.79L21.14 13.03L20.9 12.79H21.38ZM14.17 18.02L15.02 17.16H17.24L18.1 18.02H14.16H14.17ZM20.02 11.92L19.9 11.8H20.15L20.03 11.92H20.02ZM19.52 12.65L20.04 12.13L20.56 12.65H19.52ZM16.24 16.16L17.11 17.03H15.16L16.02 16.16H16.23H16.24ZM18.31 10.4L19.93 12.02L16.14 15.83L13.28 12.99V10.86L13.74 10.4H18.31ZM15.23 15.16L16.01 15.94L15.93 16.03H13.27V15.17H15.23V15.16ZM13.28 17.03V16.16H15.8L14.94 17.03H13.28ZM18.25 18.16L19.93 19.83L18.31 21.45H13.74L13.28 20.99V18.93L14.04 18.16H18.25ZM13.28 23.59V21.59H13.68L15.68 23.59H13.28ZM15.88 23.59L13.88 21.59H18.17L16.17 23.59H15.89H15.88ZM21.54 17.17V18.03H18.33L17.47 17.17H21.54ZM16.96 16.16L16.8 16.03H16.33L16.24 15.94L19.38 12.78H20.69L21.03 13.12L20.27 13.88L21.54 15.15V17.02H17.34L16.47 16.15H16.97L16.96 16.16ZM21.15 13.24L21.54 13.63V14.93L20.49 13.88L21.14 13.23L21.15 13.24ZM20.76 12.65L20.14 12.03L20.37 11.79H21.54V12.62L21.51 12.65H20.76ZM20.28 11.66H19.76L18.51 10.4H21.48L21.5 10.42L20.27 11.65L20.28 11.66ZM18.37 10.26L16.37 8.26H19.34L21.34 10.26H18.37ZM16.2 8.1L16.02 7.92L15.84 8.1H13.28V7.97L16.17 5.08L19.19 8.1H16.22H16.2ZM13.28 10.66V10.4H13.54L13.28 10.66ZM13.28 15.04V13.22L15.11 15.04H13.28ZM13.28 18.7V18.16H13.82L13.28 18.7ZM13.28 21.45V21.19L13.54 21.45H13.28ZM13.28 23.75H15.84L16.02 23.93L16.2 23.75H19.17L16.15 26.77L13.26 23.88V23.75H13.28ZM16.36 23.59L18.36 21.59H21.33L19.33 23.59H16.36ZM18.51 21.45L20.02 19.93L21.51 21.41L21.48 21.44H18.51V21.45ZM21.54 18.41V21.21L20.14 19.81L21.54 18.41ZM20.51 11.66L21.55 10.62V11.66H20.51ZM22.92 17.03L23.16 16.79L23.4 17.03H22.92ZM21.69 17.03V15.31L23.07 16.69L22.73 17.03H21.69ZM23.51 17.17V18.03H21.93L22.79 17.17H23.51ZM23.51 15.61V16.24L23.18 16.57L21.69 15.08V13.78L23.52 15.61H23.51ZM21.69 18.02V17.16H22.59L21.73 18.02H21.69ZM23.51 18.16V19.42L21.68 21.25V18.28L21.79 18.17H23.51V18.16ZM23.51 16.44V16.91L23.28 16.68L23.51 16.45V16.44ZM23.51 13.94V15.41L21.68 13.58V12.79H23.51V13.85L23.47 13.89L23.51 13.93V13.94ZM22.87 11.79L23.51 12.43V12.65H21.74L22.6 11.79H22.88H22.87ZM23.51 10.88V11.66H22.96L22.84 11.54L23.51 10.88ZM21.69 11.66V10.61L22.63 11.55L22.51 11.67H21.69V11.66ZM21.69 12.48V11.79H22.37L21.69 12.48ZM23.51 11.79V12.2L23.1 11.79H23.51ZM23.83 19.33V21.56H23.67V19.48L23.83 19.32V19.33ZM23.83 18.16V19.1L23.67 19.26V18.16H23.83ZM23.83 17.45V18.02H23.67V17.29L23.83 17.45ZM23.83 17.17V17.23L23.77 17.17H23.83ZM23.83 16.13V17.03H23.67V16.28L23.83 16.12V16.13ZM23.83 15.92L23.67 16.08V15.77L23.83 15.93V15.92ZM23.83 14.25V15.72L23.67 15.56V14.09L23.83 14.25ZM23.83 13.74V14.05L23.67 13.89L23.83 13.73V13.74ZM23.67 12.65V12.59L23.73 12.65H23.67ZM23.83 12.79V13.54L23.67 13.7V12.8H23.83V12.79ZM23.83 11.79V12.52L23.67 12.36V11.79H23.83ZM23.83 10.56V11.66H23.67V10.72L23.83 10.56ZM23.51 10.65L22.73 11.43L21.73 10.43L23.51 8.64V10.65ZM12.53 21.59H13.14V23.59H12.98L12.53 23.14V21.59ZM13.14 21.05V21.44H12.53V20.44L13.14 21.05ZM13.14 19.06V20.85L12.53 20.24V19.67L13.14 19.06ZM13.14 18.16V18.84L12.53 19.45V18.16H13.14ZM13.14 16.16V17.03H12.9L12.53 16.66V16.16H13.14ZM12.53 17.03V16.89L12.67 17.03H12.53ZM13.14 17.17V18.03H12.53V17.88L13.14 17.27L13.04 17.17H13.15H13.14ZM12.53 17.65V17.17H12.81L12.91 17.27L12.53 17.65ZM13.14 15.17V16.03H12.53V15.17H13.14ZM13.14 13.08V15.04H12.53V12.48L13.14 13.09V13.08ZM13.14 11V12.86L12.53 12.25V11.61L13.14 11ZM13.14 10.4V10.79L12.53 11.4V10.4H13.14ZM13.14 8.26V10.26H12.53V8.71L12.98 8.26H13.14ZM12.53 8.48V8.25H12.76L12.53 8.48ZM12.53 23.59V23.36L12.76 23.59H12.53ZM9.67 20.51L8.49 21.69V19.33L9.67 20.51ZM8.49 15.04V12.86L9.73 14.1V14.2L8.89 15.04H8.48H8.49ZM9.74 15.17V16.03H8.98L8.55 15.59L8.97 15.17H9.74ZM8.49 15.44V15.17H8.76L8.49 15.44ZM8.49 16.03V15.75L8.77 16.03H8.49ZM9.74 16.99V17.03H9.32L8.49 16.2V16.16H8.91L9.74 16.99ZM8.49 17.03V16.41L9.11 17.03H8.49ZM9.74 17.75V18.02H9.47L9.74 17.75ZM8.49 18.02V17.16H9.25L9.68 17.59L9.26 18.01H8.49V18.02ZM8.49 18.79V18.16H9.12L8.49 18.79ZM9.74 18.16V20.34L8.5 19.1V19L9.34 18.16H9.75H9.74ZM9.74 17.17V17.45L9.46 17.17H9.74ZM9.74 16.16V16.78L9.12 16.16H9.74ZM9.74 14.4V15.03H9.11L9.74 14.4ZM9.74 11.5V13.86L8.56 12.68L9.74 11.5ZM8.49 10.71V9.6H9.59L8.49 10.71ZM9.63 9.8V9.61H9.65L9.74 9.7V11.29L8.5 12.53V10.95L9.64 9.81L9.63 9.8ZM10.5 18.02V17.16H12.4V17.78L12.16 18.02H10.5ZM10.5 21.45V21.34L10.58 21.42L10.55 21.46H10.51L10.5 21.45ZM10.5 21.11V19.91L11.25 19.16L12.04 19.95L10.7 21.3L10.51 21.11H10.5ZM10.76 21.59L12.4 23.23V23.59H9.9V22.32L10.63 21.59H10.76ZM12.4 20.31V21.45H10.84L10.81 21.41L12.15 20.06L12.4 20.31ZM12.4 18.16V19.58L12.14 19.84L11.35 19.05L12.25 18.15H12.4V18.16ZM10.5 18.21V18.16H12.02L11.23 18.95L10.49 18.21H10.5ZM10.5 19.68V18.41L11.13 19.04L10.5 19.67V19.68ZM10.4 21.59L9.9 22.1V20.73L10.36 21.19V21.59H10.4ZM9.9 20.51L10.36 20.05V20.96L9.9 20.5V20.51ZM10.36 17.03H9.98L9.9 16.95V16.17H10.36V17.04V17.03ZM9.9 17.39V17.17H9.92L10.02 17.27L9.9 17.39ZM10.36 17.17V18.03H10.32L9.9 17.61V17.59L10.22 17.27L10.12 17.17H10.36ZM9.9 20.29V18.16H10.25L10.36 18.27V19.83L9.9 20.29ZM9.9 16.03V15.17H10.36V16.03H9.9ZM10.36 13.78V14.49L10.01 14.14L10.36 13.79V13.78ZM10.36 13.58L9.9 14.03V11.34L10.36 10.88V13.57V13.58ZM9.9 14.25L10.36 14.71V15.03H9.9V14.25ZM9.9 11.12V9.85L10.36 10.31V10.66L9.9 11.12ZM9.9 18.02V17.81L10.11 18.02H9.9ZM12.4 21.59V23L10.98 21.59H12.4ZM12.4 19.81V20.11L12.25 19.96L12.4 19.81ZM12.4 18.01L12.39 18.02H12.4V18.01ZM10.5 10.52V10.46L10.53 10.49L10.5 10.52ZM12.4 10.4V11.54L12.11 11.83L10.76 10.49L10.84 10.41H12.4V10.4ZM10.5 13.44V10.75L10.65 10.6L12 11.94L10.5 13.44ZM12.4 12.34V15.04H10.91L10.51 14.64V13.65L12.11 12.05L12.41 12.35L12.4 12.34ZM10.5 15.04V14.86L10.68 15.04H10.5ZM12.4 15.17V16.03H11.9L11.04 15.17H12.4ZM10.5 16.03V15.17H10.81L11.67 16.03H10.5ZM12.4 16.75V17.03H10.5V16.16H11.81L12.4 16.75ZM12.4 16.16V16.52L12.04 16.16H12.4ZM12.4 11.74V12.11L12.21 11.92L12.4 11.73V11.74ZM12.4 8.85V10.27H10.98L12.4 8.85ZM8.23 19.06L7.88 19.41V18.7L8.23 19.05V19.06ZM8.33 18.16V18.94L7.87 18.48V18.16H8.33ZM8.33 17.17V18.03H7.87V17.17H8.33ZM8.33 12.91V15.04H7.98L7.87 14.93V13.37L8.33 12.91ZM8.33 15.8V16.02H8.31L8.21 15.92L8.33 15.8ZM7.87 16.03V15.17H7.91L8.33 15.59V15.61L8.01 15.93L8.11 16.03H7.87ZM8.33 16.25V17.03H7.87V16.16H8.25L8.33 16.24V16.25ZM8.33 15.17V15.38L8.12 15.17H8.33ZM8.33 12.69L7.87 13.15V12.24L8.33 12.7V12.69ZM8.33 11.1V12.47L7.87 12.01V11.61H7.83L8.33 11.1ZM7.73 18.16V18.34L7.55 18.16H7.73ZM7.73 17.17V18.03H7.42L6.56 17.17H7.73ZM7.73 16.16V17.03H6.42L5.83 16.44V16.16H7.73ZM5.83 17.03V16.67L6.19 17.03H5.83ZM5.83 18.02V17.16H6.33L7.19 18.02H5.83ZM7.73 14.98V15.03H6.21L7 14.24L7.74 14.98H7.73ZM5.83 15.04V13.62L6.09 13.36L6.88 14.15L5.98 15.05H5.83V15.04ZM6.2 13.25L7.54 11.9L7.73 12.09V13.29L6.98 14.04L6.19 13.25H6.2ZM6.08 13.13L5.83 12.88V11.74H7.39L7.42 11.78L6.08 13.13ZM5.83 13.38V13.08L5.98 13.23L5.83 13.38ZM5.83 15.18L5.84 15.17H5.83V15.18ZM7.73 15.17V16.03H5.83V15.41L6.07 15.17H7.73ZM7.73 13.51V14.78L7.1 14.15L7.73 13.52V13.51ZM7.65 11.78L7.68 11.75H7.72V11.86L7.64 11.78H7.65ZM7.87 19.62L8.32 19.16V21.85L7.87 22.31V19.62ZM5.09 12.34L5.7 12.95V13.52L5.09 14.13V12.34ZM5.7 17.17V18.03H5.09V17.17H5.7ZM5.7 15.54V16.03H5.42L5.32 15.93L5.7 15.55V15.54ZM5.09 16.03V15.17H5.7V15.32L5.09 15.93L5.19 16.03H5.08H5.09ZM5.7 16.53V17.03H5.09V16.16H5.33L5.7 16.53ZM5.7 16.16V16.3L5.56 16.16H5.7ZM5.7 13.75V15.04H5.09V14.36L5.7 13.75ZM4.95 15.17V16.03H3.42L4.27 15.17H4.94H4.95ZM4.95 14.49V15.03H4.41L4.95 14.49ZM3.29 16.16H4.95V17.03H2.43L3.29 16.16Z" fill="url(#paint2_radial_129_700)"/>
<g opacity="0.51">
<path d="M7.65 15.59V17.42H6.91C6.8 17.4 6.71 17.31 6.69 17.2V15.59L5.17 15.6C4.81 15.6 4.57 15.91 4.55 16.25V17.51C4.55 17.87 4.85 18.16 5.22 18.16H8.4L8.38 16.65C8.38 16.58 8.4 16.46 8.44 16.41C8.47 16.36 8.6 16.33 8.66 16.33H9.16L9.14 15.6H7.65V15.59ZM5.97 17.43H5.52C5.43 17.43 5.29 17.3 5.28 17.21V16.55C5.28 16.46 5.42 16.33 5.5 16.33H5.96V17.44L5.97 17.43ZM19.77 16.91C20 17.15 19.99 17.55 19.76 17.79L19.14 18.43L18.6 17.9L18.98 17.51C19.07 17.42 19.06 17.25 18.98 17.17L18.63 16.8C18.42 16.58 18.41 16.18 18.63 15.96L19.28 15.29L19.82 15.82L19.43 16.21C19.34 16.3 19.35 16.46 19.43 16.55L19.78 16.92L19.77 16.91ZM16.39 15.61C16.13 15.64 15.87 15.89 15.87 16.16V17.42H15.02V16.24C15.02 15.89 14.72 15.6 14.38 15.6H13.61V9.94L12.88 10.65V17.43H12.01C11.91 17.43 11.79 17.31 11.79 17.21V15.6H10.31C9.95 15.6 9.65 15.89 9.65 16.25V17.51C9.65 17.86 9.94 18.16 10.32 18.16H16.06L16.37 18.05L16.87 18.54L17.39 18.02L16.97 17.61L17.97 16.58C18.1 16.45 18.15 16.16 18.08 15.99C17.92 15.54 17.01 15.55 16.4 15.61H16.39ZM11.05 17.4L10.6 17.43C10.52 17.43 10.37 17.29 10.37 17.21V16.54C10.37 16.45 10.51 16.32 10.59 16.32H11.05V17.4ZM14.25 17.32C14.1 17.47 13.76 17.45 13.61 17.32L13.59 16.33H14.01C14.36 16.32 14.3 16.8 14.25 17.33V17.32ZM17.1 16.52L16.59 17.02V16.5C16.62 16.39 16.77 16.29 16.9 16.31L17.09 16.34C17.09 16.34 17.11 16.49 17.09 16.52H17.1ZM28.92 15.99C28.76 15.54 27.85 15.55 27.24 15.61C26.98 15.64 26.72 15.89 26.72 16.15V17.41H25.98C25.92 17.41 25.8 17.37 25.77 17.34C25.74 17.3 25.71 17.2 25.71 17.14V15.57H24.98V17.39H24.51C24.43 17.39 24.3 17.27 24.3 17.17V15.56H23.57V17.4H22.46V16.57C22.46 16.4 22.54 16.27 22.79 16.3V15.56H20.98C20.62 15.56 20.32 15.85 20.32 16.21V17.46C20.32 17.83 20.63 18.1 20.98 18.11H21.73V23.39L22.49 22.82V18.12H26.61C26.83 18.12 27.01 18.09 27.23 18.03L27.71 18.5L28.23 17.99L27.82 17.56L28.82 16.54C28.95 16.41 28.99 16.12 28.93 15.95L28.92 15.99ZM21.72 17.41H21.26C21.18 17.42 21.04 17.29 21.04 17.21V16.55C21.04 16.46 21.18 16.33 21.26 16.33H21.72V17.42V17.41ZM27.95 16.52L27.44 17.02V16.5C27.47 16.39 27.62 16.29 27.75 16.31L27.94 16.34C27.94 16.34 27.96 16.49 27.94 16.52H27.95Z" fill="#660038"/>
</g>
<path d="M7.26 15.03V16.86H6.52C6.41 16.84 6.32 16.75 6.3 16.64V15.03L4.78 15.04C4.42 15.04 4.18 15.35 4.16 15.69V16.95C4.16 17.31 4.46 17.6 4.83 17.6H8.01L7.99 16.09C7.99 16.02 8.01 15.9 8.05 15.85C8.08 15.8 8.21 15.77 8.27 15.77H8.77L8.75 15.04H7.26V15.03ZM5.58 16.87H5.13C5.04 16.87 4.9 16.74 4.89 16.65V15.99C4.89 15.9 5.03 15.77 5.11 15.77H5.57V16.88L5.58 16.87ZM19.38 16.35C19.61 16.59 19.6 16.99 19.37 17.23L18.75 17.87L18.21 17.34L18.59 16.95C18.68 16.86 18.67 16.69 18.59 16.61L18.24 16.24C18.03 16.02 18.02 15.62 18.24 15.4L18.89 14.73L19.43 15.26L19.04 15.65C18.95 15.74 18.96 15.9 19.04 15.99L19.39 16.36L19.38 16.35ZM16 15.06C15.74 15.09 15.48 15.34 15.48 15.61V16.87H14.63V15.69C14.63 15.34 14.33 15.05 13.99 15.05H13.22V9.39L12.49 10.1V16.88H11.62C11.52 16.88 11.4 16.76 11.4 16.66V15.05H9.92C9.56 15.05 9.26 15.34 9.26 15.7V16.96C9.26 17.31 9.55 17.61 9.93 17.61H15.67L15.98 17.5L16.48 17.99L17 17.47L16.58 17.06L17.58 16.03C17.71 15.9 17.76 15.61 17.69 15.44C17.53 14.99 16.62 15 16.01 15.06H16ZM10.66 16.85L10.21 16.88C10.13 16.88 9.98 16.74 9.98 16.66V15.99C9.98 15.9 10.12 15.77 10.2 15.77H10.66V16.85ZM13.86 16.76C13.71 16.91 13.37 16.89 13.22 16.76L13.2 15.77H13.62C13.97 15.76 13.91 16.24 13.86 16.77V16.76ZM16.71 15.96L16.2 16.46V15.94C16.23 15.83 16.38 15.73 16.51 15.75L16.7 15.78C16.7 15.78 16.72 15.93 16.7 15.96H16.71ZM28.53 15.44C28.37 14.99 27.46 15 26.85 15.06C26.59 15.09 26.33 15.34 26.33 15.6V16.86H25.59C25.53 16.86 25.41 16.82 25.38 16.79C25.35 16.75 25.32 16.65 25.32 16.59V15.02H24.59V16.84H24.12C24.04 16.84 23.91 16.72 23.91 16.62V15.01H23.18V16.85H22.07V16.02C22.07 15.85 22.15 15.72 22.4 15.75V15.01H20.59C20.23 15.01 19.93 15.3 19.93 15.66V16.91C19.93 17.28 20.24 17.55 20.59 17.56H21.34V22.84L22.1 22.27V17.57H26.22C26.44 17.57 26.62 17.54 26.84 17.48L27.32 17.95L27.84 17.44L27.43 17.01L28.43 15.99C28.56 15.86 28.6 15.57 28.54 15.4L28.53 15.44ZM21.33 16.85H20.87C20.79 16.86 20.65 16.73 20.65 16.65V15.99C20.65 15.9 20.79 15.77 20.87 15.77H21.33V16.86V16.85ZM27.56 15.96L27.05 16.46V15.94C27.08 15.83 27.23 15.73 27.36 15.75L27.55 15.78C27.55 15.78 27.57 15.93 27.55 15.96H27.56Z" fill="url(#paint3_linear_129_700)"/>
<g opacity="0.51">
<path d="M31.15 15.91L16.24 1.14999L5.23999 12.21L1.14999 16.26L1.30999 16.32L5.46999 20.11L10.08 24.85L12.46 27.24L15.47 30.35L16.17 31.1L31.37 16.01L31.17 15.92L31.15 15.91ZM24.76 10.65L25.06 10.96H24.47L24.77 10.65H24.76ZM23.36 9.80999L23.66 9.55999L24.36 10.26L23.85 10.77C23.46 10.36 23 10.09 23.35 9.79999L23.36 9.80999ZM22.86 8.74999L23.24 9.12999L22.75 9.63999L22.48 9.36999C22.48 9.36999 22.44 9.16999 22.48 9.11999L22.85 8.73999L22.86 8.74999ZM22.46 8.34999L21.96 8.87999L21.23 8.14999L21.75 7.62999L22.46 8.33999V8.34999ZM20.99 6.87999L21.34 7.23999L20.84 7.73999L20.54 7.41999C20.46 7.32999 20.74 6.98999 20.98 6.87999H20.99ZM12.17 6.53999L12.19 7.07999L11.91 6.79999L12.17 6.53999ZM11.51 7.19999L12.02 7.67999L11.45 8.25999C11.38 8.32999 11.25 8.35999 11.18 8.28999L10.83 7.89999L11.51 7.19999ZM10.39 8.30999L10.88 8.79999L10.63 9.05999C10.58 9.11999 10.42 9.10999 10.37 9.05999L10.04 8.68999L10.39 8.31999V8.30999ZM9.61999 9.08999L10.11 9.58999L9.40999 10.3C9.22999 10.17 9.07999 9.98999 8.93999 9.77999L9.61999 9.09999V9.08999ZM8.49999 10.21L8.97999 10.7L8.69999 10.97C8.59999 11.07 8.42999 10.92 8.36999 10.85L8.12999 10.58L8.49999 10.21ZM8.12999 22.02L7.61999 21.54V21.23H7.96999C8.01999 21.23 8.14999 21.31 8.14999 21.36L8.12999 22.03V22.02ZM10.09 24H10.79C10.84 23.98 10.96 24.08 10.96 24.14V24.87L10.1 24H10.09ZM14.64 28.55L13.68 27.6H14.69V28.38C14.69 28.42 14.65 28.52 14.63 28.56L14.64 28.55ZM13.94 26.57L14.39 27.02C14.22 27.02 14.09 27.04 13.96 27.01C13.81 26.98 13.76 26.66 13.94 26.58V26.57ZM19.33 27.41V27.07C19.33 27 19.41 26.87 19.47 26.87H19.87L19.33 27.42V27.41ZM20.8 25.95L19.94 26.8V26.29H18.76V27.73H17.88C17.83 27.73 17.71 27.64 17.71 27.59V26.3H16.55C16.27 26.3 16.03 26.53 16.03 26.81V27.8C16.03 28.06 16.25 28.3 16.51 28.31H18.43L16.41 30.34L15.28 29.21V27.6C15.28 27.47 15.24 27.34 15.2 27.19L15.57 26.81L15.17 26.41L14.84 26.74L14.04 25.96C13.94 25.86 13.71 25.82 13.58 25.87C13.2 26 13.27 26.7 13.26 27.19L12.26 26.17C12.15 26.05 12.06 25.96 11.94 25.85L11.52 25.44H12.11C12.39 25.42 12.63 25.21 12.63 24.92V23.93C12.63 23.68 12.42 23.42 12.14 23.42H9.48999L8.58999 22.51C8.66999 22.37 8.71999 22.23 8.71999 22.08V21.17H9.50999C9.41999 21.68 9.92999 21.78 9.96999 22.09C9.86999 22.24 9.74999 22.35 9.60999 22.49L10.03 22.91L10.52 22.41C10.71 22.21 10.71 21.9 10.52 21.7L10.24 21.42C10.24 21.42 10.19 21.18 10.26 21.17H12.03L11.34 21.89C11.24 21.99 11.2 22.22 11.25 22.35C11.38 22.71 12.09 22.69 12.57 22.65C12.78 22.63 12.98 22.43 12.98 22.22V21.24H13.84V22.17C13.84 22.44 14.07 22.67 14.34 22.67H14.95L14.93 23.43H13.68L13.69 24.65C13.69 24.78 13.6 24.87 13.47 24.87H13.09V25.44H14.26V24.01H15.8C15.99 24.03 16.18 23.95 16.37 24.08L15.57 24.9C15.47 25 15.43 25.23 15.48 25.36C15.61 25.72 16.35 25.71 16.83 25.65C17.02 25.63 17.21 25.42 17.21 25.23V24.24H18.06C18.14 24.24 18.23 24.34 18.23 24.41V25.67H18.8V24.24H19.17C19.24 24.24 19.34 24.33 19.34 24.43V25.67H19.91V24.23H20.9V25.03L20.66 25.12V25.66L20.91 25.67C20.91 25.78 20.88 25.89 20.81 25.96L20.8 25.95ZM17.14 26.86V27.73H16.79C16.72 27.73 16.61 27.63 16.61 27.56V27.04C16.61 26.97 16.72 26.86 16.78 26.86H17.14ZM11.53 24L11.88 23.98C11.95 23.98 12.06 24.09 12.06 24.15V24.67C12.06 24.74 11.95 24.84 11.89 24.84H11.53V23.99V24ZM12.41 21.53V21.9C12.43 22 12.3 22.09 12.19 22.08H12.04C12.04 22.08 11.98 21.95 12.01 21.92L12.41 21.52V21.53ZM14.43 21.3C14.55 21.18 14.81 21.19 14.93 21.3V22.08H14.6C14.35 22.08 14.39 21.69 14.43 21.3ZM16.64 24.54V24.91C16.66 25.01 16.53 25.1 16.42 25.09H16.27C16.27 25.09 16.21 24.96 16.24 24.93L16.64 24.53V24.54ZM21.65 25.04C21.65 25.04 21.54 25.08 21.48 25.09V24.23C21.67 24.23 21.83 24.23 21.96 24.27C22.12 24.69 21.94 24.79 21.65 25.04ZM25.15 21.61L24.77 21.96C24.77 21.96 24.63 21.87 24.63 21.82V21.29C24.63 21.29 24.72 21.16 24.77 21.15H25.07H25.17V21.61H25.15ZM26.18 20.56H24.05V22.03C24.05 22.2 24.13 22.34 24.26 22.48L23.57 23.17L22.59 24.16C22.56 23.99 22.47 23.71 22.25 23.71L16.92 23.69C16.81 23.52 16.65 23.42 16.46 23.42H15.52V21.23H16.4C16.45 21.23 16.57 21.32 16.57 21.37V22.66H17.73C18.01 22.66 18.24 22.44 18.25 22.15V21.16H19.3V21.91C19.3 21.97 19.21 22.08 19.15 22.09H18.7V22.66H19.87V22.04V20.57H6.64999L3.37999 17.3L2.88999 16.8L2.39999 16.32L2.90999 15.8L6.89999 11.81L7.70999 11C7.84999 11.12 7.96999 11.21 8.09999 11.37C8.29999 11.62 8.78999 11.86 9.08999 11.56L12.9 7.75999L13.18 7.72999V7.18999L12.72 7.16999V5.99999L13.99 4.72999L16.41 2.29999L20.56 6.44999L20.02 7.00999C19.84 7.19999 19.81 7.49999 20 7.69999L20.43 8.14999L19.88 8.69999L20.3 9.11999L20.84 8.54999L23.4 11.11C23.52 11.23 23.63 11.3 23.78 11.38V11.91H24.36V11.45L25.56 11.44L26.09 11.97C25.96 12.35 26.09 12.81 25.89 12.81L25.4 12.83V13.41H26.09C26.39 13.41 26.59 13.17 26.61 12.89L26.63 12.52L27.47 13.36L30.48 16.23L26.17 20.54L26.18 20.56ZM17.14 21.23L17.49 21.21C17.56 21.21 17.67 21.32 17.67 21.39V21.91C17.67 21.98 17.56 22.08 17.5 22.08H17.14V21.23Z" fill="#660038"/>
</g>
<path d="M16.12 0.899994L0.990005 15.99L16.12 31.12L31.25 16.01L16.12 0.899994ZM24.47 10.33L24.77 10.64H24.18L24.48 10.33H24.47ZM23.07 9.48999L23.37 9.23999L24.07 9.93999L23.56 10.45C23.17 10.04 22.71 9.76999 23.06 9.47999L23.07 9.48999ZM22.57 8.42999L22.95 8.80999L22.46 9.31999L22.19 9.04999C22.19 9.04999 22.15 8.84999 22.19 8.79999L22.56 8.41999L22.57 8.42999ZM22.17 8.03999L21.67 8.56999L20.94 7.83999L21.46 7.31999L22.17 8.02999V8.03999ZM20.7 6.56999L21.05 6.92999L20.55 7.42999L20.25 7.10999C20.17 7.01999 20.45 6.67999 20.69 6.56999H20.7ZM11.88 6.21999L11.9 6.75999L11.62 6.47999L11.88 6.21999ZM11.22 6.87999L11.73 7.35999L11.16 7.93999C11.09 8.00999 10.96 8.03999 10.89 7.96999L10.54 7.57999L11.22 6.87999ZM10.1 7.98999L10.59 8.47999L10.34 8.73999C10.29 8.79999 10.13 8.78999 10.08 8.73999L9.75001 8.36999L10.1 7.99999V7.98999ZM9.33001 8.77999L9.82001 9.27999L9.12001 9.98999C8.94001 9.85999 8.79001 9.67999 8.65001 9.46999L9.33001 8.78999V8.77999ZM8.21001 9.88999L8.69001 10.38L8.41001 10.65C8.31001 10.75 8.14001 10.6 8.08001 10.53L7.84001 10.26L8.21001 9.88999ZM7.84001 21.7L7.33001 21.22V20.91H7.68001C7.73001 20.91 7.86001 20.99 7.86001 21.04L7.84001 21.71V21.7ZM9.80001 23.68H10.5C10.55 23.66 10.67 23.76 10.67 23.82V24.55L9.81001 23.68H9.80001ZM14.35 28.23L13.39 27.28H14.4V28.06C14.4 28.1 14.36 28.2 14.34 28.24L14.35 28.23ZM13.65 26.25L14.1 26.7C13.93 26.7 13.8 26.72 13.67 26.69C13.52 26.66 13.47 26.34 13.65 26.26V26.25ZM19.04 27.09V26.75C19.04 26.68 19.12 26.55 19.18 26.55H19.58L19.04 27.1V27.09ZM20.51 25.64L19.65 26.49V25.98H18.47V27.42H17.59C17.54 27.42 17.42 27.33 17.42 27.28V25.99H16.26C15.98 25.99 15.74 26.22 15.74 26.5V27.49C15.74 27.75 15.96 27.99 16.22 28H18.14L16.12 30.03L14.99 28.9V27.29C14.99 27.16 14.95 27.03 14.91 26.88L15.28 26.5L14.88 26.1L14.55 26.43L13.75 25.65C13.65 25.55 13.42 25.51 13.29 25.56C12.91 25.69 12.98 26.39 12.97 26.88L11.97 25.86C11.86 25.74 11.77 25.65 11.65 25.54L11.23 25.13H11.82C12.1 25.11 12.34 24.9 12.34 24.61V23.62C12.34 23.37 12.13 23.11 11.85 23.11H9.20001L8.30001 22.2C8.38001 22.06 8.43001 21.92 8.43001 21.77V20.86H9.22001C9.13001 21.37 9.64001 21.47 9.68001 21.78C9.58001 21.93 9.46001 22.04 9.32001 22.18L9.74001 22.6L10.23 22.1C10.42 21.9 10.42 21.59 10.23 21.39L9.95001 21.11C9.95001 21.11 9.90001 20.87 9.97001 20.86H11.74L11.05 21.58C10.95 21.68 10.91 21.91 10.96 22.04C11.09 22.4 11.8 22.38 12.28 22.34C12.49 22.32 12.69 22.12 12.69 21.91V20.93H13.55V21.86C13.55 22.13 13.78 22.36 14.05 22.36H14.66L14.64 23.12H13.39L13.4 24.34C13.4 24.47 13.31 24.56 13.18 24.56H12.8V25.13H13.97V23.7H15.51C15.7 23.72 15.89 23.64 16.08 23.77L15.28 24.59C15.18 24.69 15.14 24.92 15.19 25.05C15.32 25.41 16.06 25.4 16.54 25.34C16.73 25.32 16.92 25.11 16.92 24.92V23.93H17.77C17.85 23.93 17.94 24.03 17.94 24.1V25.36H18.51V23.93H18.88C18.95 23.93 19.05 24.02 19.05 24.12V25.36H19.62V23.92H20.61V24.72L20.37 24.81V25.35L20.62 25.36C20.62 25.47 20.59 25.58 20.52 25.65L20.51 25.64ZM16.85 26.55V27.42H16.5C16.43 27.42 16.32 27.32 16.32 27.25V26.73C16.32 26.66 16.43 26.55 16.49 26.55H16.85ZM11.24 23.68L11.59 23.66C11.66 23.66 11.77 23.77 11.77 23.83V24.35C11.77 24.42 11.66 24.52 11.6 24.52H11.24V23.67V23.68ZM12.12 21.22V21.59C12.14 21.69 12.01 21.78 11.9 21.77H11.75C11.75 21.77 11.69 21.64 11.72 21.61L12.12 21.21V21.22ZM14.14 20.99C14.26 20.87 14.52 20.88 14.64 20.99V21.77H14.31C14.06 21.77 14.1 21.38 14.14 20.99ZM16.35 24.22V24.59C16.37 24.69 16.24 24.78 16.13 24.77H15.98C15.98 24.77 15.92 24.64 15.95 24.61L16.35 24.21V24.22ZM21.36 24.72C21.36 24.72 21.25 24.76 21.19 24.77V23.91C21.38 23.91 21.54 23.91 21.67 23.95C21.83 24.37 21.65 24.47 21.36 24.72ZM24.85 21.29L24.47 21.64C24.47 21.64 24.33 21.55 24.33 21.5V20.97C24.33 20.97 24.42 20.84 24.47 20.83H24.77H24.87V21.29H24.85ZM25.89 20.24H23.76V21.71C23.76 21.88 23.84 22.02 23.97 22.16L23.28 22.85L22.3 23.84C22.27 23.67 22.18 23.39 21.96 23.39L16.63 23.37C16.52 23.2 16.36 23.1 16.17 23.1H15.23V20.91H16.11C16.16 20.91 16.28 21 16.28 21.05V22.34H17.44C17.72 22.34 17.95 22.12 17.96 21.83V20.84H19.01V21.59C19.01 21.65 18.92 21.76 18.86 21.77H18.41V22.34H19.58V21.72V20.25H6.36001L3.09001 16.98L2.60001 16.48L2.11001 16L2.62001 15.48L6.61001 11.49L7.42001 10.68C7.56001 10.8 7.68001 10.89 7.81001 11.05C8.01001 11.3 8.50001 11.54 8.80001 11.24L12.61 7.43999L12.89 7.40999V6.86999L12.43 6.84999V5.67999L13.7 4.40999L16.12 1.97999L20.27 6.12999L19.73 6.68999C19.55 6.87999 19.52 7.17999 19.71 7.37999L20.14 7.82999L19.59 8.37999L20.01 8.79999L20.55 8.22999L23.11 10.79C23.23 10.91 23.34 10.98 23.49 11.06V11.59H24.07V11.13L25.27 11.12L25.8 11.65C25.67 12.03 25.8 12.49 25.6 12.49L25.11 12.51V13.09H25.8C26.1 13.09 26.3 12.85 26.32 12.57L26.34 12.2L27.18 13.04L30.19 15.91L25.88 20.22L25.89 20.24ZM16.85 20.92L17.2 20.9C17.27 20.9 17.38 21.01 17.38 21.08V21.6C17.38 21.67 17.27 21.77 17.21 21.77H16.85V20.92Z" fill="url(#paint4_linear_129_700)"/>
<path d="M16.13 31.19L0.910004 15.99L16.12 0.830002L16.14 0.850002L31.32 16.01L31.3 16.03L16.12 31.2L16.13 31.19ZM0.990004 15.99L16.13 31.12L31.26 16L16.12 0.890002L0.990004 15.99ZM16.12 30.04L14.97 28.89V27.27C14.97 27.14 14.94 27.01 14.9 26.87V26.85L15.25 26.49L14.88 26.12L14.55 26.44L14.53 26.42L13.73 25.64C13.63 25.54 13.41 25.51 13.29 25.56C12.98 25.67 12.98 26.18 12.99 26.64C12.99 26.72 12.99 26.79 12.99 26.86V26.92L12.95 26.88L11.9 25.81C11.81 25.72 11.73 25.64 11.63 25.54L11.17 25.09H11.82C12.1 25.07 12.31 24.86 12.31 24.59V23.6C12.31 23.37 12.11 23.12 11.85 23.12H9.19V23.1L8.28 22.18V22.16C8.38 22 8.42 21.87 8.42 21.74V20.8H9.26V20.83C9.2 21.12 9.35 21.27 9.5 21.42C9.6 21.52 9.69 21.61 9.71 21.75V21.77C9.62 21.9 9.52 22 9.4 22.12L9.36 22.16L9.75 22.55L10.22 22.07C10.4 21.89 10.4 21.58 10.22 21.4L9.94 21.12C9.94 21.12 9.89 20.96 9.91 20.89C9.93 20.84 9.95 20.83 9.97 20.83H11.8L11.76 20.87L11.06 21.59C10.97 21.68 10.93 21.9 10.98 22.03C11.07 22.29 11.51 22.38 12.27 22.31C12.47 22.29 12.66 22.09 12.66 21.91V20.9H12.69H13.57V20.92V21.85C13.57 22.11 13.79 22.33 14.05 22.33H14.68V22.36L14.66 23.13H13.41V24.33C13.42 24.4 13.41 24.46 13.36 24.5C13.32 24.55 13.25 24.57 13.18 24.57H12.82V25.09H13.94V23.66H15.5C15.55 23.67 15.6 23.66 15.65 23.66C15.79 23.64 15.94 23.63 16.08 23.73L16.1 23.75L16.08 23.77L15.28 24.59C15.19 24.68 15.15 24.9 15.2 25.03C15.31 25.34 15.96 25.37 16.52 25.3C16.7 25.28 16.88 25.08 16.88 24.9V23.88H17.75C17.84 23.88 17.94 23.99 17.94 24.08V25.32H18.46V23.89H18.48H18.85C18.89 23.89 18.93 23.91 18.97 23.95C19.01 23.99 19.04 24.05 19.04 24.1V25.32H19.56V23.88H20.6V24.72H20.58L20.36 24.81V25.31L20.61 25.32V25.34C20.61 25.42 20.59 25.56 20.5 25.65L19.6 26.54L19 27.14V27.08V26.74C19 26.69 19.04 26.6 19.09 26.55C19.12 26.52 19.14 26.51 19.17 26.51H19.61V26.48V25.99H18.48V27.43H17.58C17.52 27.43 17.39 27.33 17.39 27.26V25.99H16.25C15.98 25.99 15.76 26.21 15.76 26.48V27.47C15.76 27.72 15.98 27.95 16.22 27.95H18.2L18.16 28L16.12 30.04ZM15.02 28.87L16.12 29.98L18.09 28.02H16.23C15.96 28.01 15.72 27.76 15.72 27.48V26.49C15.72 26.2 15.96 25.95 16.26 25.95H17.44V25.97V27.26C17.44 27.26 17.55 27.38 17.59 27.38H18.45V25.95H19.67V25.98V26.44L20.5 25.63C20.57 25.56 20.59 25.45 20.59 25.38H20.34V24.79H20.36L20.58 24.7V23.94H19.64V25.38H19.02V24.11C19.02 24.11 19 24.03 18.97 23.99C18.94 23.96 18.91 23.95 18.89 23.95H18.54V25.38H17.92V24.09C17.92 24.03 17.84 23.94 17.78 23.94H16.95V24.91C16.95 25.11 16.76 25.33 16.55 25.35C16.27 25.39 15.33 25.47 15.18 25.05C15.13 24.92 15.16 24.68 15.27 24.56L16.05 23.76C15.92 23.69 15.8 23.7 15.67 23.71C15.62 23.71 15.57 23.72 15.52 23.72H14V25.14H12.78V24.52H13.19C13.25 24.52 13.3 24.5 13.33 24.46C13.36 24.43 13.38 24.38 13.38 24.32V23.07H14.62L14.64 22.37H14.06C13.78 22.36 13.54 22.12 13.54 21.83V20.93H12.72V21.89C12.72 22.1 12.51 22.32 12.29 22.34C11.5 22.41 11.05 22.31 10.95 22.03C10.9 21.88 10.95 21.65 11.04 21.54L11.7 20.86H9.98C9.98 20.86 9.97 20.87 9.96 20.89C9.94 20.95 9.96 21.04 9.98 21.07L10.26 21.35C10.46 21.56 10.46 21.89 10.26 22.09L9.75 22.61L9.3 22.16L9.37 22.09C9.49 21.98 9.59 21.88 9.67 21.75C9.65 21.64 9.56 21.55 9.47 21.46C9.33 21.32 9.17 21.16 9.21 20.86H8.47V21.75C8.47 21.88 8.43 22.02 8.35 22.18L9.23 23.06H11.87C12.17 23.06 12.38 23.35 12.38 23.6V24.59C12.38 24.88 12.14 25.12 11.84 25.13H11.3L11.68 25.5C11.78 25.59 11.86 25.68 11.95 25.77L12 25.82L12.96 26.8C12.96 26.75 12.96 26.69 12.96 26.64C12.96 26.17 12.96 25.64 13.3 25.52C13.43 25.47 13.67 25.5 13.79 25.62L14.57 26.39L14.9 26.07L15.34 26.51L14.96 26.9C15 27.04 15.03 27.16 15.03 27.3V28.9L15.02 28.87ZM19.52 26.57H19.18C19.18 26.57 19.15 26.58 19.13 26.6C19.09 26.64 19.05 26.72 19.05 26.75V27.03L19.52 26.56V26.57ZM14.36 28.27L13.34 27.25L14.43 27.23V28.05C14.43 28.05 14.39 28.2 14.37 28.24L14.35 28.27H14.36ZM13.46 27.3L14.35 28.19C14.35 28.19 14.39 28.08 14.39 28.05V27.28L13.46 27.29V27.3ZM16.5 27.44C16.42 27.44 16.29 27.32 16.29 27.24V26.72C16.29 26.64 16.4 26.52 16.49 26.52H16.87V27.44H16.85H16.5ZM16.49 26.57C16.44 26.57 16.34 26.66 16.34 26.72V27.24C16.34 27.29 16.44 27.39 16.5 27.39H16.83V26.57H16.49ZM13.88 26.73C13.81 26.73 13.74 26.73 13.66 26.71C13.58 26.69 13.52 26.61 13.51 26.5C13.5 26.38 13.55 26.28 13.64 26.23H13.66L14.16 26.72H14.06C14 26.72 13.94 26.73 13.88 26.73ZM13.65 26.28C13.57 26.33 13.55 26.42 13.56 26.49C13.56 26.58 13.62 26.65 13.68 26.66C13.79 26.69 13.91 26.68 14.05 26.67L13.65 26.28ZM21.17 24.8V23.89H21.2C21.38 23.89 21.55 23.89 21.68 23.93H21.69V23.94C21.84 24.34 21.69 24.47 21.44 24.68C21.42 24.7 21.39 24.72 21.37 24.74C21.37 24.74 21.22 24.79 21.19 24.8H21.16H21.17ZM21.22 23.93V24.74C21.28 24.73 21.33 24.71 21.34 24.7C21.34 24.7 21.39 24.66 21.41 24.64C21.66 24.43 21.79 24.32 21.65 23.97C21.53 23.93 21.38 23.94 21.22 23.94V23.93ZM16.14 24.8H15.98C15.98 24.8 15.94 24.78 15.93 24.74C15.92 24.7 15.91 24.64 15.93 24.61L16.37 24.17V24.6C16.37 24.6 16.37 24.69 16.32 24.73C16.27 24.78 16.2 24.81 16.14 24.81V24.8ZM16.32 24.27L15.96 24.63C15.96 24.63 15.96 24.64 15.96 24.67C15.96 24.7 15.98 24.73 15.98 24.73H16.13V24.74C16.18 24.74 16.24 24.72 16.28 24.68C16.31 24.65 16.33 24.62 16.33 24.58V24.26L16.32 24.27ZM10.69 24.61L10.65 24.57L9.75 23.66H9.81L10.51 23.64C10.51 23.64 10.6 23.68 10.64 23.71C10.66 23.73 10.7 23.78 10.7 23.82V24.61H10.69ZM9.86 23.7L10.64 24.49V23.82C10.64 23.82 10.62 23.77 10.59 23.74C10.55 23.71 10.52 23.69 10.5 23.69H9.86V23.7ZM11.6 24.55H11.21V23.65H11.23L11.59 23.63C11.59 23.63 11.68 23.66 11.7 23.68C11.74 23.72 11.78 23.78 11.79 23.82V24.34C11.79 24.42 11.68 24.54 11.59 24.54L11.6 24.55ZM11.26 24.51H11.6C11.65 24.51 11.74 24.42 11.75 24.36V23.84C11.75 23.84 11.72 23.77 11.68 23.73C11.65 23.7 11.62 23.69 11.6 23.69L11.27 23.71V24.51H11.26ZM22.28 23.89V23.84C22.24 23.64 22.14 23.41 21.95 23.41L16.61 23.39C16.51 23.21 16.35 23.12 16.17 23.12H15.2V20.88H16.1C16.16 20.88 16.29 20.98 16.29 21.05V22.32H17.43C17.7 22.32 17.92 22.11 17.92 21.83V20.82H19.01V20.84V21.59C19.01 21.66 18.91 21.79 18.83 21.79H18.41V22.31H19.53V21.74V21.72V20.28H6.34L3.07 17L2.58 16.5L2.07 16L2.09 15.98L2.6 15.46L7.42 10.65L7.44 10.67C7.44 10.67 7.5 10.72 7.53 10.75C7.63 10.84 7.73 10.92 7.83 11.04C7.95 11.18 8.19 11.35 8.43 11.36C8.57 11.36 8.69 11.32 8.78 11.23L12.6 7.43L12.86 7.4V6.91L12.4 6.89V5.68L13.67 4.41L16.11 1.97L20.3 6.16L20.28 6.18L19.74 6.74C19.56 6.93 19.55 7.22 19.72 7.4L20.17 7.87L20.15 7.89L19.61 8.43L20 8.82L20.54 8.25L20.56 8.27L23.12 10.83C23.23 10.94 23.33 11.01 23.5 11.1H23.51V11.12V11.63H24.04V11.17H25.27L25.81 11.71C25.76 11.88 25.75 12.06 25.74 12.21C25.74 12.42 25.73 12.58 25.59 12.59L25.12 12.61V13.14H25.79C26.06 13.14 26.27 12.93 26.28 12.64L26.3 12.22L26.34 12.26L27.18 13.1L30.21 15.99L30.19 16.01L25.87 20.33H23.75V21.77C23.75 21.92 23.82 22.06 23.95 22.21L23.97 22.23L22.25 23.95L22.28 23.89ZM16.64 23.34L21.95 23.36C22.15 23.36 22.27 23.58 22.31 23.79L23.93 22.17C23.8 22.02 23.73 21.88 23.73 21.72V20.23H25.88L30.17 15.94L27.18 13.08L26.37 12.28L26.35 12.6C26.33 12.91 26.11 13.14 25.81 13.15H25.1V13.13V12.53H25.12L25.61 12.51C25.7 12.51 25.71 12.39 25.72 12.18C25.72 12.04 25.73 11.86 25.79 11.7L25.28 11.19H24.12V11.66H23.5V11.64V11.12C23.36 11.05 23.24 10.98 23.12 10.85L20.57 8.3L20.03 8.87L20.01 8.85L19.57 8.41L20.12 7.85L19.71 7.41C19.52 7.21 19.53 6.89 19.73 6.69L20.25 6.14L16.13 2.02L13.72 4.43L12.46 5.7V6.84L12.92 6.86V7.44L12.63 7.47L8.82 11.26C8.72 11.36 8.6 11.4 8.46 11.4C8.45 11.4 8.44 11.4 8.43 11.4C8.17 11.39 7.92 11.22 7.79 11.06C7.69 10.94 7.6 10.86 7.5 10.77C7.47 10.75 7.45 10.73 7.42 10.7L2.63 15.48L2.14 15.98L2.61 16.44L3.1 16.94L6.36 20.2H19.58V21.69V22.34H18.36V21.72H18.38H18.83C18.88 21.72 18.96 21.62 18.96 21.57V20.85H17.96V21.81C17.96 22.11 17.72 22.34 17.42 22.35H16.24V22.33V21.04C16.24 21.04 16.14 20.92 16.09 20.92H15.23V23.05H16.15C16.34 23.05 16.51 23.16 16.62 23.33L16.64 23.34ZM11.91 21.8H11.75C11.75 21.8 11.71 21.78 11.7 21.74C11.69 21.7 11.67 21.64 11.7 21.61L12.14 21.17V21.6C12.14 21.6 12.14 21.69 12.09 21.73C12.04 21.78 11.97 21.81 11.91 21.81V21.8ZM12.1 21.27L11.74 21.63C11.74 21.63 11.74 21.64 11.74 21.67C11.74 21.7 11.76 21.73 11.76 21.73H11.91C11.91 21.73 11.91 21.74 11.92 21.74C11.97 21.74 12.03 21.72 12.07 21.68C12.1 21.65 12.12 21.62 12.12 21.58V21.26L12.1 21.27ZM14.31 21.79C14.25 21.79 14.2 21.77 14.17 21.73C14.06 21.61 14.09 21.32 14.12 21.02V20.98H14.13C14.26 20.84 14.54 20.87 14.66 20.98V21.8H14.3L14.31 21.79ZM14.17 21V21.03C14.14 21.31 14.11 21.6 14.21 21.7C14.24 21.73 14.27 21.74 14.32 21.74H14.64L14.63 21C14.52 20.91 14.29 20.89 14.18 21H14.17ZM17.21 21.79H16.83V20.89H16.85L17.21 20.87C17.21 20.87 17.3 20.91 17.33 20.93C17.37 20.96 17.41 21.02 17.41 21.07V21.59C17.41 21.67 17.29 21.79 17.21 21.79ZM16.87 21.74H17.21C17.26 21.74 17.36 21.65 17.36 21.59V21.07C17.36 21.07 17.33 21 17.29 20.96C17.26 20.93 17.23 20.92 17.21 20.92L16.88 20.94V21.74H16.87ZM7.86 21.76L7.82 21.72L7.3 21.23V20.89H7.32H7.67C7.72 20.89 7.79 20.94 7.83 20.97C7.85 20.99 7.87 21.02 7.87 21.04L7.85 21.76H7.86ZM7.35 21.21L7.81 21.65L7.83 21.03C7.83 21.03 7.83 21.01 7.81 21C7.77 20.96 7.71 20.93 7.68 20.93H7.35V21.21ZM24.45 21.68C24.45 21.68 24.43 21.68 24.42 21.68C24.37 21.66 24.3 21.56 24.3 21.51V20.98C24.3 20.92 24.4 20.82 24.46 20.82H24.88V21.31H24.86L24.48 21.66C24.48 21.66 24.46 21.67 24.45 21.67V21.68ZM24.47 20.86C24.47 20.86 24.36 20.94 24.36 20.97V21.5C24.36 21.5 24.39 21.59 24.43 21.62C24.45 21.63 24.45 21.62 24.45 21.62L24.83 21.27V20.85H24.47V20.86ZM8.33 10.71C8.21 10.71 8.08 10.56 8.07 10.55L7.82 10.26L7.84 10.24L8.22 9.85L8.24 9.87L8.74 10.38L8.44 10.67C8.44 10.67 8.38 10.71 8.34 10.71H8.33ZM7.88 10.27L8.1 10.52C8.15 10.57 8.24 10.66 8.33 10.66C8.33 10.66 8.38 10.66 8.39 10.63L8.66 10.38L8.21 9.92L7.88 10.26V10.27ZM24.82 10.67H24.11L24.46 10.3L24.48 10.32L24.82 10.67ZM24.23 10.61H24.71L24.47 10.37L24.23 10.61ZM23.57 10.49L23.55 10.47C23.47 10.39 23.39 10.31 23.31 10.24C23.1 10.04 22.91 9.87 22.92 9.7C22.92 9.62 22.97 9.54 23.05 9.47L23.37 9.21L23.39 9.23L24.11 9.95L23.57 10.5V10.49ZM23.09 9.51C23.01 9.57 22.97 9.64 22.97 9.7C22.97 9.85 23.14 10.01 23.34 10.2C23.41 10.27 23.49 10.34 23.57 10.42L24.05 9.94L23.38 9.27L23.09 9.51ZM9.12 10.01H9.1C8.93 9.88 8.78 9.7 8.62 9.47V9.45V9.44L9.32 8.74L9.85 9.27L9.11 10.01H9.12ZM8.68 9.46C8.82 9.67 8.97 9.83 9.12 9.95L9.79 9.27L9.33 8.81L8.68 9.46ZM22.46 9.36L22.44 9.34L22.17 9.07C22.17 9.07 22.13 8.98 22.13 8.95C22.13 8.89 22.14 8.82 22.18 8.79L22.57 8.39L22.59 8.41L22.99 8.81L22.97 8.83L22.47 9.35L22.46 9.36ZM22.57 8.47L22.21 8.83C22.21 8.83 22.18 8.9 22.18 8.96C22.18 9 22.18 9.03 22.2 9.04L22.46 9.29L22.92 8.82L22.57 8.47ZM10.23 8.8C10.16 8.8 10.1 8.78 10.07 8.74L9.72 8.36L9.74 8.34L10.11 7.95L10.63 8.47L10.36 8.75C10.36 8.75 10.28 8.8 10.22 8.8H10.23ZM9.79 8.36L10.11 8.71C10.11 8.71 10.18 8.75 10.23 8.75C10.23 8.75 10.31 8.74 10.33 8.72L10.56 8.48L10.11 8.03L9.79 8.37V8.36ZM21.67 8.6L21.65 8.58L20.91 7.84L21.46 7.29L22.2 8.04L21.67 8.6ZM20.98 7.84L21.67 8.53L22.14 8.04L21.47 7.36L20.99 7.84H20.98ZM10.99 8.04C10.99 8.04 10.9 8.02 10.87 7.99L10.51 7.58L10.53 7.56L11.23 6.85L11.25 6.87L11.78 7.37L11.76 7.39L11.19 7.97C11.19 7.97 11.07 8.05 11.01 8.05L10.99 8.04ZM10.57 7.58L10.9 7.95C10.9 7.95 10.96 7.98 10.98 7.98C11.03 7.98 11.09 7.96 11.13 7.92L11.68 7.36L11.21 6.91L10.56 7.57L10.57 7.58ZM20.56 7.46L20.25 7.12C20.25 7.12 20.22 7.07 20.23 7.03C20.26 6.88 20.5 6.63 20.69 6.55H20.71H20.72L21.09 6.93L20.56 7.46ZM20.7 6.6C20.51 6.69 20.3 6.92 20.28 7.04C20.28 7.06 20.28 7.08 20.28 7.09L20.56 7.39L21.02 6.93L20.69 6.6H20.7ZM11.93 6.82L11.59 6.48L11.91 6.16L11.94 6.82H11.93ZM11.66 6.48L11.88 6.7L11.86 6.28L11.66 6.49V6.48Z" fill="url(#paint5_linear_129_700)"/>
<path d="M8.77 15.01H7.23V16.85H6.52C6.42 16.83 6.34 16.74 6.33 16.65V15.01L4.79 15.02C4.4 15.02 4.17 15.37 4.14 15.69V16.95C4.14 17.32 4.45 17.63 4.83 17.63H8.01H8.03L8.01 16.09C8.01 16.02 8.03 15.9 8.06 15.86C8.09 15.82 8.2 15.79 8.26 15.79H8.76H8.79L8.77 15.04V15.02V15.01ZM7.98 16.09L8 17.59H4.84C4.49 17.59 4.2 17.3 4.19 16.95V15.69C4.21 15.39 4.43 15.06 4.79 15.06H6.29V16.65C6.3 16.76 6.4 16.86 6.52 16.89H7.26H7.28V15.06H8.74L8.76 15.76H8.28C8.21 15.76 8.08 15.8 8.04 15.85C8 15.9 7.98 16.03 7.98 16.1V16.09ZM28.55 15.43C28.44 15.11 28.03 15.04 27.64 15.01C27.47 15 27.37 15.01 27.36 15.01C27.18 15.01 27.03 15.02 26.84 15.04C26.56 15.07 26.3 15.34 26.3 15.61V16.85H25.58C25.53 16.85 25.41 16.82 25.38 16.79C25.35 16.76 25.33 16.67 25.33 16.61V15.02H24.55V16.84H24.1C24.07 16.84 24.02 16.82 23.98 16.78C23.94 16.74 23.91 16.69 23.91 16.65V15.01H23.13V16.85H22.07V16.05C22.07 15.97 22.09 15.9 22.13 15.86C22.17 15.82 22.24 15.8 22.32 15.8C22.34 15.8 22.35 15.8 22.37 15.8H22.4V15.04V15.02H20.56C20.18 15.02 19.88 15.33 19.88 15.71V16.96C19.88 17.33 20.17 17.62 20.56 17.64H21.29V22.89V22.94L22.1 22.34V17.64H26.2C26.43 17.64 26.61 17.61 26.82 17.55L27.29 18.01H27.31L27.84 17.5L27.86 17.48L27.45 17.05L28.43 16.05C28.57 15.91 28.61 15.6 28.55 15.43ZM27.4 17.04L27.81 17.48L27.31 17.97L26.84 17.51C26.62 17.57 26.45 17.6 26.22 17.6H22.08V22.31L21.34 22.85V17.61V17.6H20.57C20.2 17.57 19.93 17.3 19.93 16.95V15.7C19.93 15.35 20.22 15.06 20.57 15.06H22.37V15.76C22.36 15.76 22.34 15.76 22.33 15.76C22.14 15.76 22.04 15.86 22.04 16.05V16.89H23.18V15.05H23.88V16.65C23.88 16.75 24 16.88 24.1 16.88H24.57H24.58V15.06H25.28V16.61C25.28 16.67 25.3 16.78 25.34 16.82C25.38 16.86 25.5 16.9 25.56 16.9H26.32V15.62C26.32 15.37 26.56 15.12 26.83 15.09C27.03 15.07 27.22 15.06 27.4 15.06C28.02 15.09 28.34 15.14 28.5 15.46C28.56 15.63 28.5 15.91 28.39 16.03L27.39 17.05L27.4 17.04ZM4.88 15.99V16.65C4.88 16.75 5.03 16.89 5.13 16.89H5.58H5.6V15.75H5.12C5.02 15.75 4.89 15.89 4.88 15.99ZM5.12 15.79H5.56V16.85H5.14C5.06 16.85 4.93 16.73 4.93 16.65V15.99C4.93 15.92 5.05 15.79 5.13 15.79H5.12ZM19.05 15.96C18.97 15.88 18.97 15.73 19.05 15.66L19.44 15.27L19.46 15.25L18.9 14.7L18.88 14.68L18.21 15.37C17.99 15.6 17.99 16.01 18.21 16.25L18.56 16.62C18.63 16.69 18.65 16.85 18.56 16.93L18.18 17.32L18.16 17.34L18.72 17.89L18.74 17.91L19.38 17.26C19.62 17.01 19.63 16.59 19.39 16.34L19.04 15.97L19.05 15.96ZM18.59 16.59L18.24 16.22C18.03 16 18.03 15.61 18.24 15.4L18.88 14.74L19.4 15.25L19.02 15.63C18.93 15.72 18.93 15.89 19.02 15.99L19.37 16.36C19.59 16.59 19.59 16.99 19.36 17.22L18.75 17.84L18.23 17.33L18.6 16.95C18.7 16.85 18.68 16.67 18.6 16.58L18.59 16.59ZM9.96 15.99V16.66C9.96 16.74 10.1 16.88 10.19 16.9H10.22L10.68 16.87V15.76H10.2C10.11 15.76 9.96 15.9 9.96 16V15.99ZM10.2 15.79H10.64V16.83L10.21 16.86C10.21 16.86 10.12 16.83 10.08 16.78C10.04 16.74 10.01 16.69 10.01 16.66V15.99C10.01 15.92 10.14 15.79 10.21 15.79H10.2ZM16.65 15C16.65 15 16.6 15 16.57 15C16.4 15 16.21 15.01 16 15.03C15.72 15.06 15.46 15.33 15.46 15.6V16.83H14.65V15.67C14.65 15.31 14.34 15.01 13.99 15H13.24V9.36V9.3L12.47 10.05V16.82H11.62C11.53 16.82 11.43 16.71 11.43 16.62V14.98H9.93C9.55 14.98 9.25 15.29 9.25 15.66V16.92C9.25 17.29 9.56 17.6 9.94 17.6H15.68L15.99 17.5L16.49 18L17.05 17.45L16.63 17.04L17.61 16.02C17.74 15.89 17.8 15.59 17.73 15.4C17.61 15.04 17.04 14.97 16.67 14.97L16.65 15ZM16.56 17.05H16.55L16.97 17.47L16.47 17.97L15.98 17.48L15.66 17.6H9.92C9.56 17.6 9.27 17.31 9.27 16.96V15.7C9.27 15.35 9.56 15.06 9.91 15.06H11.37V16.65C11.37 16.76 11.49 16.88 11.6 16.88H12.48H12.5V10.09L13.2 9.41V15.03V15.04H13.99C14.32 15.06 14.6 15.34 14.61 15.68V16.86V16.88H15.48H15.5V15.61C15.5 15.36 15.74 15.11 16.01 15.08C16.21 15.06 16.4 15.05 16.58 15.05H16.61C17.4 15.05 17.62 15.3 17.68 15.45C17.74 15.62 17.68 15.9 17.57 16.03L16.57 17.06L16.56 17.05ZM20.63 15.99V16.65C20.63 16.74 20.77 16.88 20.86 16.88H21.33L21.34 16.87V15.75H20.87C20.78 15.75 20.63 15.89 20.63 15.99ZM20.87 15.79H21.31V16.83H20.87C20.84 16.83 20.79 16.8 20.75 16.76C20.71 16.72 20.68 16.67 20.68 16.64V15.98C20.68 15.91 20.81 15.78 20.88 15.78L20.87 15.79ZM13.63 15.75H13.21H13.19L13.21 16.76V16.77C13.29 16.84 13.42 16.88 13.55 16.88C13.68 16.88 13.79 16.84 13.87 16.77V16.71C13.91 16.33 13.94 15.97 13.81 15.82C13.76 15.77 13.7 15.74 13.62 15.74L13.63 15.75ZM13.84 16.7V16.75C13.77 16.81 13.67 16.84 13.55 16.84C13.43 16.84 13.31 16.8 13.24 16.75L13.22 15.79H13.61C13.68 15.79 13.73 15.81 13.77 15.85C13.89 15.99 13.86 16.34 13.82 16.71L13.84 16.7ZM27.55 15.77L27.36 15.74C27.36 15.74 27.33 15.74 27.32 15.74C27.2 15.74 27.06 15.83 27.02 15.94L27.04 16.5L27.58 15.98C27.58 15.98 27.61 15.84 27.58 15.8C27.58 15.79 27.56 15.78 27.55 15.78V15.77ZM27.32 15.78C27.32 15.78 27.34 15.78 27.35 15.78L27.54 15.81C27.54 15.81 27.54 15.93 27.54 15.95L27.07 16.41V15.95C27.09 15.86 27.22 15.78 27.32 15.78ZM16.71 15.77L16.52 15.74C16.39 15.72 16.22 15.82 16.18 15.94L16.2 16.5L16.74 15.98C16.74 15.98 16.77 15.84 16.74 15.8C16.74 15.79 16.72 15.78 16.71 15.78V15.77ZM16.48 15.78C16.48 15.78 16.5 15.78 16.51 15.78L16.7 15.81C16.7 15.81 16.7 15.93 16.7 15.95L16.23 16.41V15.95C16.25 15.86 16.38 15.78 16.48 15.78Z" fill="url(#paint6_linear_129_700)"/>
</g>
<defs>
<linearGradient id="paint0_linear_129_700" x1="14.41" y1="2.86" x2="19.62" y2="42.9" gradientUnits="userSpaceOnUse">
<stop stop-color="#FCFADE"/>
<stop offset="0.11" stop-color="#FCF9DB"/>
<stop offset="0.19" stop-color="#FCF7D1"/>
<stop offset="0.26" stop-color="#FCF5C1"/>
<stop offset="0.32" stop-color="#FDF1AB"/>
<stop offset="0.38" stop-color="#FDEC8D"/>
<stop offset="0.44" stop-color="#FEE66A"/>
<stop offset="0.46" stop-color="#FFE561"/>
<stop offset="0.63" stop-color="#FFE459"/>
<stop offset="0.68" stop-color="#FEE97B"/>
<stop offset="0.76" stop-color="#FDF2B0"/>
<stop offset="0.82" stop-color="#FCF7D1"/>
<stop offset="0.86" stop-color="#FCFADE"/>
<stop offset="0.87" stop-color="#F9EBD3"/>
<stop offset="0.91" stop-color="#F4C7B9"/>
<stop offset="0.94" stop-color="#F0ADA7"/>
<stop offset="0.98" stop-color="#ED9D9B"/>
<stop offset="1" stop-color="#ED9898"/>
</linearGradient>
<radialGradient id="paint1_radial_129_700" cx="0" cy="0" r="1" gradientUnits="userSpaceOnUse" gradientTransform="translate(9.87282 3.28337) scale(22.99)">
<stop stop-color="#FFA217"/>
<stop offset="0.07" stop-color="#F7871D"/>
<stop offset="0.22" stop-color="#E9572A"/>
<stop offset="0.36" stop-color="#DF3134"/>
<stop offset="0.5" stop-color="#D7163C"/>
<stop offset="0.61" stop-color="#D20540"/>
<stop offset="0.7" stop-color="#D10042"/>
<stop offset="0.99" stop-color="#A60033"/>
</radialGradient>
<radialGradient id="paint2_radial_129_700" cx="0" cy="0" r="1" gradientUnits="userSpaceOnUse" gradientTransform="translate(14.31 11.14) scale(30.23 30.23)">
<stop stop-color="#FFA217"/>
<stop offset="0.07" stop-color="#F7871D"/>
<stop offset="0.22" stop-color="#E9572A"/>
<stop offset="0.36" stop-color="#DF3134"/>
<stop offset="0.5" stop-color="#D7163C"/>
<stop offset="0.61" stop-color="#D20540"/>
<stop offset="0.7" stop-color="#D10042"/>
<stop offset="0.99" stop-color="#A60033"/>
</radialGradient>
<linearGradient id="paint3_linear_129_700" x1="16.19" y1="10.32" x2="16.64" y2="25.95" gradientUnits="userSpaceOnUse">
<stop stop-color="#FCFADE"/>
<stop offset="0.11" stop-color="#FCF9DB"/>
<stop offset="0.19" stop-color="#FCF7D1"/>
<stop offset="0.26" stop-color="#FCF5C1"/>
<stop offset="0.32" stop-color="#FDF1AB"/>
<stop offset="0.38" stop-color="#FDEC8D"/>
<stop offset="0.44" stop-color="#FEE66A"/>
<stop offset="0.46" stop-color="#FFE561"/>
<stop offset="0.63" stop-color="#FFE459"/>
<stop offset="0.68" stop-color="#FEE97B"/>
<stop offset="0.76" stop-color="#FDF2B0"/>
<stop offset="0.82" stop-color="#FCF7D1"/>
<stop offset="0.86" stop-color="#FCFADE"/>
<stop offset="0.87" stop-color="#F9EBD3"/>
<stop offset="0.91" stop-color="#F4C7B9"/>
<stop offset="0.94" stop-color="#F0ADA7"/>
<stop offset="0.98" stop-color="#ED9D9B"/>
<stop offset="1" stop-color="#ED9898"/>
</linearGradient>
<linearGradient id="paint4_linear_129_700" x1="24.42" y1="29.3" x2="4.93" y2="-1.97001" gradientUnits="userSpaceOnUse">
<stop stop-color="#451D0C"/>
<stop offset="0.06" stop-color="#3C190A"/>
<stop offset="0.17" stop-color="#240F06"/>
<stop offset="0.29"/>
<stop offset="0.39" stop-color="#010206"/>
<stop offset="0.53" stop-color="#040818"/>
<stop offset="0.68" stop-color="#081135"/>
<stop offset="0.86" stop-color="#0F1F5D"/>
<stop offset="0.91" stop-color="#12246B"/>
<stop offset="0.96" stop-color="#162D85"/>
</linearGradient>
<linearGradient id="paint5_linear_129_700" x1="13.69" y1="10.03" x2="21.27" y2="28.61" gradientUnits="userSpaceOnUse">
<stop stop-color="#45433C"/>
<stop offset="1" stop-color="#0F0C02"/>
</linearGradient>
<linearGradient id="paint6_linear_129_700" x1="16.23" y1="12.5" x2="16.59" y2="23.01" gradientUnits="userSpaceOnUse">
<stop stop-color="#FCF6AB"/>
<stop offset="0.06" stop-color="#FCEC90"/>
<stop offset="0.19" stop-color="#FDDB60"/>
<stop offset="0.3" stop-color="#FECF3E"/>
<stop offset="0.39" stop-color="#FEC729"/>
<stop offset="0.45" stop-color="#FFC522"/>
<stop offset="0.62" stop-color="#FF8734"/>
<stop offset="0.8" stop-color="#FF4E44"/>
<stop offset="0.93" stop-color="#FF2B4F"/>
<stop offset="1" stop-color="#FF1E53"/>
</linearGradient>
<clipPath id="clip0_129_700">
<rect width="32" height="32" fill="white"/>
</clipPath>
</defs>
</svg>
