<svg width="32" height="32" viewBox="0 0 32 32" fill="none" xmlns="http://www.w3.org/2000/svg">
<g clip-path="url(#clip0_4_46)">
<path d="M3 16L16 0L29 16L16 32L3 16Z" fill="url(#paint0_linear_4_46)"/>
<path d="M15.9984 8.51126V15.987H22.1015L15.9984 8.51126Z" fill="#F7941D"/>
<path d="M15.9984 1.03986V8.5156H22.1015L15.9984 1.03986Z" fill="#F7941D"/>
<path d="M22.1015 15.987L22.1036 8.51289L15.9984 8.51126L22.1015 15.987Z" fill="#FBB040"/>
<path d="M22.1046 8.51451L22.1025 15.9892L28.2077 15.9902L22.1046 8.51451Z" fill="#F7941D"/>
<path d="M16.0016 8.51126V15.987H9.89853L16.0016 8.51126Z" fill="#FBB040"/>
<path d="M16.0016 1.03986V8.5156H9.89853L16.0016 1.03986Z" fill="#F3B930"/>
<path d="M9.89853 15.987L9.89643 8.51289L16.0016 8.51126L9.89853 15.987Z" fill="#F7941D"/>
<path d="M9.89538 8.51451L9.89748 15.9892L3.79234 15.9902L9.89538 8.51451Z" fill="#FBB040"/>
<path d="M16.0016 23.4887V16.013H9.89853L16.0016 23.4887Z" fill="#EE8329"/>
<path d="M16.0016 31.9501V23.4839H9.08995L16.0016 31.9501Z" fill="#EF712B"/>
<path d="M9.89853 16.013L9.89643 23.4871L16.0016 23.4887L9.89853 16.013Z" fill="#F7941D"/>
<path d="M9.89538 23.4849L9.89748 16.0108L3.79234 16.0098L9.89538 23.4849Z" fill="#E98734"/>
<path d="M15.9984 23.4887V16.013H22.1015L15.9984 23.4887Z" fill="#FBB040"/>
<path d="M15.9984 31.9691V23.4839H22.9252L15.9984 31.9691Z" fill="#E35C25"/>
<path d="M22.1015 16.013L22.1036 23.4871L15.9984 23.4887L22.1015 16.013Z" fill="#F48E20"/>
<path d="M22.1046 23.4849L22.1025 16.0108L28.2077 16.0098L22.1046 23.4849Z" fill="#EC7B2C"/>
<path opacity="0.72" d="M15.4721 15.5865H10.4233L10.5201 15.6294L11.1109 15.8905L10.1928 18.4347L10.1059 18.6752H14.6903L14.3352 19.6588C14.2676 19.8425 14.0912 19.9633 13.8838 19.9633H9.52461C8.78517 19.9633 8.22744 19.2328 8.46467 18.5712L8.56312 18.2997L9.56808 15.5248C9.58641 15.4744 9.60735 15.4251 9.62987 15.3768C9.93414 14.7277 10.6018 14.3164 11.3706 14.3164H16.2728L15.9235 15.2826C15.856 15.4663 15.6795 15.5871 15.4721 15.5871V15.5865ZM18.9981 14.3218H18.9944C18.1958 14.3218 17.5061 14.7683 17.2207 15.463C17.2097 15.4896 17.1992 15.5166 17.1898 15.5437L17.0107 16.039L16.885 16.3923C16.6478 17.0534 17.2055 17.7844 17.945 17.7844H21.4254L21.1002 18.6883H16.4017C16.1943 18.6883 16.0178 18.8058 15.9502 18.9895L15.5915 19.973H20.8975C21.7265 19.973 22.4356 19.4951 22.7027 18.7576L23.0226 17.8749C23.1651 17.4777 23.0221 17.054 22.7236 16.7792C22.5257 16.5966 22.2591 16.4796 21.9622 16.4796H18.4854L18.6933 15.8981L18.1377 15.6472L18.0193 15.5936H23.5039C23.7113 15.5936 23.8872 15.4722 23.9553 15.2891L24.3046 14.3229H18.9986L18.9981 14.3218Z" fill="#333333"/>
<path d="M10.7553 14.8588H10.7537L10.7548 14.8556V14.8588H10.7553ZM10.7542 14.8583L10.0672 14.5543H15.116C15.3234 14.5543 15.4994 14.4329 15.5674 14.2497L15.9167 13.2836H11.0145C10.1892 13.2836 9.47958 13.7577 9.2125 14.492L8.10909 17.5389C7.87186 18.2 8.42958 18.931 9.16903 18.931H13.5282C13.7356 18.931 13.9115 18.8096 13.9796 18.6265L14.3347 17.643H9.75032L10.7553 14.8588L10.7542 14.8583ZM18.6415 13.2895H18.6378C17.8088 13.2895 17.0966 13.7707 16.8332 14.5115L16.6541 15.0067L16.5284 15.36C16.2912 16.0211 16.8489 16.7521 17.5883 16.7521H21.0688L20.7436 17.656H16.045C15.8377 17.656 15.6612 17.7736 15.5936 17.9573L15.2349 18.9408H20.5409C21.3699 18.9408 22.079 18.4628 22.346 17.7253L22.666 16.8426C22.9032 16.1815 22.3487 15.4473 21.6055 15.4473H18.1288L18.3367 14.8659L17.6622 14.5613H23.1468C23.3541 14.5613 23.5301 14.4399 23.5982 14.2568L23.9475 13.2906H18.6415V13.2895Z" fill="url(#paint1_linear_4_46)"/>
<path d="M15.9157 13.2836L15.5664 14.2497C15.4988 14.4334 15.3224 14.5543 15.115 14.5543H10.0661L10.7532 14.8583L9.74823 17.6424H14.3326L13.9775 18.6259C13.91 18.8096 13.7335 18.9305 13.5261 18.9305H9.16694C8.42749 18.9305 7.86976 18.2 8.10699 17.5384L9.2104 14.4914C9.47748 13.7572 10.1871 13.283 11.0124 13.283H15.9146M23.9475 13.2895L23.5982 14.2557C23.5306 14.4394 23.3541 14.5602 23.1468 14.5602H17.6622L18.3367 14.8648L18.1288 15.4462H21.6055C22.3487 15.4462 22.9032 16.1804 22.666 16.8415L22.346 17.7243C22.079 18.4617 21.3699 18.9397 20.5409 18.9397H15.2349L15.5936 17.9562C15.6612 17.7725 15.8377 17.6549 16.045 17.6549H20.7436L21.0688 16.751H17.5883C16.8489 16.751 16.2912 16.0206 16.5284 15.359L16.6541 15.0057L16.8332 14.5104C17.0966 13.7696 17.8088 13.2884 18.6378 13.2884H23.9475M10.7548 14.8556V14.8588L10.7537 14.8583L10.7548 14.8556ZM15.9157 13.1752H11.0135C10.142 13.1752 9.39631 13.677 9.11352 14.4535L8.01011 17.5005C7.89333 17.8261 7.94308 18.1865 8.14679 18.4899C8.37774 18.8335 8.75951 19.0388 9.16851 19.0388H13.5277C13.7775 19.0388 13.9927 18.892 14.0765 18.6644L14.4316 17.6804C14.4436 17.6473 14.4389 17.6099 14.4195 17.5807C14.4001 17.5514 14.3677 17.5341 14.3336 17.5341H9.9001L10.8474 14.9103C10.8574 14.8924 10.8616 14.8713 10.86 14.8501V14.8469C10.8558 14.797 10.8197 14.7569 10.7726 14.7488L10.5783 14.6626H15.116C15.3658 14.6626 15.5811 14.5158 15.6648 14.2882L16.0141 13.3215C16.0262 13.2884 16.0215 13.2511 16.0021 13.2218C15.9827 13.1925 15.9503 13.1752 15.9162 13.1752H15.9157ZM23.9475 13.1812H18.6378C17.7606 13.1812 17.0139 13.6889 16.7347 14.4741L16.5562 14.9688L16.4299 15.3227C16.3132 15.6478 16.3629 16.0081 16.5666 16.311C16.7976 16.6546 17.1793 16.86 17.5883 16.86H20.9179L20.6708 17.5471H16.0445C15.7942 17.5471 15.5784 17.6928 15.4952 17.9182L15.1364 18.9018C15.1244 18.9348 15.1286 18.9722 15.1485 19.0015C15.1679 19.0307 15.2003 19.0481 15.2344 19.0481H20.5404C21.4139 19.0481 22.1607 18.5436 22.4434 17.7622L22.7634 16.8795C22.8807 16.5527 22.831 16.1907 22.6262 15.8862C22.3953 15.5427 22.0135 15.3378 21.605 15.3378H18.2786L18.4341 14.9022C18.4535 14.8485 18.4289 14.7884 18.3775 14.7651L18.1628 14.6681H23.1462C23.396 14.6681 23.6113 14.5212 23.6956 14.2936L24.0449 13.3269C24.0569 13.2939 24.0522 13.2565 24.0328 13.2272C24.0135 13.198 23.981 13.1806 23.9469 13.1806L23.9475 13.1812Z" fill="#A63D3A"/>
<g opacity="0.86">
<path opacity="0.76" d="M15.6156 25.5896C15.6156 24.5958 15.0275 23.932 13.9058 23.932H12.7694V27.2472H13.9058C15.0275 27.2472 15.6156 26.5834 15.6156 25.5896ZM13.3962 24.5356H13.9058C14.6457 24.5356 14.9788 24.9464 14.9788 25.5901C14.9788 26.2339 14.6457 26.6495 13.9058 26.6495H13.3962V24.5356Z" fill="#333333"/>
<path opacity="0.76" d="M17.9382 26.2539H19.5008V27.2477H19.8611L20.1277 26.9194V25.3062C20.1277 24.4191 19.6281 23.8664 18.7216 23.8664C17.8151 23.8664 17.3255 24.4191 17.3255 25.3062V27.2477H17.9376V26.2539H17.9382ZM17.9382 25.3057C17.9382 24.7735 18.1927 24.469 18.7174 24.469C19.2421 24.469 19.5014 24.773 19.5014 25.3057V25.6655H17.9387V25.3057H17.9382Z" fill="#333333"/>
<path opacity="0.76" d="M21.2646 25.5202V25.2504C21.2646 24.7589 21.5097 24.4695 21.9994 24.4695C22.0392 24.4695 22.0763 24.4722 22.113 24.476L22.5414 23.9488C22.3822 23.8951 22.2015 23.8664 21.9994 23.8664C21.1222 23.8664 20.6372 24.3986 20.6372 25.2504V26.2924L21.2641 25.5208L21.2646 25.5202Z" fill="#333333"/>
<path opacity="0.76" d="M16.7421 23.932H16.1152V27.2472H16.7421V23.932Z" fill="#333333"/>
<path opacity="0.76" d="M10.1269 24.7714C10.2515 24.5757 10.4662 24.4695 10.7752 24.4695C11.3041 24.4695 11.5591 24.7735 11.5591 25.3062V25.666H10.8537L11.3313 26.2539H11.5586V26.5341L12.1383 27.2477H12.1855V25.3062C12.1855 24.4191 11.6859 23.8664 10.7794 23.8664C10.3138 23.8664 9.95823 24.0127 9.72257 24.2745L10.1263 24.7714H10.1269Z" fill="#333333"/>
</g>
<path d="M24.225 26.7947V24.0826H23.2698V23.2628H26.0171V24.0826H25.0619V26.7947H24.2255H24.225ZM22.3586 26.7947V24.689C22.3586 24.243 22.1465 24.0165 21.7286 24.0165C21.3107 24.0165 21.0986 24.2425 21.0986 24.689V26.7947H20.2623V24.689C20.2623 23.7548 20.8106 23.1967 21.7291 23.1967C22.6477 23.1967 23.196 23.7548 23.196 24.689V26.7947H22.3597H22.3586ZM19.1248 26.7947V25.8009H17.7716V26.7947H16.95V24.7448C16.95 23.7754 17.5108 23.1967 18.4509 23.1967C19.3909 23.1967 19.9617 23.7754 19.9617 24.7448V26.7947H19.1254H19.1248ZM19.1248 24.9962V24.7448C19.1248 24.255 18.9028 24.0165 18.4456 24.0165C17.9884 24.0165 17.7711 24.255 17.7711 24.7448V24.9962H19.1243H19.1248ZM15.7392 26.7947V23.2628H16.5755V26.7947H15.7392ZM12.3928 26.7947V23.2628H13.634C14.7704 23.2628 15.4486 23.9228 15.4486 25.0288C15.4486 26.1347 14.7704 26.7947 13.634 26.7947H12.3928ZM13.6345 25.9797C14.2771 25.9797 14.6028 25.6595 14.6028 25.0288C14.6028 24.398 14.2771 24.0826 13.6345 24.0826H13.2297V25.9797H13.6345ZM11.1826 26.7947V25.8009H9.8294V26.7947H9.00773V24.7448C9.00773 23.7754 9.5686 23.1967 10.5086 23.1967C11.4486 23.1967 12.0195 23.7754 12.0195 24.7448V26.7947H11.1831H11.1826ZM11.1826 24.9962V24.7448C11.1826 24.255 10.9606 24.0165 10.5034 24.0165C10.0462 24.0165 9.8294 24.255 9.8294 24.7448V24.9962H11.1826ZM7.95198 26.7947L7.27119 25.6747H6.85591V26.7947H6.01958V23.2628H7.46652C8.26515 23.2628 8.74223 23.7125 8.74223 24.4663C8.74223 24.98 8.5249 25.3588 8.12689 25.5468L8.9538 26.7953H7.95251L7.95198 26.7947ZM7.47595 24.8543C7.76922 24.8543 7.90014 24.7345 7.90014 24.4657C7.90014 24.2875 7.85196 24.0826 7.47595 24.0826H6.85538V24.8543H7.47595Z" fill="#A73D3B"/>
<path d="M6.12379 23.3706H7.466C8.27929 23.3706 8.63696 23.8317 8.63696 24.4657C8.63696 24.9881 8.39712 25.3479 7.9656 25.4948L8.75427 26.6858H8.00959L7.32879 25.5658H6.75064V26.6858H6.12379V23.3706ZM7.47595 24.9626C7.87291 24.9626 8.00487 24.7497 8.00487 24.4657C8.00487 24.1818 7.87238 23.9743 7.47595 23.9743H6.75064V24.9626H7.47595ZM9.11247 24.7448C9.11247 23.8578 9.60264 23.305 10.5086 23.305C11.4146 23.305 11.9147 23.8578 11.9147 24.7448V26.6864H11.2879V25.6926H9.72518V26.6864H9.113V24.7448H9.11247ZM11.2873 25.1046V24.7448C11.2873 24.2127 11.0323 23.9082 10.5034 23.9082C9.97446 23.9082 9.72466 24.2121 9.72466 24.7448V25.1046H11.2873ZM12.4976 23.3706H13.634C14.7557 23.3706 15.3438 24.0344 15.3438 25.0282C15.3438 26.022 14.7557 26.6858 13.634 26.6858H12.4976V23.3706ZM13.6345 26.0881C14.3745 26.0881 14.7075 25.6725 14.7075 25.0288C14.7075 24.385 14.3745 23.9743 13.6345 23.9743H13.125V26.0881H13.6345ZM15.8439 23.3706H16.4708V26.6858H15.8439V23.3706ZM17.0542 24.7448C17.0542 23.8578 17.5444 23.305 18.4503 23.305C19.3563 23.305 19.8564 23.8578 19.8564 24.7448V26.6864H19.2296V25.6926H17.6669V26.6864H17.0547V24.7448H17.0542ZM19.2296 25.1046V24.7448C19.2296 24.2127 18.9751 23.9082 18.4456 23.9082C17.9162 23.9082 17.6664 24.2121 17.6664 24.7448V25.1046H19.2291H19.2296ZM20.3665 24.689C20.3665 23.8372 20.8514 23.305 21.7286 23.305C22.6058 23.305 23.0907 23.8372 23.0907 24.689V26.6864H22.4639V24.689C22.4639 24.1975 22.2188 23.9082 21.7291 23.9082C21.2395 23.9082 20.9944 24.197 20.9944 24.689V26.6864H20.3675V24.689H20.3665ZM24.3298 23.9743H23.3746V23.3712H25.9123V23.9743H24.9571V26.6864H24.3303V23.9743H24.3298Z" fill="url(#paint2_linear_4_46)"/>
<path d="M8.8412 22.8325L3.27389 16L16 0.337048L28.7261 16L23.2772 22.7626H22.7299L28.1789 16L16 1.0106L3.82114 16L9.38845 22.8325H8.8412ZM19.0002 27.2813L16 30.9894L13.0234 27.3236H12.4761L16 31.663L19.5475 27.2813H19.0002Z" fill="url(#paint3_linear_4_46)"/>
</g>
<defs>
<linearGradient id="paint0_linear_4_46" x1="16.2226" y1="26.2388" x2="15.7432" y2="5.65143" gradientUnits="userSpaceOnUse">
<stop stop-color="#F4AF64"/>
<stop offset="0.42" stop-color="#E08944"/>
<stop offset="0.78" stop-color="#D2702F"/>
<stop offset="1" stop-color="#CE6728"/>
</linearGradient>
<linearGradient id="paint1_linear_4_46" x1="17.4826" y1="25.3468" x2="15.5856" y2="13.7083" gradientUnits="userSpaceOnUse">
<stop stop-color="#B53826"/>
<stop offset="0.3" stop-color="#C97548"/>
<stop offset="0.63" stop-color="#DDB26A"/>
<stop offset="0.87" stop-color="#EAD77F"/>
<stop offset="1" stop-color="#EFE687"/>
</linearGradient>
<linearGradient id="paint2_linear_4_46" x1="16.0178" y1="30.5797" x2="16.0178" y2="23.5776" gradientUnits="userSpaceOnUse">
<stop stop-color="#B53826"/>
<stop offset="0.3" stop-color="#C97548"/>
<stop offset="0.63" stop-color="#DDB26A"/>
<stop offset="0.87" stop-color="#EAD77F"/>
<stop offset="1" stop-color="#EFE687"/>
</linearGradient>
<linearGradient id="paint3_linear_4_46" x1="14.949" y1="-0.50828" x2="17.0397" y2="30.1607" gradientUnits="userSpaceOnUse">
<stop offset="0.29" stop-color="#DADA8C"/>
<stop offset="1" stop-color="#FAAE7B"/>
</linearGradient>
<clipPath id="clip0_4_46">
<rect width="26" height="32" fill="white" transform="translate(3)"/>
</clipPath>
</defs>
</svg>
