<svg width="32" height="32" viewBox="0 0 32 32" fill="none" xmlns="http://www.w3.org/2000/svg">
<g clip-path="url(#clip0_33_74)">
<g clip-path="url(#clip1_33_74)">
<path d="M31.67 15.83C31.67 24.58 24.58 31.66 15.84 31.66C7.1 31.66 0 24.58 0 15.83C0 7.08 7.09 0 15.83 0C24.57 0 31.66 7.09 31.66 15.83H31.67Z" fill="url(#paint0_linear_33_74)"/>
<path d="M15.83 29.14C8.48 29.14 2.53 23.18 2.53 15.84C2.53 8.5 8.49 2.53 15.83 2.53C23.17 2.53 29.13 8.49 29.13 15.83C29.13 23.17 23.17 29.13 15.83 29.13V29.14Z" fill="url(#paint1_linear_33_74)"/>
<path d="M28.19 17.33L27.75 17.13C24.18 15.65 20.01 14.87 15.7 14.87C11.39 14.87 7.22001 15.65 3.65001 17.13L3.48001 17.21C4.76001 16.5 6.65001 15.74 8.83001 15.27C9.37001 15.15 10.67 14.92 10.67 14.92C11.67 14.76 12.67 14.64 13.64 14.57L7.87001 12.33L14.13 13.99C14.13 13.99 14.14 13.97 14.15 13.95L11.34 11.7L14.35 13.61L10.87 8.21L14.89 13.15C14.89 13.15 14.93 13.13 14.95 13.12L14.02 9.72L15.32 12.99C15.32 12.99 15.35 12.99 15.36 12.98L15.71 6.64L16.05 12.98C16.05 12.98 16.08 12.98 16.1 12.99L17.34 9.69L16.46 13.12C16.46 13.12 16.5 13.14 16.52 13.15L20.54 8.21L17.06 13.58L20.04 11.61L17.24 13.93C17.24 13.93 17.25 13.96 17.26 13.97L23.52 12.31L17.75 14.54C19.32 14.65 20.97 14.89 22.55 15.24C24.82 15.73 26.89 16.58 28.17 17.31L28.19 17.33Z" fill="url(#paint2_linear_33_74)"/>
<path d="M9.16001 20.55H10.16C10.16 20.55 10.17 20.63 10.17 20.74C10.17 21.28 9.82001 21.68 9.24001 21.68C8.66001 21.68 8.26001 21.27 8.26001 20.68C8.26001 20.09 8.67001 19.68 9.24001 19.68C9.59001 19.68 9.86001 19.83 10.03 20.08L9.72001 20.33C9.62001 20.17 9.44001 20.07 9.24001 20.07C8.92001 20.07 8.71001 20.31 8.71001 20.67C8.71001 21.03 8.92001 21.27 9.24001 21.27C9.50001 21.27 9.66001 21.14 9.72001 20.94H9.17001V20.55H9.16001ZM11.19 19.71H12.34V20.1H11.64V20.47H12.28V20.86H11.64V21.24H12.35V21.64H11.19V19.71ZM14.56 21.64L13.87 20.53H13.86V21.64H13.43V19.71H13.89L14.57 20.82H14.58V19.71H15.01V21.64H14.56ZM16.14 19.71H17.29V20.1H16.59V20.47H17.23V20.86H16.59V21.24H17.3V21.64H16.14V19.71ZM18.89 20.36L19.25 20.58C19.41 20.68 19.56 20.83 19.56 21.11C19.56 21.45 19.3 21.68 18.92 21.68C18.51 21.68 18.31 21.43 18.26 21.13L18.65 20.98C18.67 21.1 18.75 21.28 18.92 21.28C19.04 21.28 19.09 21.2 19.09 21.12C19.09 21.05 19.06 20.99 18.96 20.93L18.64 20.74C18.49 20.65 18.31 20.54 18.31 20.23C18.31 19.94 18.53 19.68 18.9 19.68C19.25 19.68 19.44 19.85 19.53 20.14L19.14 20.28C19.07 20.11 18.98 20.07 18.89 20.07C18.81 20.07 18.74 20.12 18.74 20.2C18.74 20.28 18.79 20.33 18.86 20.37L18.89 20.36ZM20.62 19.71H21.07V21.64H20.62V19.71ZM22.73 20.36L23.09 20.58C23.25 20.68 23.4 20.83 23.4 21.11C23.4 21.45 23.14 21.68 22.76 21.68C22.35 21.68 22.15 21.43 22.1 21.13L22.49 20.98C22.51 21.1 22.59 21.28 22.76 21.28C22.88 21.28 22.93 21.2 22.93 21.12C22.93 21.05 22.9 20.99 22.8 20.93L22.48 20.74C22.33 20.65 22.15 20.54 22.15 20.23C22.15 19.94 22.37 19.68 22.74 19.68C23.09 19.68 23.28 19.85 23.37 20.14L22.98 20.28C22.91 20.11 22.82 20.07 22.73 20.07C22.65 20.07 22.58 20.12 22.58 20.2C22.58 20.28 22.63 20.33 22.7 20.37L22.73 20.36Z" fill="url(#paint3_linear_33_74)"/>
</g>
</g>
<defs>
<linearGradient id="paint0_linear_33_74" x1="8.85" y1="-14.1" x2="21.11" y2="38.48" gradientUnits="userSpaceOnUse">
<stop offset="0.37" stop-color="#F7F8F9"/>
<stop offset="0.84" stop-color="#D8C5A1"/>
</linearGradient>
<linearGradient id="paint1_linear_33_74" x1="9.97" y1="-9.31" x2="20.27" y2="34.86" gradientUnits="userSpaceOnUse">
<stop stop-color="white"/>
<stop offset="0.24" stop-color="#524F4F"/>
<stop offset="0.9" stop-color="#1A1A19"/>
<stop offset="1"/>
</linearGradient>
<linearGradient id="paint2_linear_33_74" x1="12.06" y1="1.1" x2="17.19" y2="23.08" gradientUnits="userSpaceOnUse">
<stop offset="0.37" stop-color="#F7F8F9"/>
<stop offset="0.84" stop-color="#D8C5A1"/>
</linearGradient>
<linearGradient id="paint3_linear_33_74" x1="14.25" y1="10.94" x2="16.32" y2="23.45" gradientUnits="userSpaceOnUse">
<stop offset="0.37" stop-color="#F7F8F9"/>
<stop offset="0.84" stop-color="#D8C5A1"/>
</linearGradient>
<clipPath id="clip0_33_74">
<rect width="32" height="32" fill="white"/>
</clipPath>
<clipPath id="clip1_33_74">
<rect width="31.67" height="31.67" fill="white"/>
</clipPath>
</defs>
</svg>
