<svg width="32" height="32" viewBox="0 0 32 32" fill="none" xmlns="http://www.w3.org/2000/svg">
<g clip-path="url(#clip0_6_151)">
<g clip-path="url(#clip1_6_151)">
<path d="M26.63 26.76L15.86 27.49L5.27 26.76L4.53 16.15L5.27 5.4L15.82 4.67L26.63 5.4L27.36 16.08L26.63 26.76Z" fill="url(#paint0_linear_6_151)"/>
<path d="M26.73 5.27L23.83 5.06L15.77 4.53H15.76L5.03001 5.27L4.29001 16.19L5.03001 26.97L15.78 27.71H15.79L26.73 26.97L27.47 16.13L26.73 5.26V5.27ZM26.66 22.62L25.91 21.87L25.65 22.13L26.63 23.11L26.57 23.97L25.19 22.59L24.93 22.85L26.54 24.46L26.49 25.16L24.58 23.25L24.32 23.51L26.46 25.65L26.4 26.46L23.87 23.93L23.61 24.19L26.08 26.66L25.38 26.71L23.24 24.57L22.98 24.83L24.89 26.74L24.07 26.8L22.53 25.26L22.27 25.52L23.58 26.83L22.8 26.88L21.88 25.96L21.62 26.22L22.31 26.91L15.78 27.35L9.53001 26.92L10.15 26.3L9.89001 26.04L9.04001 26.89L8.26001 26.84L9.50001 25.6L9.24001 25.34L7.78001 26.8L6.96001 26.74L8.80001 24.9L8.54001 24.64L6.47001 26.71L5.78001 26.66L8.18001 24.26L7.92001 24L5.37001 26.55L5.31001 25.75L7.47001 23.59L7.21001 23.33L5.28001 25.26L5.23001 24.56L6.85001 22.94L6.59001 22.68L5.19001 24.08L5.13001 23.22L6.13001 22.22L5.87001 21.96L5.10001 22.73L4.65001 16.2L5.09001 9.71L5.80001 10.42L6.06001 10.16L5.12001 9.22L5.18001 8.36L6.52001 9.7L6.78001 9.44L5.22001 7.88L5.27001 7.18L7.14001 9.05L7.40001 8.79L5.30001 6.69L5.35001 5.89L7.84001 8.38L8.10001 8.12L5.60001 5.62L6.29001 5.57L8.46001 7.74L8.72001 7.48L6.78001 5.54L7.60001 5.48L9.16001 7.04L9.42001 6.78L8.08001 5.44L8.86001 5.39L9.81001 6.34L10.07 6.08L9.35001 5.36L15.74 4.92L22.19 5.36L21.54 6.01L21.8 6.27L22.68 5.39L23.46 5.44L22.2 6.7L22.46 6.96L23.95 5.47L24.77 5.53L22.9 7.4L23.16 7.66L25.26 5.56L25.96 5.61L23.53 8.04L23.79 8.3L26.38 5.71L26.44 6.49L24.24 8.71L24.5 8.97L26.47 7L26.52 7.7L24.85 9.37L25.11 9.63L26.55 8.19L26.61 9.05L25.57 10.09L25.83 10.35L26.64 9.54L27.09 16.15L26.65 22.65L26.66 22.62Z" fill="url(#paint1_linear_6_151)"/>
<path d="M15.78 27.75H15.77L4.98999 27V26.97L4.23999 16.18L4.97999 5.23H5.00999L15.74 4.48H15.75L23.81 5.02L26.74 5.23L27.49 16.11L26.75 26.99H26.72L15.77 27.74L15.78 27.75ZM5.04999 26.95L15.78 27.69L26.7 26.95L27.44 16.14L26.7 5.3L23.82 5.09L15.76 4.56H15.75L5.04999 5.3L4.30999 16.19L5.04999 26.95ZM15.78 27.38L9.45999 26.94L10.11 26.29L9.88999 26.07L9.04999 26.91L8.18999 26.85L9.44999 25.59L9.22999 25.37L7.77999 26.82L6.87999 26.76L8.73999 24.9L8.51999 24.68L6.45999 26.74L5.68999 26.69L8.10999 24.27L7.88999 24.05L5.31999 26.62L5.25999 25.74L7.40999 23.59L7.18999 23.37L5.23999 25.32L5.18999 24.54L6.79999 22.93L6.57999 22.71L5.15999 24.13L5.09999 23.19L6.07999 22.21L5.85999 21.99L5.06999 22.78L4.61999 16.19L5.06999 9.63L5.79999 10.36L6.01999 10.14L5.09999 9.22L5.15999 8.28L6.51999 9.64L6.73999 9.42L5.18999 7.87L5.23999 7.09L7.12999 8.98L7.34999 8.76L5.25999 6.67L5.31999 5.79L7.82999 8.3L8.04999 8.08L5.52999 5.56L6.29999 5.51L8.45999 7.67L8.67999 7.45L6.71999 5.49L7.61999 5.43L9.15999 6.98L9.37999 6.76L8.01999 5.4L8.87999 5.34L9.81999 6.28L10.04 6.06L9.28999 5.31L15.75 4.86L22.26 5.3L21.58 5.98L21.8 6.2L22.67 5.33L23.53 5.39L22.24 6.68L22.46 6.9L23.94 5.42L24.84 5.48L22.95 7.37L23.17 7.59L25.26 5.5L26.03 5.55L23.57 8.01L23.79 8.23L26.41 5.61L26.47 6.47L24.28 8.68L24.5 8.9L26.5 6.9L26.55 7.68L24.9 9.34L25.12 9.56L26.59 8.09L26.65 9.03L25.62 10.06L25.84 10.28L26.68 9.44L27.14 16.12L26.69 22.68L25.91 21.9L25.69 22.12L26.66 23.09L26.6 24.03L25.2 22.63L24.98 22.85L26.58 24.45L26.53 25.23L24.59 23.29L24.37 23.51L26.5 25.64L26.44 26.52L23.88 23.96L23.66 24.18L26.16 26.68L25.39 26.73L23.27 24.6L23.05 24.82L24.99 26.76L24.09 26.82L22.57 25.3L22.35 25.52L23.68 26.85L22.82 26.91L21.91 26L21.69 26.22L22.41 26.94L15.82 27.39L15.78 27.38ZM9.59999 26.89L15.78 27.32L22.24 26.88L21.57 26.21L21.87 25.91L22.8 26.84L23.5 26.79L22.22 25.51L22.52 25.21L24.07 26.76L24.81 26.71L22.92 24.82L23.22 24.52L25.37 26.67L25.99 26.63L23.54 24.18L23.84 23.88L26.35 26.39L26.4 25.66L24.25 23.51L24.55 23.21L26.44 25.1L26.48 24.48L24.86 22.86L25.16 22.56L26.51 23.91L26.56 23.13L25.57 22.14L25.87 21.84L26.6 22.57L27.04 16.14L26.59 9.6L25.8 10.39L25.5 10.09L26.55 9.04L26.5 8.26L25.08 9.68L24.78 9.38L26.46 7.7L26.42 7.08L24.47 9.03L24.17 8.73L26.38 6.49L26.33 5.79L23.76 8.36L23.46 8.06L25.86 5.66L25.24 5.62L23.13 7.73L22.83 7.43L24.67 5.59L23.93 5.54L22.43 7.04L22.13 6.74L23.37 5.5L22.67 5.45L21.78 6.34L21.48 6.04L22.11 5.41L15.73 4.98L9.40999 5.42L10.11 6.12L9.80999 6.42L8.84999 5.46L8.14999 5.51L9.45999 6.82L9.15999 7.12L7.57999 5.54L6.83999 5.59L8.74999 7.5L8.44999 7.8L6.26999 5.62L5.64999 5.66L8.11999 8.13L7.81999 8.43L5.35999 5.97L5.30999 6.69L7.41999 8.8L7.11999 9.1L5.27999 7.26L5.23999 7.88L6.81999 9.45L6.51999 9.75L5.20999 8.44L5.15999 9.22L6.10999 10.17L5.80999 10.47L5.12999 9.79L4.68999 16.21L5.13999 22.67L5.87999 21.93L6.17999 22.23L5.16999 23.24L5.21999 24.02L6.58999 22.65L6.88999 22.95L5.25999 24.58L5.29999 25.2L7.19999 23.3L7.49999 23.6L5.32999 25.77L5.37999 26.49L7.89999 23.97L8.19999 24.27L5.82999 26.64L6.44999 26.68L8.52999 24.6L8.82999 24.9L7.01999 26.71L7.75999 26.76L9.23999 25.28L9.53999 25.58L8.32999 26.79L9.02999 26.84L9.88999 25.98L10.19 26.28L9.58999 26.88L9.59999 26.89Z" fill="url(#paint2_linear_6_151)"/>
<path d="M15.8694 31.9238L31.6732 16.12L15.8694 0.316168L0.0655168 16.12L15.8694 31.9238Z" fill="url(#paint3_linear_6_151)"/>
<path d="M15.87 0.32L31.68 16.13L15.87 31.94L0.07 16.12L15.87 0.32ZM15.87 0.25L15.84 0.28L0.03 16.09L0 16.12L0.03 16.15L15.84 31.96L15.87 31.99L15.9 31.96L31.71 16.15L31.74 16.12L31.71 16.09L15.91 0.28L15.88 0.25H15.87Z" fill="url(#paint4_linear_6_151)"/>
<path d="M30.9384 16.1306L15.87 1.06219L0.801549 16.1306L15.87 31.1991L30.9384 16.1306Z" fill="url(#paint5_linear_6_151)"/>
<path d="M6.91 13.77L15.93 4.75L24.95 13.77H6.91ZM6.96 18.54L15.93 27.51L24.9 18.54H6.96Z" fill="url(#paint6_linear_6_151)"/>
<path d="M9.57001 15.71C9.57001 15.71 9.52001 15.74 9.49001 15.74H9.20001C9.20001 15.74 9.14001 15.73 9.12001 15.71C9.10001 15.69 9.09001 15.66 9.09001 15.63V15.42C9.09001 15.42 9.08001 15.36 9.06001 15.34C9.04001 15.32 9.01001 15.31 8.98001 15.31H8.55001C8.55001 15.31 8.49001 15.32 8.47001 15.34C8.45001 15.36 8.44001 15.39 8.44001 15.42V16.98C8.44001 16.98 8.45001 17.04 8.47001 17.06C8.49001 17.08 8.52001 17.09 8.55001 17.09H8.89001C8.89001 17.09 8.95001 17.1 8.97001 17.12C8.99001 17.14 9.00001 17.17 9.00001 17.2V17.48C9.00001 17.48 8.99001 17.54 8.97001 17.56C8.95001 17.58 8.92001 17.59 8.89001 17.59H7.44001C7.44001 17.59 7.38001 17.58 7.36001 17.56C7.34001 17.54 7.33001 17.51 7.33001 17.48V17.2C7.33001 17.2 7.34001 17.14 7.36001 17.12C7.38001 17.1 7.41001 17.09 7.44001 17.09H7.78001C7.78001 17.09 7.84001 17.08 7.86001 17.06C7.88001 17.04 7.89001 17.01 7.89001 16.98V15.42C7.89001 15.42 7.88001 15.36 7.86001 15.34C7.84001 15.32 7.81001 15.31 7.78001 15.31H7.35001C7.35001 15.31 7.29001 15.32 7.27001 15.34C7.25001 15.36 7.24001 15.39 7.24001 15.42V15.63C7.24001 15.63 7.23001 15.69 7.21001 15.71C7.19001 15.73 7.16001 15.74 7.13001 15.74H6.84001C6.84001 15.74 6.78001 15.73 6.76001 15.71C6.74001 15.69 6.73001 15.66 6.73001 15.63V14.92C6.73001 14.92 6.74001 14.86 6.76001 14.84C6.78001 14.82 6.81001 14.81 6.84001 14.81H9.52001C9.52001 14.81 9.58001 14.82 9.60001 14.84C9.62001 14.86 9.63001 14.89 9.63001 14.92V15.63C9.63001 15.63 9.62001 15.69 9.60001 15.71H9.57001ZM13.6 17.48C13.6 17.48 13.59 17.54 13.57 17.56C13.55 17.58 13.52 17.59 13.49 17.59H13.16C13.16 17.59 13.1 17.58 13.08 17.56C13.06 17.54 13.05 17.51 13.05 17.48V17.07C13.05 16.98 13.02 16.9 12.97 16.84C12.92 16.78 12.85 16.75 12.77 16.75H11.34C11.34 16.75 11.29 16.76 11.27 16.78C11.25 16.8 11.24 16.83 11.24 16.85V17.48C11.24 17.48 11.23 17.54 11.21 17.56C11.19 17.58 11.16 17.59 11.13 17.59H10.8C10.8 17.59 10.74 17.58 10.72 17.56C10.7 17.54 10.69 17.51 10.69 17.48V14.92C10.69 14.92 10.7 14.86 10.72 14.84C10.74 14.82 10.77 14.81 10.8 14.81H12.52C12.63 14.81 12.74 14.83 12.85 14.88C12.95 14.92 13.04 14.98 13.12 15.06C13.2 15.13 13.26 15.22 13.3 15.32C13.34 15.42 13.37 15.53 13.37 15.64V15.93C13.37 16.01 13.36 16.09 13.33 16.17C13.31 16.25 13.27 16.32 13.23 16.38C13.35 16.45 13.44 16.55 13.52 16.67C13.59 16.79 13.63 16.93 13.63 17.08V17.49L13.6 17.48ZM12.78 15.63C12.78 15.54 12.75 15.46 12.7 15.4C12.65 15.34 12.58 15.31 12.5 15.31H11.23V16.14C11.23 16.14 11.24 16.2 11.26 16.22C11.28 16.24 11.31 16.25 11.34 16.25H12.51C12.59 16.25 12.65 16.22 12.71 16.16C12.76 16.1 12.79 16.02 12.79 15.93V15.63H12.78ZM17.47 17.48C17.47 17.48 17.46 17.54 17.44 17.56C17.42 17.58 17.39 17.59 17.36 17.59H17.03C17.03 17.59 16.97 17.58 16.95 17.56C16.93 17.54 16.92 17.51 16.92 17.48V17.14C16.92 17.14 16.91 17.08 16.89 17.06C16.87 17.04 16.84 17.03 16.81 17.03H15.36C15.36 17.03 15.3 17.04 15.28 17.06C15.26 17.08 15.25 17.11 15.25 17.14V17.48C15.25 17.48 15.24 17.54 15.22 17.56C15.2 17.58 15.17 17.59 15.14 17.59H14.81C14.81 17.59 14.75 17.58 14.73 17.56C14.71 17.54 14.7 17.51 14.7 17.48V16.17C14.7 15.97 14.74 15.78 14.81 15.61C14.88 15.44 14.98 15.28 15.11 15.16C15.24 15.03 15.38 14.93 15.55 14.86C15.72 14.79 15.9 14.75 16.09 14.75C16.28 14.75 16.46 14.79 16.63 14.86C16.8 14.93 16.95 15.04 17.07 15.16C17.2 15.29 17.3 15.44 17.37 15.61C17.44 15.78 17.48 15.97 17.48 16.17V17.48H17.47ZM16.91 16.18C16.91 16.05 16.89 15.93 16.84 15.82C16.8 15.71 16.74 15.61 16.66 15.53C16.58 15.45 16.5 15.38 16.39 15.33C16.29 15.28 16.18 15.26 16.06 15.26C15.94 15.26 15.84 15.28 15.74 15.33C15.64 15.38 15.55 15.44 15.48 15.52C15.4 15.6 15.34 15.7 15.3 15.81C15.26 15.92 15.23 16.04 15.23 16.17V16.41C15.23 16.41 15.24 16.47 15.26 16.49C15.28 16.51 15.31 16.52 15.34 16.52H16.79C16.79 16.52 16.85 16.51 16.87 16.49C16.89 16.47 16.9 16.44 16.9 16.41V16.18H16.91ZM21.1 17.56C21.1 17.56 21.05 17.59 21.02 17.59H18.46C18.46 17.59 18.4 17.58 18.38 17.56C18.36 17.54 18.35 17.51 18.35 17.48V17.2C18.35 17.2 18.36 17.14 18.38 17.12C18.4 17.1 18.43 17.09 18.46 17.09H19.35C19.35 17.09 19.41 17.08 19.43 17.06C19.45 17.04 19.46 17.01 19.46 16.98V15.42C19.46 15.42 19.45 15.36 19.43 15.34C19.41 15.32 19.38 15.31 19.35 15.31H18.46C18.46 15.31 18.4 15.3 18.38 15.28C18.36 15.26 18.35 15.23 18.35 15.2V14.92C18.35 14.92 18.36 14.86 18.38 14.84C18.4 14.82 18.43 14.81 18.46 14.81H21.02C21.02 14.81 21.08 14.82 21.1 14.84C21.12 14.86 21.13 14.89 21.13 14.92V15.2C21.13 15.2 21.12 15.26 21.1 15.28C21.08 15.3 21.05 15.31 21.02 15.31H20.13C20.13 15.31 20.07 15.32 20.05 15.34C20.03 15.36 20.02 15.39 20.02 15.42V16.98C20.02 16.98 20.03 17.04 20.05 17.06C20.07 17.08 20.1 17.09 20.13 17.09H21.02C21.02 17.09 21.08 17.1 21.1 17.12C21.12 17.14 21.13 17.17 21.13 17.2V17.48C21.13 17.48 21.12 17.54 21.1 17.56ZM25.01 17.56C25.01 17.56 24.96 17.59 24.93 17.59H24.55C24.55 17.59 24.49 17.58 24.47 17.55L22.8 15.63V17.47C22.8 17.47 22.79 17.53 22.77 17.55C22.75 17.57 22.72 17.58 22.69 17.58H22.36C22.36 17.58 22.3 17.57 22.28 17.55C22.26 17.53 22.25 17.5 22.25 17.47V14.91C22.25 14.91 22.26 14.85 22.28 14.83C22.3 14.81 22.33 14.8 22.36 14.8H22.77C22.77 14.8 22.83 14.81 22.86 14.84L24.48 16.72V14.92C24.48 14.92 24.49 14.86 24.51 14.84C24.53 14.82 24.56 14.81 24.59 14.81H24.92C24.92 14.81 24.98 14.82 25 14.84C25.02 14.86 25.03 14.89 25.03 14.92V17.48C25.03 17.48 25.02 17.54 25 17.56H25.01Z" fill="url(#paint7_linear_6_151)"/>
<path d="M15.87 2.16L1.91 16.12L15.87 30.08L29.83 16.12L15.87 2.16ZM2.2 16.12L15.87 2.45L29.55 16.13L15.87 29.81L2.2 16.12Z" fill="url(#paint8_linear_6_151)"/>
<path d="M15.87 22.61L14.58 23.55L15.03 22L13.77 21.08L15.35 21.01L15.87 19.56L16.39 21.01L17.97 21.08L16.72 22L17.17 23.55L15.87 22.61Z" fill="url(#paint9_linear_6_151)"/>
<path d="M15.87 19.56L16.39 21.01L17.97 21.09L16.71 22.01L17.16 23.56L15.86 22.62L14.56 23.56L15.01 22.01L13.75 21.09L15.33 21.01L15.85 19.56M15.85 19.26L15.76 19.52L15.26 20.91L13.75 20.98H13.47L13.7 21.16L14.9 22.03L14.47 23.52L14.39 23.8L14.63 23.63L15.87 22.73L17.11 23.63L17.35 23.8L17.27 23.52L16.84 22.03L18.04 21.16L18.27 20.99H17.99L16.48 20.9L15.98 19.51L15.89 19.25L15.85 19.26Z" fill="url(#paint10_linear_6_151)"/>
<path opacity="0.61" d="M19.24 10.25L19.57 10.45L19.43 10.54H19.24V10.25ZM19.24 8.54V8.61L19.32 8.66L19.51 8.55H19.25L19.24 8.54ZM19.24 9.37H19.92L19.33 9L19.24 9.06V9.37ZM18.04 8.93H18.15V8.73L18.04 8.66V8.93ZM19.82 10.29L19.96 10.21V10.01H19.36L19.82 10.29ZM18.04 8.55L18.16 8.62V8.54H18.04V8.55ZM20.96 10.53V10.43H20.79L20.96 10.53ZM20.25 8.65L20.41 8.75V8.54H20.25V8.65ZM18.04 9.29L18.15 9.22V9.01H18.04V9.29ZM20.25 9.23L20.41 9.33V9.06L20.25 8.96V9.23ZM20.25 9.62V9.74H20.41V9.67L20.32 9.62H20.25ZM19.61 8.84L19.96 9.06V8.79L19.82 8.71L19.61 8.84ZM20.96 10.34V10.24L20.79 10.34H20.96ZM19.24 9.62V9.74H19.96V9.62H19.24ZM20.25 10.54H20.41V10.43L20.25 10.53V10.54ZM17.28 9.25H17.84L17.28 8.9V9.25ZM17.28 10.34H17.85L17.28 9.99V10.34ZM17.9 10.54V10.52L17.87 10.54H17.9ZM17.28 9.7L17.85 9.35H17.28V9.7ZM17.28 10.54H17.68L17.85 10.43H17.28V10.54ZM17.9 10.25V9.88H17.31L17.9 10.25ZM17.9 9.16V8.8H17.31L17.9 9.16ZM17.28 8.53V8.6L17.39 8.53H17.28ZM18.04 10.51L18.07 10.53H18.13V10.49H18.04V10.51ZM18.04 10.38V10.41H18.13V10.37L18.1 10.35L18.04 10.39V10.38ZM18.04 9.42H18.07L18.14 9.38V9.33L18.03 9.4V9.42H18.04ZM17.89 9.79V9.43L17.3 9.79H17.89ZM17.3 8.71H17.89V8.54H17.57L17.29 8.71H17.3ZM21.45 10.41H21.63L21.45 10.29V10.41ZM21.45 10.18L21.63 10.29V9.99H21.45V10.18ZM21.45 9.91H21.63V9.61L21.45 9.72V9.9V9.91ZM21.45 10.53H21.57L21.63 10.49H21.45V10.53ZM21.08 8.8V8.87L21.19 8.8H21.08ZM21.45 9.62L21.63 9.51H21.45V9.63V9.62ZM21.08 8.71H21.3L21.08 8.56V8.71ZM21.3 8.58V8.54H21.23L21.3 8.58ZM21.44 8.64L21.6 8.54H21.44V8.64ZM21.44 9.42H21.62L21.44 9.3V9.42ZM16.25 1.96L6.42999 11.51C7.23999 10.88 8.78999 9.98 9.55999 10.05C10.06 10.1 10.47 10.16 10.82 10.23V10.02L12.88 8.98V8.39H14.36V8.95L16.5 10.02V10.54H17.04V8.16H17.19V8.14L17.95 7.94H18.16L18.19 6.2H19.03L19.06 7.94H21.73V7.96H21.77V10.54H22.38C23 10.54 23.62 10.71 24.15 11.04C25.38 11.8 26.27 11.91 26.46 11.99L16.27 1.96H16.25ZM5.92999 12.02L6.43999 11.52C6.15999 11.74 5.96999 11.92 5.92999 12.02ZM21.46 8.94H21.64V8.65L21.46 8.76V8.94ZM21.46 9.21L21.64 9.32V9.02H21.46V9.2V9.21ZM21.09 10.16V10.35H21.31V10.21L21.16 10.12L21.09 10.16ZM20.71 8.72H20.95V8.55H20.71V8.72ZM20.71 8.95L20.9 9.07L20.95 9.04V8.81H20.71V8.95ZM21.09 10.55H21.31V10.51H21.09V10.55ZM20.71 9.75L20.91 9.63H20.71V9.75ZM20.86 9.35H20.79L20.84 9.38H20.91L20.86 9.35ZM20.71 10.27L20.95 10.12V9.91L20.71 10.06V10.27ZM21.25 9.75L21.08 9.65V9.8H21.18L21.25 9.76V9.75ZM21.31 10.1V10.02L21.24 10.06L21.31 10.1ZM21.09 9.43H21.31V9.35H21.09V9.43ZM21.09 9.26H21.31V9.23L21.09 9.09V9.26ZM21.09 9.54L21.31 9.68V9.52H21.09V9.54ZM21.16 9.93H21.28L21.31 9.91L21.21 9.9L21.16 9.93ZM21.16 9.03L21.31 9.12V9.02H21.16V9.03Z" fill="url(#paint11_radial_6_151)"/>
</g>
</g>
<defs>
<linearGradient id="paint0_linear_6_151" x1="17.74" y1="30.08" x2="14.05" y2="1.2" gradientUnits="userSpaceOnUse">
<stop offset="0.08" stop-color="#433013"/>
<stop offset="0.74" stop-color="#A3803A"/>
<stop offset="1" stop-color="#DAC478"/>
</linearGradient>
<linearGradient id="paint1_linear_6_151" x1="11.62" y1="1.72" x2="19.94" y2="29.91" gradientUnits="userSpaceOnUse">
<stop stop-color="#433013"/>
<stop offset="0.13" stop-color="#795824"/>
<stop offset="1" stop-color="#8B6427"/>
</linearGradient>
<linearGradient id="paint2_linear_6_151" x1="18.14" y1="22.17" x2="11.97" y2="5.73" gradientUnits="userSpaceOnUse">
<stop stop-color="#62471D"/>
<stop offset="0.52" stop-color="#795824"/>
<stop offset="1" stop-color="#AA8942"/>
</linearGradient>
<linearGradient id="paint3_linear_6_151" x1="19.0419" y1="42.3955" x2="12.3419" y2="-13.2545" gradientUnits="userSpaceOnUse">
<stop offset="0.08" stop-color="#433013"/>
<stop offset="0.74" stop-color="#A3803A"/>
<stop offset="1" stop-color="#DAC478"/>
</linearGradient>
<linearGradient id="paint4_linear_6_151" x1="15.87" y1="32" x2="15.87" y2="0.25" gradientUnits="userSpaceOnUse">
<stop stop-color="#795824"/>
<stop offset="1" stop-color="#E0B557"/>
</linearGradient>
<linearGradient id="paint5_linear_6_151" x1="14.4525" y1="4.88609" x2="16.7225" y2="22.8261" gradientUnits="userSpaceOnUse">
<stop stop-color="#C0BAA9"/>
<stop offset="1" stop-color="#E2DCCC"/>
</linearGradient>
<linearGradient id="paint6_linear_6_151" x1="15.93" y1="4.75" x2="15.93" y2="27.51" gradientUnits="userSpaceOnUse">
<stop stop-color="#035274"/>
<stop offset="0.95" stop-color="#00283D"/>
</linearGradient>
<linearGradient id="paint7_linear_6_151" x1="15.87" y1="8.52" x2="15.87" y2="16.75" gradientUnits="userSpaceOnUse">
<stop stop-color="#5FC096"/>
<stop offset="0.13" stop-color="#5ABA93"/>
<stop offset="0.3" stop-color="#4CA98E"/>
<stop offset="0.5" stop-color="#368D84"/>
<stop offset="0.71" stop-color="#176778"/>
<stop offset="0.85" stop-color="#004A6E"/>
<stop offset="0.99" stop-color="#003249"/>
</linearGradient>
<linearGradient id="paint8_linear_6_151" x1="18.67" y1="39.33" x2="12.75" y2="-9.82" gradientUnits="userSpaceOnUse">
<stop offset="0.08" stop-color="#433013"/>
<stop offset="0.74" stop-color="#A3803A"/>
<stop offset="1" stop-color="#DAC478"/>
</linearGradient>
<linearGradient id="paint9_linear_6_151" x1="16.7" y1="27.32" x2="15.83" y2="20.73" gradientUnits="userSpaceOnUse">
<stop offset="0.01" stop-color="#241F12"/>
<stop offset="0.05" stop-color="#41361F"/>
<stop offset="0.09" stop-color="#574828"/>
<stop offset="0.13" stop-color="#66552F"/>
<stop offset="0.18" stop-color="#705C33"/>
<stop offset="0.25" stop-color="#735F35"/>
<stop offset="0.74" stop-color="#A0895A"/>
<stop offset="0.81" stop-color="#B5A06F"/>
<stop offset="0.97" stop-color="#EBDDA7"/>
<stop offset="1" stop-color="#F7EAB3"/>
</linearGradient>
<linearGradient id="paint10_linear_6_151" x1="17.19" y1="23.89" x2="14.86" y2="19.85" gradientUnits="userSpaceOnUse">
<stop offset="0.01" stop-color="#241F12"/>
<stop offset="0.05" stop-color="#41361F"/>
<stop offset="0.09" stop-color="#574828"/>
<stop offset="0.13" stop-color="#66552F"/>
<stop offset="0.18" stop-color="#705C33"/>
<stop offset="0.25" stop-color="#735F35"/>
<stop offset="0.74" stop-color="#A0895A"/>
<stop offset="0.81" stop-color="#B5A06F"/>
<stop offset="0.97" stop-color="#EBDDA7"/>
<stop offset="1" stop-color="#F7EAB3"/>
</linearGradient>
<radialGradient id="paint11_radial_6_151" cx="0" cy="0" r="1" gradientUnits="userSpaceOnUse" gradientTransform="translate(13.8082 6.75365) rotate(4.2) scale(12.9728 12.9728)">
<stop stop-color="white"/>
<stop offset="0.31" stop-color="white" stop-opacity="0.66"/>
<stop offset="0.65" stop-color="white" stop-opacity="0.31"/>
<stop offset="0.89" stop-color="white" stop-opacity="0.09"/>
<stop offset="1" stop-color="white" stop-opacity="0"/>
</radialGradient>
<clipPath id="clip0_6_151">
<rect width="32" height="32" fill="white"/>
</clipPath>
<clipPath id="clip1_6_151">
<rect width="31.75" height="31.75" fill="white" transform="translate(0 0.25)"/>
</clipPath>
</defs>
</svg>
