<svg width="32" height="32" viewBox="0 0 32 32" fill="none" xmlns="http://www.w3.org/2000/svg">
<g clip-path="url(#clip0_7_184)">
<path d="M16 28.8415C23.0921 28.8415 28.8415 23.0921 28.8415 16C28.8415 8.90786 23.0921 3.15854 16 3.15854C8.90786 3.15854 3.15854 8.90786 3.15854 16C3.15854 23.0921 8.90786 28.8415 16 28.8415Z" fill="url(#paint0_radial_7_184)"/>
<path d="M26.9834 15.8632L16.4144 15.9615L26.8233 14.1277L26.7737 13.8582L16.3647 15.8936L26.2387 12.0214L26.1354 11.7671L16.3303 15.8268L25.2266 10.0397L25.0746 9.81077L16.2948 15.7589L23.8629 8.33058L23.6694 8.13707L16.2655 15.6799L22.3291 7.02263L22.1031 6.86762L16.1834 15.6667L20.4264 5.94769L20.1741 5.8403L16.1104 15.6444L18.3089 5.2618L18.0405 5.20709L16.0375 15.6221L16.1368 5.01662H15.8632L15.9615 15.5856L14.1277 5.1767L13.8582 5.22736L15.8936 15.6353L12.0214 5.76229L11.7671 5.86462L15.8268 15.6697L10.0397 6.7734L9.81078 6.92537L15.7589 15.7052L8.33059 8.13707L8.13708 8.33058L15.6799 15.7346L7.02264 9.67096L6.86763 9.89689L15.6667 15.8166L5.9477 11.5736L5.84031 11.8259L15.6434 15.8896L5.26181 13.6911L5.2071 13.9596L15.6211 15.9625L5.01663 15.8632V16.1368L15.5856 16.0385L5.17671 17.8723L5.22736 18.1428L15.6353 16.1064L5.7623 19.9786L5.86462 20.2329L15.6697 16.1743L6.77341 21.9603L6.92538 22.1892L15.7052 16.2411L8.13708 23.6694L8.33059 23.8629L15.7346 16.3202L9.67097 24.9774L9.8969 25.1324L15.8166 16.3333L11.5736 26.0533L11.8259 26.1607L15.8896 16.3566L13.6911 26.7382L13.9596 26.7929L15.9625 16.3789L15.8632 26.9834H16.1368L16.0385 16.4144L17.8723 26.8233L18.1428 26.7737L16.1064 16.3647L19.9786 26.2387L20.2329 26.1354L16.1733 16.3303L21.9603 25.2266L22.1892 25.0746L16.2411 16.2938L23.6694 23.8629L23.8629 23.6694L16.3202 16.2654L24.9774 22.329L25.1324 22.1031L16.3333 16.1834L26.0533 20.4264L26.1607 20.1741L16.3556 16.1104L26.7382 18.3089L26.7929 18.0405L16.3779 16.0375L26.9834 16.1368V15.8632Z" fill="#AADBCD"/>
<path d="M10.5564 21.0029C11.1724 20.8955 11.9384 20.7617 11.9384 20.01C11.9384 19.314 11.294 18.9148 10.1715 18.9148C9.56763 18.9148 8.99825 19.0333 8.47953 19.2674L8.43596 19.2866L8.75003 20.1295L8.79866 20.1083C9.23228 19.9208 9.68819 19.8256 10.1542 19.8256C10.678 19.8256 10.8644 19.9158 10.8644 19.9938C10.8644 20.0769 10.6365 20.1305 10.215 20.1984C9.58688 20.3028 9.1948 20.4497 8.90403 20.6908C8.56868 20.9694 8.41266 21.3544 8.41266 21.9035V22.1528H11.8614V21.242H9.68819C9.80369 21.1295 10.0712 21.0849 10.4724 21.017L10.5564 21.0029Z" fill="#729B8F"/>
<path d="M14.3922 18.9148C13.149 18.9148 12.2818 19.6017 12.2818 20.5844C12.2818 21.5672 13.1501 22.2541 14.3922 22.2541C15.6343 22.2541 16.4985 21.5672 16.4985 20.5844C16.4985 19.6017 15.6322 18.9148 14.3922 18.9148ZM14.3922 21.323C13.7924 21.323 13.374 21.0191 13.374 20.5844C13.374 20.1498 13.7833 19.8459 14.3922 19.8459C15.001 19.8459 15.4063 20.1427 15.4063 20.5844C15.4063 21.0262 14.9899 21.323 14.3922 21.323Z" fill="#729B8F"/>
<path d="M18.9057 21.0029C19.5217 20.8955 20.2876 20.7617 20.2876 20.01C20.2876 19.314 19.6433 18.9148 18.5207 18.9148C17.9169 18.9148 17.3475 19.0333 16.8288 19.2674L16.7852 19.2866L17.0993 20.1295L17.1479 20.1083C17.5815 19.9208 18.0374 19.8256 18.5035 19.8256C19.0273 19.8256 19.2137 19.9158 19.2137 19.9938C19.2137 20.0769 18.9857 20.1305 18.5643 20.1984C17.9361 20.3028 17.544 20.4497 17.2533 20.6908C16.9179 20.9694 16.7619 21.3544 16.7619 21.9035V22.1528H20.2106V21.242H18.0374C18.1529 21.1295 18.4204 21.0849 18.8216 21.017L18.9057 21.0029Z" fill="#729B8F"/>
<path d="M23.5661 20.6513V20.0687H22.5631L23.64 19.239L22.9977 18.5744L20.5034 20.5662L20.7648 21.5216H22.4932V22.1528H23.5661V21.5216H24.2175V20.6513H23.5661ZM21.8063 20.6513L22.4932 20.1214V20.6513H21.8063Z" fill="#729B8F"/>
<path fill-rule="evenodd" clip-rule="evenodd" d="M27.1131 8.74901C27.188 9.27786 27.2265 9.81685 27.2265 10.365C27.2265 17.3738 20.8701 23.0555 13.0285 23.0555C9.74493 23.0555 6.72174 22.0585 4.31656 20.3859C6.23645 25.0574 10.831 28.3471 16.1955 28.3471C23.2865 28.3471 29.034 22.5996 29.034 15.5086C29.034 13.0285 28.3298 10.7135 27.1121 8.75002L27.1131 8.74901Z" fill="url(#paint1_radial_7_184)"/>
<path d="M15.9838 9.443H14.9808L13.3719 13.4266H15.7072L15.9838 9.443Z" fill="#729B8F"/>
<path d="M9.67297 23.3391H15.0375L15.3445 18.0921H11.6526L9.67297 23.3391Z" fill="#729B8F"/>
<path d="M19.0739 13.4266L17.466 9.443H16.464L16.7517 13.4266H19.0739Z" fill="#729B8F"/>
<path d="M17.1053 18.0921L17.4346 23.3391H22.7697L20.7941 18.0921H17.1053Z" fill="#729B8F"/>
<path d="M7.64874 14.0335V16.7761H8.79966V17.7922H9.69325V16.7761L11.4571 16.6606C12.3497 16.6018 13.2453 16.6028 14.1379 16.6626L15.8318 16.7761V17.7922H16.7254V16.7761L18.9958 16.6474C19.8722 16.5977 20.7516 16.6048 21.6269 16.6697L23.0828 16.7771V17.7932H23.9764V16.7771H25.0088V14.0345H7.64874V14.0335Z" fill="#729B8F"/>
<path fill-rule="evenodd" clip-rule="evenodd" d="M16.8257 17.7416L17.156 22.9886H22.4901L20.5155 17.7416H16.8257ZM9.39436 22.9886H14.7589L15.0659 17.7416H11.374L9.39436 22.9886ZM7.37012 13.684V16.4265H8.52104V17.4427H9.41462V16.4265L11.1785 16.311C12.0711 16.2523 12.9667 16.2533 13.8592 16.3131L15.5532 16.4265V17.4427H16.4468V16.4265L18.7172 16.2979C19.5936 16.2482 20.473 16.2553 21.3483 16.3202L22.8042 16.4275V17.4437H23.6978V16.4275H24.7302V13.685H7.37012V13.684ZM18.7942 13.0761L17.1874 9.09246H16.1844L16.4721 13.0761H18.7942ZM15.7052 9.09347H14.7011L13.0933 13.0771H15.4276L15.7052 9.09347Z" fill="#2D2D2D"/>
<path fill-rule="evenodd" clip-rule="evenodd" d="M16 2.5C8.54435 2.5 2.5 8.54435 2.5 16C2.5 23.4556 8.54435 29.5 16 29.5C23.4556 29.5 29.5 23.4556 29.5 16C29.5 8.54435 23.4556 2.5 16 2.5ZM16 29.0704C8.78143 29.0704 2.92957 23.2186 2.92957 16C2.92957 8.78143 8.78143 2.92957 16 2.92957C23.2186 2.92957 29.0704 8.78143 29.0704 16C29.0704 23.2186 23.2186 29.0704 16 29.0704Z" fill="#2D2D2D"/>
<path fill-rule="evenodd" clip-rule="evenodd" d="M16.1185 5.27193C9.99718 5.27193 5.03485 10.2343 5.03485 16.3556C5.03485 22.477 9.99718 27.4393 16.1185 27.4393C22.2399 27.4393 27.2022 22.477 27.2022 16.3556C27.2022 10.2343 22.2399 5.27193 16.1185 5.27193ZM16.1185 27.0877C10.1917 27.0877 5.38742 22.2835 5.38742 16.3566C5.38742 10.4298 10.1917 5.62552 16.1185 5.62552C22.0454 5.62552 26.8496 10.4298 26.8496 16.3566C26.8496 22.2835 22.0454 27.0877 16.1185 27.0877Z" fill="url(#paint2_radial_7_184)"/>
<path fill-rule="evenodd" clip-rule="evenodd" d="M16 3.28923C8.98001 3.28923 3.28925 8.98 3.28925 16C3.28925 23.02 8.98001 28.7108 16 28.7108C23.02 28.7108 28.7108 23.02 28.7108 16C28.7108 8.98 23.02 3.28923 16 3.28923ZM16 28.3055C9.20392 28.3055 3.6945 22.7961 3.6945 16C3.6945 9.2039 9.20392 3.69448 16 3.69448C22.7961 3.69448 28.3055 9.2039 28.3055 16C28.3055 22.7961 22.7961 28.3055 16 28.3055Z" fill="#FFCE09"/>
<path fill-rule="evenodd" clip-rule="evenodd" d="M16 2.90931C8.77028 2.90931 2.9093 8.77029 2.9093 16C2.9093 23.2297 8.77028 29.0907 16 29.0907C23.2297 29.0907 29.0907 23.2297 29.0907 16C29.0907 8.77029 23.2297 2.90931 16 2.90931ZM16 28.6733C9.00026 28.6733 3.32671 22.9987 3.32671 16C3.32671 9.00128 9.00026 3.32672 16 3.32672C22.9997 3.32672 28.6733 9.00128 28.6733 16C28.6733 22.9987 22.9987 28.6733 16 28.6733Z" fill="#C02328"/>
<path d="M8.76927 14.2078C8.52207 14.2078 8.3316 14.2827 8.19685 14.4347C8.06312 14.5867 7.99524 14.7751 7.99524 15.0021C7.99524 15.229 8.06109 15.4144 8.1928 15.5704C8.32552 15.7275 8.51396 15.8055 8.75408 15.8055C9.00635 15.8055 9.19884 15.7285 9.33055 15.5745C9.46124 15.4205 9.5271 15.23 9.5271 15.0061C9.5271 14.7974 9.46226 14.612 9.33561 14.4509C9.20796 14.2898 9.01952 14.2088 8.76826 14.2088L8.76927 14.2078ZM8.76725 15.5086C8.54638 15.5086 8.43696 15.3404 8.43696 15.0051C8.43696 14.6698 8.54537 14.5036 8.76725 14.5036C8.98912 14.5036 9.08638 14.6718 9.08638 15.0061C9.08638 15.3404 8.97899 15.5086 8.76725 15.5086Z" fill="#FFCE09"/>
<path d="M10.8938 15.3394L10.5352 14.2311H10.0874L10.6264 15.7812H11.0792L11.6213 14.2311H11.2677L10.8938 15.3394Z" fill="#FFCE09"/>
<path d="M12.2676 15.7812H13.5482V15.4742H12.6931V15.1358H13.3638V14.844H12.6931V14.5269H13.5482V14.2311H12.2676V15.7812Z" fill="#FFCE09"/>
<path d="M15.7295 14.6951C15.7295 14.5998 15.7001 14.5127 15.6424 14.4347C15.5856 14.3567 15.5107 14.303 15.4235 14.2746C15.3344 14.2452 15.2179 14.2311 15.073 14.2311H14.2848V15.7801H14.7082V15.1662H15.0081L15.2847 15.7801H15.7487L15.4174 15.0953C15.6251 15.0152 15.7285 14.8815 15.7285 14.6951H15.7295ZM15.2523 14.8187C15.2219 14.8541 15.1885 14.8764 15.151 14.8866C15.1135 14.8967 15.0517 14.9018 14.9666 14.9018H14.7093V14.5066H14.9565C15.0527 14.5066 15.1186 14.5107 15.154 14.5188C15.1885 14.5269 15.2209 14.5482 15.2513 14.5826C15.2817 14.6161 15.2969 14.6556 15.2969 14.6981C15.2969 14.7437 15.2827 14.7842 15.2523 14.8197V14.8187Z" fill="#FFCE09"/>
<path d="M17.6079 14.2756C17.5248 14.2452 17.4042 14.2321 17.2462 14.2321H16.54V15.7812H16.9665V15.2047H17.2624C17.391 15.2047 17.4842 15.1986 17.545 15.1844C17.6038 15.1713 17.6666 15.1439 17.7304 15.1024C17.7953 15.0608 17.8439 15.0031 17.8794 14.9311C17.9148 14.8582 17.9331 14.7842 17.9331 14.7072C17.9331 14.5988 17.9006 14.5066 17.8338 14.4317C17.7669 14.3567 17.693 14.304 17.6089 14.2756H17.6079ZM17.4447 14.8612C17.4022 14.9028 17.3303 14.924 17.2259 14.924H16.9524V14.5127H17.2249C17.3191 14.5127 17.3921 14.532 17.4376 14.5695C17.4842 14.6069 17.5065 14.6566 17.5065 14.7204C17.5065 14.7741 17.4853 14.8207 17.4437 14.8633L17.4447 14.8612Z" fill="#FFCE09"/>
<path d="M19.0424 14.2311L18.467 15.7801H18.8358L18.9482 15.461H19.5287L19.6382 15.7801H20.09L19.5287 14.2311H19.0424ZM19.0495 15.1753L19.24 14.6313L19.4295 15.1753H19.0495Z" fill="#FFCE09"/>
<path d="M21.7546 14.8886C21.6695 14.8562 21.5358 14.8237 21.3534 14.7913C21.243 14.7721 21.1741 14.7508 21.1427 14.7245C21.1123 14.6981 21.095 14.6677 21.095 14.6302C21.095 14.537 21.1781 14.4904 21.3433 14.4904C21.4993 14.4904 21.5996 14.5512 21.6492 14.6748L22.0079 14.5715C21.9076 14.3283 21.6816 14.2078 21.3281 14.2078C21.1295 14.2078 20.9714 14.2554 20.8559 14.3496C20.7394 14.4438 20.6817 14.5603 20.6817 14.6981C20.6817 14.8359 20.7303 14.9372 20.8276 15.0092C20.9238 15.0801 21.0869 15.1348 21.3159 15.1763C21.4385 15.1976 21.5206 15.2219 21.5631 15.2472C21.6057 15.2716 21.6269 15.307 21.6269 15.3536C21.6269 15.4002 21.6046 15.4357 21.556 15.4681C21.5084 15.4995 21.4385 15.5167 21.3422 15.5167C21.1427 15.5167 21.0211 15.4438 20.9775 15.2999L20.5885 15.3759C20.63 15.5188 20.7141 15.6251 20.8438 15.6981C20.9735 15.771 21.1295 15.8065 21.3139 15.8065C21.5601 15.8065 21.7445 15.7558 21.8681 15.6535C21.9937 15.5512 22.0555 15.4306 22.0555 15.2908C22.0555 15.2006 22.0261 15.1206 21.9673 15.0487C21.9096 14.9757 21.8387 14.923 21.7536 14.8906L21.7546 14.8886Z" fill="#FFCE09"/>
<path d="M24.0169 15.0466C23.9592 14.9737 23.8872 14.921 23.8042 14.8896C23.718 14.8572 23.5843 14.8248 23.4019 14.7923C23.2925 14.7731 23.2226 14.7518 23.1912 14.7255C23.1598 14.6991 23.1446 14.6687 23.1446 14.6313C23.1446 14.538 23.2267 14.4914 23.3918 14.4914C23.557 14.4914 23.6491 14.5522 23.6988 14.6758L24.0554 14.5725C23.9561 14.3293 23.7302 14.2088 23.3766 14.2088C23.1791 14.2088 23.02 14.2564 22.9045 14.3506C22.788 14.4448 22.7302 14.5613 22.7302 14.6991C22.7302 14.8369 22.7789 14.9382 22.8761 15.0102C22.9724 15.0811 23.1355 15.1358 23.3645 15.1773C23.4881 15.1986 23.5701 15.2229 23.6117 15.2483C23.6552 15.2726 23.6755 15.308 23.6755 15.3546C23.6755 15.4012 23.6532 15.4367 23.6046 15.4691C23.5569 15.5005 23.487 15.5177 23.3908 15.5177C23.1912 15.5177 23.0696 15.4448 23.0261 15.3009L22.637 15.3769C22.6775 15.5198 22.7627 15.6262 22.8923 15.6991C23.022 15.772 23.178 15.8075 23.3624 15.8075C23.6086 15.8075 23.793 15.7568 23.9166 15.6545C24.0422 15.5522 24.104 15.4316 24.104 15.2918C24.104 15.2006 24.0736 15.1206 24.0159 15.0487L24.0169 15.0466Z" fill="#FFCE09"/>
<path d="M8.76723 14.5036C8.54637 14.5036 8.43695 14.6718 8.43695 15.0051C8.43695 15.3384 8.54536 15.5086 8.76723 15.5086C8.98911 15.5086 9.08637 15.3404 9.08637 15.0061C9.08637 14.6718 8.97999 14.5036 8.76723 14.5036ZM8.76723 15.4367C8.6953 15.4367 8.50888 15.4367 8.50888 15.0051C8.50888 14.5735 8.6953 14.5755 8.76723 14.5755C8.83309 14.5755 9.01444 14.5755 9.01444 15.0061C9.01444 15.4367 8.8341 15.4367 8.76723 15.4367Z" fill="#C02328"/>
<path d="M8.76927 14.1348C8.5018 14.1348 8.29006 14.2189 8.14315 14.3861C7.99828 14.5502 7.92432 14.7569 7.92432 15C7.92432 15.2432 7.99625 15.4468 8.1391 15.615C8.28499 15.7883 8.49268 15.8764 8.75509 15.8764C9.01749 15.8764 9.24038 15.7893 9.38424 15.6201C9.52709 15.4529 9.597 15.2462 9.597 15.0051C9.597 14.7812 9.52912 14.5796 9.39133 14.4053C9.24949 14.226 9.04079 14.1348 8.76826 14.1348H8.76927ZM9.33055 15.5735C9.19884 15.7275 9.00736 15.8045 8.75407 15.8045C8.50079 15.8045 8.32552 15.7265 8.1928 15.5694C8.06109 15.4124 7.99524 15.2229 7.99524 15.001C7.99524 14.7792 8.0621 14.5857 8.19685 14.4337C8.3316 14.2817 8.52207 14.2068 8.76927 14.2068C9.01647 14.2068 9.20796 14.2878 9.33662 14.4489C9.46327 14.61 9.52811 14.7954 9.52811 15.0041C9.52811 15.229 9.46225 15.4185 9.33156 15.5725L9.33055 15.5735Z" fill="#C02328"/>
<path d="M11.2677 14.1591H11.216L11.1998 14.2078L10.8948 15.1095L10.6031 14.2088L10.5868 14.1591H9.98605L10.0205 14.2544L10.5595 15.8034L10.5757 15.8521H11.1309L11.1481 15.8045L11.6901 14.2544L11.7226 14.1591H11.2677ZM11.0792 15.7801H10.6264L10.0874 14.2311H10.5342L10.8938 15.3394L11.2677 14.2311H11.6202L11.0782 15.7801H11.0792Z" fill="#C02328"/>
<path d="M12.7651 15.4022V15.2077H13.4368V14.7711H12.7651V14.5968H13.6191V14.1591H12.1947V15.8531H13.6201V15.4012H12.7661L12.7651 15.4022ZM13.5472 15.7812H12.2666V14.2311H13.5482V14.5259H12.6931V14.844H13.3648V15.1358H12.6931V15.4742H13.5472V15.7812Z" fill="#C02328"/>
<path d="M15.154 14.5198C15.1186 14.5117 15.0537 14.5077 14.9565 14.5077H14.7093V14.9018H14.9666C15.0507 14.9018 15.1115 14.8967 15.15 14.8866C15.1885 14.8764 15.2219 14.8541 15.2513 14.8187C15.2817 14.7832 15.2969 14.7437 15.2969 14.6981C15.2969 14.6525 15.2817 14.6161 15.2513 14.5826C15.2209 14.5482 15.1885 14.5269 15.154 14.5188V14.5198ZM15.1956 14.7721C15.1753 14.7954 15.154 14.8106 15.1307 14.8177C15.1094 14.8238 15.0628 14.8308 14.9656 14.8308H14.7792V14.5786H14.9565C15.0689 14.5786 15.1176 14.5836 15.1378 14.5887C15.1571 14.5928 15.1773 14.6069 15.1966 14.6282C15.2148 14.6495 15.2229 14.6718 15.2229 14.6971C15.2229 14.7265 15.2138 14.7498 15.1956 14.7711V14.7721Z" fill="#C02328"/>
<path d="M15.5137 15.1307C15.7487 15.0132 15.8004 14.8319 15.8004 14.6951C15.8004 14.5846 15.766 14.4823 15.7001 14.3922C15.6343 14.302 15.5481 14.2402 15.4468 14.2057C15.3506 14.1753 15.228 14.1591 15.073 14.1591H14.2128V15.8531H14.7802V15.2381H14.9625L15.2179 15.8095L15.2371 15.8521H15.8642L15.8136 15.7487L15.5147 15.1297L15.5137 15.1307ZM15.2847 15.7801L15.0081 15.1662H14.7083V15.7801H14.2848V14.2311H15.074C15.2189 14.2311 15.3364 14.2453 15.4245 14.2746C15.5127 14.304 15.5856 14.3567 15.6434 14.4347C15.7001 14.5117 15.7305 14.5988 15.7305 14.6951C15.7305 14.8815 15.6272 15.0152 15.4185 15.0953L15.7498 15.7801H15.2857H15.2847Z" fill="#C02328"/>
<path d="M17.6301 14.2068C17.5389 14.1753 17.4123 14.1591 17.2451 14.1591H16.466V15.8531H17.0364V15.2766H17.2603C17.3951 15.2766 17.4934 15.2695 17.5582 15.2553C17.6271 15.2401 17.697 15.2077 17.7679 15.1621C17.8419 15.1135 17.9006 15.0456 17.9422 14.9615C17.9807 14.8795 18.0009 14.7923 18.0009 14.7062C18.0009 14.5796 17.9614 14.4712 17.8844 14.383C17.8105 14.2989 17.7243 14.2402 17.6291 14.2057L17.6301 14.2068ZM17.8773 14.9291C17.8419 15.0021 17.7932 15.0588 17.7284 15.1003C17.6646 15.1419 17.6028 15.1702 17.543 15.1824C17.4832 15.1956 17.389 15.2027 17.2603 15.2027H16.9655V15.7791H16.538V14.2311H17.2451C17.4042 14.2311 17.5248 14.2453 17.6068 14.2746C17.6909 14.304 17.7659 14.3557 17.8307 14.4296C17.8966 14.5046 17.93 14.5978 17.93 14.7052C17.93 14.7822 17.9118 14.8572 17.8763 14.9291H17.8773Z" fill="#C02328"/>
<path d="M17.2249 14.5117H16.9523V14.923H17.2259C17.3302 14.923 17.4022 14.9028 17.4447 14.8602C17.4873 14.8187 17.5075 14.7711 17.5075 14.7174C17.5075 14.6546 17.4852 14.6039 17.4386 14.5664C17.391 14.5289 17.3201 14.5097 17.2259 14.5097L17.2249 14.5117ZM17.3951 14.8106C17.3758 14.8298 17.3312 14.8521 17.2259 14.8521H17.0233V14.5847H17.2249C17.3019 14.5847 17.3596 14.5978 17.3941 14.6242C17.4245 14.6475 17.4376 14.6768 17.4376 14.7184C17.4376 14.7528 17.4245 14.7822 17.3961 14.8096L17.3951 14.8106Z" fill="#C02328"/>
<path d="M19.5956 14.2068L19.5794 14.1591H18.9928L18.9746 14.2057L18.3991 15.7558L18.3636 15.8531H18.8854L18.9026 15.8055L18.9979 15.534H19.4761L19.5703 15.8045L19.5875 15.8531H20.1924L20.1579 15.7568L19.5956 14.2068ZM19.6382 15.7801L19.5288 15.461H18.9482L18.8358 15.7801H18.467L19.0424 14.2311H19.5288L20.09 15.7801H19.6382Z" fill="#C02328"/>
<path d="M19.0495 15.1753H19.4295L19.24 14.6313L19.0495 15.1753ZM19.1508 15.1044L19.241 14.8501L19.3292 15.1044H19.1519H19.1508Z" fill="#C02328"/>
<path d="M21.7789 14.8217C21.6877 14.7863 21.553 14.7549 21.3646 14.7214C21.2258 14.6981 21.1923 14.6738 21.1873 14.6698C21.169 14.6546 21.166 14.6424 21.166 14.6313C21.166 14.5857 21.2247 14.5634 21.3433 14.5634C21.5084 14.5634 21.5591 14.6424 21.5824 14.7022L21.6057 14.763L21.6685 14.7437L22.0261 14.6414L22.1041 14.6191L22.0737 14.5451C21.9623 14.2736 21.7121 14.1358 21.3291 14.1358C21.1153 14.1358 20.94 14.1895 20.8134 14.2939C20.6797 14.4023 20.6118 14.5391 20.6118 14.6981C20.6118 14.8572 20.6706 14.9818 20.7871 15.0669C20.8945 15.1449 21.0626 15.2037 21.3048 15.2472C21.4527 15.2736 21.5084 15.2969 21.5297 15.309C21.552 15.3222 21.557 15.3354 21.557 15.3526C21.557 15.3597 21.557 15.382 21.5185 15.4083C21.4942 15.4245 21.4446 15.4448 21.3443 15.4448C21.1234 15.4448 21.0697 15.3506 21.0474 15.2786L21.0282 15.2158L20.9644 15.229L20.5753 15.305L20.4983 15.3202L20.5196 15.3952C20.5662 15.5552 20.6625 15.6788 20.8083 15.7599C20.9482 15.8379 21.1173 15.8774 21.3139 15.8774C21.5753 15.8774 21.7779 15.8207 21.9147 15.7082C22.0565 15.5917 22.1274 15.4509 22.1274 15.2888C22.1274 15.1824 22.092 15.0851 22.0251 15.001C21.9593 14.919 21.8762 14.8582 21.7789 14.8217ZM21.8691 15.6505C21.7445 15.7528 21.5601 15.8035 21.3149 15.8035C21.1315 15.8035 20.9745 15.767 20.8448 15.695C20.7151 15.6221 20.6321 15.5157 20.5895 15.3729L20.9785 15.2969C21.0231 15.4407 21.1447 15.5137 21.3433 15.5137C21.4395 15.5137 21.5115 15.4965 21.557 15.4651C21.6047 15.4337 21.628 15.3941 21.628 15.3506C21.628 15.307 21.6067 15.2695 21.5641 15.2442C21.5206 15.2189 21.4385 15.1956 21.3169 15.1733C21.088 15.1328 20.9249 15.077 20.8286 15.0061C20.7313 14.9342 20.6827 14.8308 20.6827 14.6951C20.6827 14.5593 20.7405 14.4408 20.857 14.3466C20.9725 14.2534 21.1295 14.2057 21.3291 14.2057C21.6817 14.2057 21.9076 14.3273 22.0089 14.5695L21.6503 14.6728C21.6016 14.5502 21.5003 14.4884 21.3443 14.4884C21.1781 14.4884 21.0961 14.535 21.0961 14.6282C21.0961 14.6657 21.1123 14.6961 21.1437 14.7224C21.1741 14.7478 21.243 14.7701 21.3544 14.7893C21.5368 14.8207 21.6705 14.8541 21.7556 14.8866C21.8407 14.919 21.9116 14.9707 21.9694 15.0436C22.0271 15.1155 22.0575 15.1956 22.0575 15.2857C22.0575 15.4256 21.9947 15.5471 21.8701 15.6484L21.8691 15.6505Z" fill="#C02328"/>
<path d="M24.0737 15.001C24.0078 14.919 23.9247 14.8582 23.8275 14.8217C23.7363 14.7863 23.6015 14.7549 23.4131 14.7214C23.2743 14.6981 23.2419 14.6738 23.2358 14.6698C23.2176 14.6546 23.2145 14.6424 23.2145 14.6313C23.2145 14.5857 23.2733 14.5634 23.3918 14.5634C23.558 14.5634 23.6076 14.6424 23.6299 14.7022L23.6542 14.763L23.717 14.7437L24.0757 14.6414L24.1517 14.6191L24.1213 14.5451C24.0088 14.2736 23.7576 14.1358 23.3756 14.1358C23.1629 14.1358 22.9876 14.1895 22.8589 14.2939C22.7262 14.4023 22.6583 14.5391 22.6583 14.6981C22.6583 14.8572 22.7171 14.9818 22.8336 15.0669C22.941 15.1449 23.1102 15.2037 23.3503 15.2472C23.4992 15.2736 23.556 15.2969 23.5742 15.309C23.5985 15.3222 23.6036 15.3354 23.6036 15.3526C23.6036 15.3597 23.6036 15.382 23.5651 15.4083C23.5418 15.4245 23.4911 15.4448 23.3908 15.4448C23.17 15.4448 23.1173 15.3506 23.095 15.2786L23.0757 15.2158L23.0129 15.229L22.6239 15.305L22.5469 15.3202L22.5682 15.3952C22.6148 15.5552 22.711 15.6788 22.8569 15.7599C22.9967 15.8379 23.1669 15.8774 23.3624 15.8774C23.6238 15.8774 23.8265 15.8207 23.9632 15.7082C24.1051 15.5917 24.176 15.4509 24.176 15.2888C24.176 15.1824 24.1405 15.0851 24.0737 15.001ZM23.9166 15.6505C23.792 15.7528 23.6086 15.8035 23.3624 15.8035C23.1791 15.8035 23.022 15.767 22.8924 15.695C22.7627 15.6221 22.6786 15.5157 22.637 15.3729L23.0261 15.2969C23.0707 15.4407 23.1922 15.5137 23.3908 15.5137C23.4871 15.5137 23.559 15.4965 23.6046 15.4651C23.6522 15.4337 23.6755 15.3941 23.6755 15.3506C23.6755 15.307 23.6552 15.2695 23.6117 15.2442C23.5691 15.2189 23.4861 15.1956 23.3645 15.1733C23.1355 15.1328 22.9724 15.077 22.8761 15.0061C22.7789 14.9342 22.7303 14.8308 22.7303 14.6951C22.7303 14.5593 22.788 14.4408 22.9045 14.3466C23.02 14.2534 23.1781 14.2057 23.3766 14.2057C23.7292 14.2057 23.9561 14.3273 24.0554 14.5695L23.6988 14.6728C23.6502 14.5502 23.5489 14.4884 23.3918 14.4884C23.2257 14.4884 23.1446 14.535 23.1446 14.6282C23.1446 14.6657 23.1588 14.6961 23.1912 14.7224C23.2216 14.7478 23.2915 14.7701 23.402 14.7893C23.5843 14.8207 23.7181 14.8541 23.8042 14.8866C23.8883 14.919 23.9592 14.9707 24.0169 15.0436C24.0747 15.1155 24.1051 15.1956 24.1051 15.2857C24.1051 15.4256 24.0433 15.5471 23.9176 15.6484L23.9166 15.6505Z" fill="#C02328"/>
<path opacity="0.67" d="M7.95168 16.2817C7.95168 11.7651 11.987 8.10466 16.9635 8.10466C17.6848 8.10466 18.387 8.18165 19.0587 8.32755C17.0334 6.16045 13.3679 5.86057 10.3964 7.76323C7.1047 9.87156 5.91224 13.8856 7.73284 16.7284C7.81592 16.8581 7.90406 16.9827 7.99626 17.1033C7.96688 16.8328 7.95066 16.5582 7.95066 16.2817H7.95168Z" fill="url(#paint3_radial_7_184)"/>
<path d="M8.17762 21.7607V21.5621C8.17762 20.9958 8.34377 20.6432 8.65075 20.3889C8.95874 20.1336 9.37514 20.0009 9.93743 19.9077C10.4592 19.8226 10.6294 19.7699 10.6294 19.6523C10.6294 19.4862 10.2566 19.4335 9.86854 19.4335C9.29409 19.4335 8.82805 19.5753 8.4927 19.7212L8.21308 18.9725C8.62542 18.7861 9.17657 18.624 9.88475 18.624C10.8118 18.624 11.601 18.9117 11.601 19.6686C11.601 20.3727 10.8888 20.5024 10.2616 20.6118C9.71555 20.705 9.39135 20.7496 9.30625 20.9522H11.524V21.7617H8.17661L8.17762 21.7607Z" fill="#FFCE09"/>
<path d="M11.601 21.8367H8.10162V21.5621C8.10162 21.0049 8.26069 20.6128 8.60312 20.3301C8.89795 20.086 9.29408 19.937 9.92628 19.8317C10.1461 19.7962 10.5544 19.7293 10.5544 19.6513C10.5544 19.5966 10.368 19.5085 9.86954 19.5085C9.40654 19.5085 8.95367 19.6027 8.5241 19.7891L8.45014 19.8205L8.11783 18.93L8.18267 18.9006C8.70444 18.6656 9.27787 18.546 9.88575 18.546C11.0245 18.546 11.678 18.9543 11.678 19.6665C11.678 20.4396 10.8999 20.5753 10.2758 20.6847L10.1917 20.6989C9.86346 20.7546 9.61626 20.7962 9.48151 20.8742H11.602V21.8356L11.601 21.8367ZM8.25359 21.6847H11.449V21.0272H9.19277L9.23735 20.9218C9.33359 20.6918 9.64766 20.6381 10.1664 20.55L10.2495 20.5358C10.8472 20.4314 11.526 20.3139 11.526 19.6675C11.526 18.7932 10.3791 18.699 9.88575 18.699C9.32448 18.699 8.79562 18.8044 8.31033 19.012L8.53727 19.6189C8.96481 19.4447 9.41262 19.3565 9.86954 19.3565C10.4247 19.3565 10.7064 19.4558 10.7064 19.6513C10.7064 19.8469 10.4764 19.8955 9.95059 19.9816C9.34676 20.0819 8.97292 20.2207 8.69937 20.4466C8.39138 20.702 8.25359 21.0464 8.25359 21.5621V21.6847Z" fill="#C02328"/>
<path d="M12.0468 20.243C12.0468 19.32 12.8603 18.624 14.1065 18.624C15.3526 18.624 16.1621 19.32 16.1621 20.243C16.1621 21.166 15.3486 21.862 14.1065 21.862C12.8644 21.862 12.0468 21.166 12.0468 20.243ZM15.1713 20.243C15.1713 19.7496 14.7022 19.4538 14.1065 19.4538C13.5108 19.4538 13.0376 19.7496 13.0376 20.243C13.0376 20.7364 13.5067 21.0322 14.1065 21.0322C14.7063 21.0322 15.1713 20.7323 15.1713 20.243Z" fill="#FFCE09"/>
<path d="M14.1075 21.938C12.8502 21.938 11.9718 21.2409 11.9718 20.243C11.9718 19.2451 12.8502 18.548 14.1075 18.548C15.3648 18.548 16.2391 19.2451 16.2391 20.243C16.2391 21.2409 15.3628 21.938 14.1075 21.938ZM14.1075 18.7C12.9393 18.7 12.1238 19.3342 12.1238 20.243C12.1238 21.1518 12.9393 21.786 14.1075 21.786C15.2756 21.786 16.0871 21.1518 16.0871 20.243C16.0871 19.3342 15.2726 18.7 14.1075 18.7ZM14.1075 21.1082C13.4338 21.1082 12.9626 20.7526 12.9626 20.243C12.9626 19.7334 13.4338 19.3778 14.1075 19.3778C14.7812 19.3778 15.2483 19.7334 15.2483 20.243C15.2483 20.7526 14.7792 21.1082 14.1075 21.1082ZM14.1075 19.5298C13.6131 19.5298 13.1146 19.7506 13.1146 20.243C13.1146 20.6635 13.5229 20.9562 14.1075 20.9562C14.6921 20.9562 15.0963 20.6624 15.0963 20.243C15.0963 19.7506 14.5999 19.5298 14.1075 19.5298Z" fill="#C02328"/>
<path d="M16.5279 21.7607V21.5621C16.5279 20.9958 16.694 20.6432 17.001 20.3889C17.309 20.1336 17.7254 20.0009 18.2877 19.9077C18.8094 19.8226 18.9797 19.7699 18.9797 19.6523C18.9797 19.4862 18.6068 19.4335 18.2188 19.4335C17.6443 19.4335 17.1783 19.5753 16.843 19.7212L16.5633 18.9725C16.9757 18.7861 17.5268 18.624 18.235 18.624C19.162 18.624 19.9512 18.9117 19.9512 19.6686C19.9512 20.3727 19.239 20.5024 18.6119 20.6118C18.0658 20.705 17.7416 20.7496 17.6565 20.9522H19.8742V21.7617H16.5269L16.5279 21.7607Z" fill="#FFCE09"/>
<path d="M19.9512 21.8367H16.4519V21.5621C16.4519 21.0049 16.6109 20.6128 16.9534 20.3301C17.2482 20.086 17.6443 19.937 18.2765 19.8317C18.4964 19.7962 18.9047 19.7293 18.9047 19.6513C18.9047 19.5966 18.7183 19.5085 18.2198 19.5085C17.7568 19.5085 17.3039 19.6027 16.8744 19.7891L16.8004 19.8205L16.4681 18.93L16.5329 18.9006C17.0547 18.6656 17.6281 18.546 18.236 18.546C19.3748 18.546 20.0282 18.9543 20.0282 19.6665C20.0282 20.4396 19.2501 20.5753 18.6261 20.6847L18.542 20.6989C18.2137 20.7546 17.9665 20.7962 17.8318 20.8742H19.9522V21.8356L19.9512 21.8367ZM16.6038 21.6847H19.7993V21.0272H17.543L17.5876 20.9218C17.6838 20.6918 17.9979 20.6381 18.5166 20.55L18.5997 20.5358C19.1975 20.4314 19.8763 20.3139 19.8763 19.6675C19.8763 18.7932 18.7294 18.699 18.236 18.699C17.6747 18.699 17.1459 18.8044 16.6606 19.012L16.8875 19.6189C17.3151 19.4447 17.7629 19.3565 18.2198 19.3565C18.775 19.3565 19.0566 19.4558 19.0566 19.6513C19.0566 19.8469 18.8267 19.8955 18.3008 19.9816C17.697 20.0819 17.3232 20.2207 17.0496 20.4466C16.7416 20.702 16.6038 21.0464 16.6038 21.5621V21.6847Z" fill="#C02328"/>
<path d="M23.2297 21.1295V21.7607H22.2581V21.1295H20.5176L20.2744 20.243L22.7069 18.3008L23.2773 18.8915L21.3716 20.3605H22.2581V19.778H23.2297V20.3605H23.8812V21.1295H23.2297Z" fill="#FFCE09"/>
<path d="M23.3057 21.8367H22.1821V21.2055H20.4598L20.1883 20.2146L22.714 18.1975L23.3918 18.8996L22.3513 19.702H23.3057V20.2845H23.9571V21.2055H23.3057V21.8367ZM22.3351 21.6847H23.1547V21.0535H23.8062V20.4365H23.1547V19.854H22.3351V20.4365H21.1498L23.1649 18.8834L22.7009 18.4032L20.3615 20.2714L20.5763 21.0535H22.3341V21.6847H22.3351ZM21.5955 20.2845H22.1832V19.8317L21.5955 20.2845Z" fill="#C02328"/>
</g>
<defs>
<radialGradient id="paint0_radial_7_184" cx="0" cy="0" r="1" gradientUnits="userSpaceOnUse" gradientTransform="translate(16 16) scale(12.8415)">
<stop stop-color="#E0F1E5"/>
<stop offset="0.46" stop-color="#DEEFE3"/>
<stop offset="0.62" stop-color="#D7EADE"/>
<stop offset="0.74" stop-color="#CBE2D5"/>
<stop offset="0.83" stop-color="#BAD6C9"/>
<stop offset="0.9" stop-color="#A9CABC"/>
<stop offset="0.92" stop-color="#90BDAD"/>
<stop offset="0.95" stop-color="#72AD9A"/>
<stop offset="0.98" stop-color="#5FA38F"/>
<stop offset="1" stop-color="#59A08B"/>
</radialGradient>
<radialGradient id="paint1_radial_7_184" cx="0" cy="0" r="1" gradientUnits="userSpaceOnUse" gradientTransform="translate(14.9453 15.4058) rotate(-24.83) scale(14.0461 13.0629)">
<stop stop-color="#E0F1E5" stop-opacity="0"/>
<stop offset="0.67" stop-color="#D1E6D9" stop-opacity="0"/>
<stop offset="0.79" stop-color="#C2DACD" stop-opacity="0"/>
<stop offset="0.8" stop-color="#C1D9CC" stop-opacity="0.04"/>
<stop offset="0.81" stop-color="#BED7CA" stop-opacity="0.15"/>
<stop offset="0.83" stop-color="#BAD4C7" stop-opacity="0.32"/>
<stop offset="0.85" stop-color="#B3D1C3" stop-opacity="0.56"/>
<stop offset="0.88" stop-color="#ACCCBE" stop-opacity="0.87"/>
<stop offset="0.89" stop-color="#A9CABC"/>
<stop offset="0.91" stop-color="#90BDAD"/>
<stop offset="0.95" stop-color="#72AD9A"/>
<stop offset="0.98" stop-color="#5FA38F"/>
<stop offset="1" stop-color="#59A08B"/>
</radialGradient>
<radialGradient id="paint2_radial_7_184" cx="0" cy="0" r="1" gradientUnits="userSpaceOnUse" gradientTransform="translate(15.9179 15.7528) scale(10.8071)">
<stop stop-color="#E0F1E5" stop-opacity="0"/>
<stop offset="0.67" stop-color="#D1E6D9" stop-opacity="0"/>
<stop offset="0.79" stop-color="#C2DACD" stop-opacity="0"/>
<stop offset="0.8" stop-color="#C1D9CC" stop-opacity="0.04"/>
<stop offset="0.81" stop-color="#BED7CA" stop-opacity="0.15"/>
<stop offset="0.83" stop-color="#BAD4C7" stop-opacity="0.32"/>
<stop offset="0.85" stop-color="#B3D1C3" stop-opacity="0.56"/>
<stop offset="0.88" stop-color="#ACCCBE" stop-opacity="0.87"/>
<stop offset="0.89" stop-color="#A9CABC"/>
<stop offset="0.91" stop-color="#90BDAD"/>
<stop offset="0.95" stop-color="#72AD9A"/>
<stop offset="0.98" stop-color="#5FA38F"/>
<stop offset="1" stop-color="#59A08B"/>
</radialGradient>
<radialGradient id="paint3_radial_7_184" cx="0" cy="0" r="1" gradientUnits="userSpaceOnUse" gradientTransform="translate(10.8672 10.178) rotate(-37.36) scale(5.70799 3.88143)">
<stop stop-color="white"/>
<stop offset="0.1" stop-color="white" stop-opacity="0.98"/>
<stop offset="0.22" stop-color="white" stop-opacity="0.92"/>
<stop offset="0.36" stop-color="white" stop-opacity="0.82"/>
<stop offset="0.5" stop-color="white" stop-opacity="0.69"/>
<stop offset="0.65" stop-color="white" stop-opacity="0.51"/>
<stop offset="0.81" stop-color="white" stop-opacity="0.3"/>
<stop offset="0.97" stop-color="white" stop-opacity="0.05"/>
<stop offset="1" stop-color="white" stop-opacity="0"/>
</radialGradient>
<clipPath id="clip0_7_184">
<rect width="27" height="27" fill="white" transform="translate(2.5 2.5)"/>
</clipPath>
</defs>
</svg>
