<svg width="32" height="32" viewBox="0 0 32 32" fill="none" xmlns="http://www.w3.org/2000/svg">
<path d="M28.7427 3.39919H3.64639V28.4955H28.7427V3.39919Z" fill="#DDD8C0"/>
<path d="M22.2503 3.41944H19.5846V28.5157H22.2503V3.41944Z" fill="#C74434"/>
<path d="M24.9159 3.41944H22.2503V28.5157H24.9159V3.41944Z" fill="#71BCB5"/>
<path d="M19.6251 3.41944H16.9595V28.5157H19.6251V3.41944Z" fill="#D8B04C"/>
<path d="M5.153 26.0567H5.61196C5.61196 26.3506 5.81055 26.5583 6.10538 26.5583C6.40021 26.5583 6.59879 26.3333 6.59879 26.0395V25.8835C6.49444 26.0051 6.28674 26.0821 6.06181 26.0821C5.51673 26.0821 5.13577 25.7011 5.13577 25.1388C5.13577 24.6201 5.58562 24.1955 6.10538 24.1955C6.66769 24.1955 7.07498 24.5765 7.07498 25.1388V26.0385C7.07498 26.6008 6.62514 26.9818 6.10538 26.9818C5.53395 26.9818 5.153 26.6272 5.153 26.0557V26.0567ZM6.58967 25.1388C6.58967 24.8531 6.39109 24.6454 6.10538 24.6454C5.81966 24.6454 5.62108 24.8531 5.62108 25.1388C5.62108 25.4245 5.82878 25.6322 6.10538 25.6322C6.38197 25.6322 6.58967 25.4154 6.58967 25.1388Z" fill="#231F20"/>
<path d="M7.64944 24.9139C7.64944 24.5157 7.93516 24.2391 8.32422 24.2391H8.49747V24.689H8.35867C8.22898 24.689 8.13374 24.7751 8.13374 24.9139V26.0385H7.64944V24.9139Z" fill="#231F20"/>
<path d="M8.80951 25.1388C8.80951 24.6201 9.25936 24.1955 9.77911 24.1955C10.3414 24.1955 10.7487 24.5765 10.7487 25.1388V26.0385H10.2725V25.8825C10.1601 26.0041 9.96047 26.0811 9.73555 26.0811C9.19046 26.0811 8.80951 25.7001 8.80951 25.1378V25.1388ZM10.2634 25.1388C10.2634 24.8531 10.0648 24.6454 9.77911 24.6454C9.4934 24.6454 9.29482 24.8531 9.29482 25.1388C9.29482 25.4245 9.50252 25.6322 9.77911 25.6322C10.0557 25.6322 10.2634 25.4154 10.2634 25.1388Z" fill="#231F20"/>
<path d="M11.2148 25.1388C11.2148 24.6201 11.6646 24.1955 12.1844 24.1955C12.7467 24.1955 13.154 24.5765 13.154 25.1388C13.154 25.6576 12.7214 26.0821 12.2107 26.0821C12.0294 26.0821 11.8561 26.0385 11.7001 25.926V26.9382H11.2158V25.1378L11.2148 25.1388ZM12.6687 25.1388C12.6687 24.8531 12.4701 24.6454 12.1844 24.6454C11.8987 24.6454 11.7001 24.8531 11.7001 25.1388C11.7001 25.4245 11.9078 25.6322 12.1844 25.6322C12.461 25.6322 12.6687 25.4154 12.6687 25.1388Z" fill="#231F20"/>
<path d="M13.6555 22.8886H14.1398V24.3941C14.2442 24.2726 14.4428 24.1956 14.6677 24.1956C15.2128 24.1956 15.5937 24.5765 15.5937 25.1388V26.0385H15.1094V25.1388C15.1094 24.8531 14.9108 24.6454 14.6251 24.6454C14.3394 24.6454 14.1408 24.8531 14.1408 25.1388V26.0385H13.6565V22.8886H13.6555Z" fill="#231F20"/>
<path d="M16.1297 23.1398C16.1297 22.9757 16.2685 22.846 16.4326 22.846C16.5967 22.846 16.7264 22.9757 16.7264 23.1398C16.7264 23.304 16.5967 23.4428 16.4326 23.4428C16.2685 23.4428 16.1297 23.304 16.1297 23.1398ZM16.1813 24.2391H16.6656V26.0395H16.1813V24.2391Z" fill="#231F20"/>
<path d="M17.2766 25.1388C17.2766 24.6201 17.7264 24.1955 18.2462 24.1955C18.5147 24.1955 18.7305 24.2736 18.921 24.464L18.6008 24.7842C18.5056 24.6981 18.384 24.6454 18.2462 24.6454C17.9696 24.6454 17.7619 24.8531 17.7619 25.1388C17.7619 25.4245 17.9696 25.6322 18.2462 25.6322C18.3759 25.6322 18.5056 25.5714 18.5927 25.4853L18.9129 25.7974C18.7396 25.9787 18.4975 26.0831 18.2462 26.0831C17.6839 26.0831 17.2766 25.7021 17.2766 25.1398V25.1388Z" fill="#231F20"/>
<path d="M28.61 6.00809H14.8967V6.56129H28.61V6.00809Z" fill="#231F20"/>
<path d="M28.8014 28.8014H3.19858V3.19857H28.8014V28.8014ZM3.70516 28.2948H28.2949V3.70516H3.70516V28.2948Z" fill="#231F20"/>
<path d="M3.79837 5.64336V13.6646C4.0081 12.9686 4.77507 10.1591 6.23708 10.1317C12.2199 10.0172 9.47315 12.9463 12.6484 12.8551C14.6991 12.7964 15.9159 11.6707 18.1814 12.0365C19.234 12.2067 19.54 12.2107 20.2665 12.2898L20.8268 12.0871C20.8268 11.7791 21.1712 11.5289 21.5968 11.5289H22.4711C22.8967 11.5289 23.2411 11.2786 23.2411 10.9706C23.2411 10.6626 23.5856 10.4124 24.0112 10.4124L25.2006 10.1074C25.6262 10.1074 25.6201 10.6626 25.6201 10.9706L25.7254 12.0881C25.9909 12.0598 26.1722 12.2715 26.5025 12.2573C27.1013 12.231 27.5704 12.3121 27.9372 12.4498V5.64336H3.79837Z" fill="url(#paint0_linear_5_59)"/>
<defs>
<linearGradient id="paint0_linear_5_59" x1="18.2188" y1="24.1874" x2="15.1763" y2="5.38398" gradientUnits="userSpaceOnUse">
<stop stop-color="white"/>
<stop offset="0.31" stop-color="white" stop-opacity="0.66"/>
<stop offset="0.65" stop-color="white" stop-opacity="0.31"/>
<stop offset="0.89" stop-color="white" stop-opacity="0.09"/>
<stop offset="1" stop-color="white" stop-opacity="0"/>
</linearGradient>
</defs>
</svg>
