<svg width="32" height="32" viewBox="0 0 32 32" fill="none" xmlns="http://www.w3.org/2000/svg">
<g clip-path="url(#clip0_5_50)">
<path d="M31.5926 16.0003L15.9997 26.1385L0.407425 16.0003L15.9997 5.86153L31.5926 15.9997V16.0003Z" fill="#2D3D4F"/>
<path d="M30.5046 16.0003L16.0003 25.4313L2.04683 16.3241L16.5511 6.89306L30.504 16.0003H30.5046Z" fill="url(#paint0_linear_5_50)"/>
<path d="M29.3784 16.7496L15.9997 25.4203L1.51225 16.0003L14.8909 7.32967L29.3784 16.7496Z" fill="url(#paint1_linear_5_50)"/>
<path d="M31.5251 16.0451L15.9322 26.1832L0.339951 16.0451L15.9329 5.9063L31.5258 16.0444L31.5251 16.0451Z" fill="url(#paint2_radial_5_50)"/>
<path d="M3.58505 15.1985C8.4929 11.9495 16.0062 6.96248 16.0062 6.96248L30.2354 15.9737C30.2354 15.9737 25.0551 15.5228 22.6702 16.3228C20.5468 17.0351 20.4631 15.096 18.5766 15.1492C17.1512 15.1894 13.9801 16.4343 13.3936 16.3507C11.57 16.0899 11.3234 14.8689 10.362 14.5341C7.28686 13.4643 1.37862 16.6582 3.58505 15.1978V15.1985Z" fill="url(#paint3_radial_5_50)"/>
<path d="M15.9783 10.0571C15.4411 10.0571 15.0038 10.4943 15.0038 11.0315C15.0038 11.5687 15.4411 12.0059 15.9783 12.0059C16.5154 12.0059 16.9527 11.5687 16.9527 11.0315C16.9527 10.4943 16.5154 10.0571 15.9783 10.0571ZM15.9783 11.4681C15.7376 11.4681 15.5417 11.2722 15.5417 11.0315C15.5417 10.7908 15.7376 10.5949 15.9783 10.5949C16.219 10.5949 16.4149 10.7908 16.4149 11.0315C16.4149 11.2722 16.219 11.4681 15.9783 11.4681ZM15.9783 8.87631C14.7904 8.87631 13.8237 9.84296 13.8237 11.0308C13.8237 12.2187 14.7904 13.1854 15.9783 13.1854C17.1661 13.1854 18.1328 12.2187 18.1328 11.0308C18.1328 9.84296 17.1661 8.87631 15.9783 8.87631ZM15.9783 13.0971C14.839 13.0971 13.9126 12.1707 13.9126 11.0315C13.9126 9.89227 14.839 8.96584 15.9783 8.96584C17.1175 8.96584 18.0439 9.89227 18.0439 11.0315C18.0439 12.1707 17.1175 13.0971 15.9783 13.0971ZM15.9783 8.2814C14.4621 8.2814 13.2282 9.51534 13.2282 11.0315C13.2282 12.5476 14.4621 13.7816 15.9783 13.7816C17.4944 13.7816 18.7284 12.5476 18.7284 11.0315C18.7284 9.51534 17.4944 8.2814 15.9783 8.2814ZM15.9783 13.692C14.5108 13.692 13.3171 12.4983 13.3171 11.0308C13.3171 9.56335 14.5108 8.36963 15.9783 8.36963C17.4458 8.36963 18.6395 9.56335 18.6395 11.0308C18.6395 12.4983 17.4458 13.692 15.9783 13.692ZM15.9783 9.44463C15.1024 9.44463 14.3921 10.155 14.3921 11.0308C14.3921 11.9067 15.1024 12.6171 15.9783 12.6171C16.8541 12.6171 17.5645 11.9067 17.5645 11.0308C17.5645 10.155 16.8541 9.44463 15.9783 9.44463ZM15.9783 12.1448C15.3639 12.1448 14.8643 11.6452 14.8643 11.0308C14.8643 10.4165 15.3639 9.91692 15.9783 9.91692C16.5926 9.91692 17.0922 10.4165 17.0922 11.0308C17.0922 11.6452 16.5926 12.1448 15.9783 12.1448ZM16.0516 11.0308C16.0516 11.0717 16.0185 11.1048 15.9776 11.1048C15.9367 11.1048 15.9037 11.0717 15.9037 11.0308C15.9037 10.99 15.9367 10.9569 15.9776 10.9569C16.0185 10.9569 16.0516 10.99 16.0516 11.0308Z" fill="#314556"/>
<path d="M15.9523 10.0246C15.4301 10.0246 15.0058 10.4496 15.0058 10.9712C15.0058 11.4928 15.4307 11.9177 15.9523 11.9177C16.4739 11.9177 16.8989 11.4928 16.8989 10.9712C16.8989 10.4496 16.4739 10.0246 15.9523 10.0246ZM15.9523 11.3961C15.7181 11.3961 15.528 11.2054 15.528 10.9718C15.528 10.7383 15.7188 10.5475 15.9523 10.5475C16.1859 10.5475 16.3766 10.7383 16.3766 10.9718C16.3766 11.2054 16.1859 11.3961 15.9523 11.3961ZM15.9523 8.87761C14.7975 8.87761 13.8581 9.81701 13.8581 10.9718C13.8581 12.1266 14.7975 13.066 15.9523 13.066C17.1071 13.066 18.0465 12.1266 18.0465 10.9718C18.0465 9.81701 17.1071 8.87761 15.9523 8.87761ZM15.9523 12.9797C14.8449 12.9797 13.9444 12.0792 13.9444 10.9718C13.9444 9.86437 14.8449 8.9639 15.9523 8.9639C17.0597 8.9639 17.9602 9.86437 17.9602 10.9718C17.9602 12.0792 17.0597 12.9797 15.9523 12.9797ZM15.9523 8.29892C14.4783 8.29892 13.2794 9.49782 13.2794 10.9718C13.2794 12.4458 14.4783 13.6447 15.9523 13.6447C17.4263 13.6447 18.6252 12.4458 18.6252 10.9718C18.6252 9.49782 17.4263 8.29892 15.9523 8.29892ZM15.9523 13.5584C14.5263 13.5584 13.3657 12.3978 13.3657 10.9718C13.3657 9.54583 14.5263 8.3852 15.9523 8.3852C17.3783 8.3852 18.5389 9.54583 18.5389 10.9718C18.5389 12.3978 17.3783 13.5584 15.9523 13.5584ZM15.9523 9.42971C15.1005 9.42971 14.4102 10.12 14.4102 10.9718C14.4102 11.8236 15.1005 12.5139 15.9523 12.5139C16.8041 12.5139 17.4944 11.8236 17.4944 10.9718C17.4944 10.12 16.8041 9.42971 15.9523 9.42971ZM15.9523 12.0539C15.3555 12.0539 14.8695 11.568 14.8695 10.9712C14.8695 10.3743 15.3555 9.88838 15.9523 9.88838C16.5492 9.88838 17.0351 10.3743 17.0351 10.9712C17.0351 11.568 16.5492 12.0539 15.9523 12.0539ZM16.0237 10.9718C16.0237 11.0114 15.9919 11.0432 15.9523 11.0432C15.9127 11.0432 15.881 11.0114 15.881 10.9718C15.881 10.9322 15.9127 10.9004 15.9523 10.9004C15.9919 10.9004 16.0237 10.9322 16.0237 10.9718Z" fill="url(#paint4_linear_5_50)"/>
<path d="M6.46941 17.0825L6.39091 16.5096L6.74838 16.7289C6.90538 16.7743 7.01372 16.7931 7.13309 16.7931C7.31994 16.7931 7.41725 16.7172 7.41725 16.592C7.41725 16.4668 7.34978 16.4032 7.05135 16.3208C6.60695 16.1988 6.3987 16.0191 6.3987 15.6597C6.3987 15.3003 6.64523 15.0447 7.16553 15.0447C7.40363 15.0447 7.60734 15.0752 7.80196 15.118L7.87527 15.6662L7.53143 15.4716C7.42568 15.4411 7.32253 15.4262 7.209 15.4262C7.03578 15.4262 6.9216 15.493 6.9216 15.6091C6.9216 15.7253 6.98128 15.7947 7.27906 15.8771C7.73968 16.0049 7.94015 16.1969 7.94015 16.5317C7.94015 16.9157 7.66378 17.1746 7.16294 17.1713C6.84894 17.1713 6.63225 17.1168 6.46941 17.0831V17.0825ZM8.19511 16.8113V15.4041L8.12764 15.0966H9.07872C9.56334 15.0966 9.76705 15.3191 9.76705 15.794C9.76705 16.2689 9.55037 16.4791 9.05991 16.4791H8.71023V16.8113L8.81857 17.1188H8.12764L8.19511 16.8113ZM8.99179 16.1048C9.19225 16.1048 9.26297 16.0315 9.26297 15.8031C9.26297 15.5747 9.19225 15.4774 8.99763 15.4774H8.70244V16.1048H8.99244H8.99179ZM9.91302 16.1074C9.91302 15.4223 10.2543 15.0382 10.8446 15.0382C11.435 15.0382 11.7711 15.4223 11.7711 16.1074C11.7711 16.7925 11.4272 17.1798 10.8446 17.1798C10.2621 17.1798 9.91302 16.7931 9.91302 16.1074ZM11.2345 16.1074C11.2345 15.6292 11.0912 15.4554 10.8446 15.4554C10.5981 15.4554 10.4489 15.6292 10.4489 16.1074C10.4489 16.5855 10.5949 16.7561 10.8362 16.7561C11.0775 16.7561 11.2345 16.5855 11.2345 16.1074ZM13.7653 17.1188H13.0744L13.0498 16.8599L12.7955 16.3876H12.5489V16.8113L12.6164 17.1188H11.9663L12.0338 16.8113V15.4041L11.9663 15.0966H12.9414C13.4209 15.0966 13.6239 15.3191 13.6239 15.733C13.6239 15.9919 13.5071 16.1898 13.2554 16.2754L13.7647 17.1188H13.7653ZM12.8253 16.001C13.0147 16.001 13.1231 15.9251 13.1231 15.7421C13.1231 15.5592 13.0498 15.4709 12.8603 15.4709H12.5379V16.001H12.8253ZM14.8624 15.5073V16.8106L14.9733 17.1181H14.2389L14.3473 16.8106V15.5073H14.0547L13.7783 15.5897L13.8458 15.096H15.3652L15.4327 15.5897L15.1563 15.5073H14.8611H14.8624ZM17.4224 17.1188L17.3192 17.0059C17.1324 17.1097 16.9345 17.1707 16.7665 17.1707C16.276 17.1707 16.0483 16.9423 16.0483 16.653C16.0483 16.4305 16.1619 16.254 16.4603 16.062C16.2975 15.8946 16.1677 15.7512 16.1677 15.5442C16.1677 15.2335 16.4493 15.0389 16.8859 15.0389C17.3225 15.0389 17.6307 15.2153 17.6307 15.4988C17.6307 15.7181 17.5171 15.8855 17.0967 16.0899L17.4516 16.4616C17.4788 16.4279 17.5028 16.3948 17.5191 16.3643L17.4918 16.0658L17.9849 16.0626C17.9849 16.3033 17.8655 16.5284 17.6923 16.7146L18.0796 17.1194H17.4211L17.4224 17.1188ZM17.0896 16.7503L16.6971 16.3176C16.5862 16.4058 16.5375 16.4882 16.5375 16.5823C16.5349 16.7133 16.651 16.8074 16.8515 16.8074C16.9326 16.8074 17.0111 16.786 17.0896 16.7496V16.7503ZM16.6588 15.5533C16.6588 15.6357 16.7237 15.7025 16.8619 15.8427C17.0837 15.7272 17.1707 15.6416 17.1707 15.5475C17.1707 15.4534 17.0734 15.3827 16.9053 15.3827C16.7373 15.3827 16.6588 15.4651 16.6588 15.5533ZM19.7904 16.0256L19.972 15.9828V16.4577L19.7904 16.4149H19.2512V16.8106L19.3622 17.1181H18.6713L18.7361 16.8106V15.4035L18.6713 15.096H20.1096L20.1744 15.5741L19.9007 15.4917H19.2506V16.025H19.7897L19.7904 16.0256ZM20.395 16.8113V15.4041L20.3301 15.0966H20.9776L20.9101 15.4041V16.8113L20.9776 17.1188H20.3301L20.395 16.8113ZM22.7519 16.6406L22.6871 17.1188H21.1891L21.254 16.8113V15.4041L21.1891 15.0966H22.6572L22.7195 15.5747L22.4457 15.4923H21.7658V15.9037H22.2427L22.4243 15.8582V16.3305L22.2427 16.2851H21.7658V16.7237H22.4756L22.7519 16.6413V16.6406ZM24.3343 16.6251L24.2668 17.1188H22.9148L22.9797 16.8113V15.4041L22.9148 15.0966H23.5622L23.4948 15.4041V16.7075H24.0585L24.3349 16.6251H24.3343ZM24.5263 16.8113V15.4041L24.4614 15.0966H25.2549C25.9458 15.0966 26.2436 15.4132 26.2436 16.108C26.2436 16.8028 25.9458 17.1194 25.2549 17.1194H24.4614L24.5263 16.8119V16.8113ZM25.2795 16.7166C25.5831 16.7166 25.7129 16.5764 25.7129 16.1074C25.7129 15.6383 25.5909 15.4949 25.2873 15.4949H25.0382V16.7166H25.2795ZM14.067 17.9103H14.3538V17.8136H14.067V17.6326H14.4615V17.5333H13.971V18.2385H14.4621V18.1393H14.067V17.9096V17.9103ZM14.8884 17.8473L14.8001 17.8246C14.7177 17.8032 14.6788 17.7766 14.6782 17.7221C14.6782 17.6592 14.7378 17.6248 14.8241 17.6242C14.8916 17.6242 14.9552 17.6475 15.011 17.6858L15.0603 17.6015C14.9954 17.5567 14.9065 17.5256 14.8157 17.5262C14.6775 17.5269 14.575 17.6054 14.5756 17.7195C14.5756 17.8233 14.6379 17.8863 14.7722 17.9206L14.8553 17.9421C14.9474 17.9661 14.9824 17.9881 14.9811 18.0472C14.9798 18.1114 14.9208 18.149 14.8332 18.1497C14.7534 18.1503 14.6678 18.125 14.601 18.0796L14.5484 18.1646C14.6217 18.2165 14.7275 18.2489 14.8293 18.2483C14.9792 18.2483 15.0823 18.1665 15.0817 18.0465C15.0817 17.9388 15.0226 17.8817 14.8896 17.848L14.8884 17.8473ZM15.142 17.6339H15.3613V18.2392H15.4573V17.6339H15.6759V17.5346H15.1414V17.6339H15.142ZM16.9495 18.0011C17.037 17.8713 17.0714 17.8026 17.0714 17.7273C17.0714 17.6034 16.9936 17.5236 16.8813 17.5236C16.8119 17.5236 16.7444 17.5593 16.6925 17.6157L16.7321 17.7027C16.7782 17.6514 16.8242 17.6248 16.8703 17.6235C16.9306 17.6216 16.9735 17.665 16.9754 17.7306C16.9774 17.7844 16.9514 17.8337 16.8911 17.9232C16.8275 18.016 16.7451 18.1386 16.6763 18.2385H17.0909V18.1425H16.8463L16.9488 18.0004L16.9495 18.0011ZM17.4127 17.5204C17.2706 17.5204 17.1921 17.6663 17.1921 17.8863C17.1921 18.1062 17.2706 18.2515 17.4127 18.2515C17.5547 18.2515 17.6339 18.1062 17.6339 17.8863C17.6339 17.6663 17.5554 17.5204 17.4127 17.5204ZM17.4127 18.16C17.3316 18.16 17.2881 18.0459 17.2881 17.8869C17.2881 17.728 17.3309 17.6131 17.4127 17.6131C17.4944 17.6131 17.5372 17.7267 17.5372 17.8869C17.5372 18.0472 17.4944 18.16 17.4127 18.16ZM17.9829 18.0011C18.0705 17.8713 18.1049 17.8026 18.1049 17.7273C18.1049 17.6034 18.027 17.5236 17.9148 17.5236C17.8454 17.5236 17.7779 17.5593 17.726 17.6157L17.7656 17.7027C17.8117 17.6514 17.8577 17.6248 17.9038 17.6235C17.9641 17.6216 18.0069 17.665 18.0089 17.7306C18.0108 17.7844 17.9849 17.8337 17.9245 17.9232C17.861 18.016 17.7786 18.1386 17.7098 18.2385H18.1244V18.1425H17.8798L17.9823 18.0004L17.9829 18.0011ZM18.5701 17.9563V17.5346H18.4987L18.1938 17.968V18.0498H18.4734V18.2392H18.5701V18.0498H18.6641V17.9563H18.5701ZM18.4734 17.9563H18.2937L18.4734 17.7046V17.9563ZM15.962 17.5496H15.8316V17.9823H15.962C16.1009 17.9823 16.1833 17.8902 16.1833 17.7669C16.1833 17.6436 16.1015 17.5489 15.962 17.5496ZM15.962 17.9213H15.8907V17.6099H15.962C16.0723 17.6105 16.1236 17.6761 16.1236 17.7669C16.1236 17.8577 16.0717 17.9213 15.962 17.9213ZM16.025 18.0991L16.023 18.0971C15.9841 18.0394 15.8479 18.0939 15.8206 18.1055L15.8427 18.1711C15.9114 18.1419 15.962 18.1386 15.9757 18.1432L15.9776 18.1451C16.0165 18.2029 16.1528 18.1484 16.18 18.1367L16.158 18.0712C16.0892 18.1004 16.0386 18.1036 16.025 18.0991Z" fill="#324758"/>
<path d="M15.9997 25.6454L15.9465 25.611L1.16582 16.0003L15.9997 6.35459L16.0529 6.38898L30.8342 15.9997L30.709 16.0814L16.0003 25.6454H15.9997ZM1.52263 16.0003L15.9997 25.4132L30.4767 16.0003L15.9997 6.58685L1.52263 16.0003Z" fill="url(#paint5_linear_5_50)"/>
<path d="M6.32668 16.9559L6.24818 16.3831L6.60565 16.6024C6.76265 16.6478 6.87099 16.6666 6.99036 16.6666C7.17721 16.6666 7.27452 16.5907 7.27452 16.4655C7.27452 16.3403 7.20705 16.2767 6.90862 16.1943C6.46422 16.0723 6.25597 15.8926 6.25597 15.5332C6.25597 15.1738 6.5025 14.9182 7.0228 14.9182C7.2609 14.9182 7.46461 14.9487 7.65923 14.9915L7.73254 15.5397L7.3887 15.3451C7.28295 15.3146 7.1798 15.2997 7.06627 15.2997C6.89305 15.2997 6.77887 15.3665 6.77887 15.4826C6.77887 15.5987 6.83855 15.6682 7.13633 15.7506C7.59695 15.8784 7.79742 16.0704 7.79742 16.4052C7.79742 16.7892 7.52105 17.0481 7.02021 17.0448C6.70621 17.0448 6.48952 16.9903 6.32668 16.9566V16.9559ZM8.05238 16.6854V15.2783L7.98491 14.9707H8.93599C9.42061 14.9707 9.62432 15.1933 9.62432 15.6682C9.62432 16.1431 9.40764 16.3533 8.91718 16.3533H8.56749V16.6854L8.67584 16.9929H7.98491L8.05238 16.6854ZM8.84841 15.9783C9.04887 15.9783 9.11959 15.905 9.11959 15.6766C9.11959 15.4482 9.04887 15.3509 8.85425 15.3509H8.55906V15.9783H8.84906H8.84841ZM9.76964 15.9815C9.76964 15.2964 10.1109 14.9124 10.7013 14.9124C11.2916 14.9124 11.6277 15.2964 11.6277 15.9815C11.6277 16.6666 11.2838 17.0539 10.7013 17.0539C10.1187 17.0539 9.76964 16.6673 9.76964 15.9815ZM11.0918 15.9815C11.0918 15.5034 10.9484 15.3295 10.7019 15.3295C10.4554 15.3295 10.3062 15.5034 10.3062 15.9815C10.3062 16.4597 10.4521 16.6303 10.6935 16.6303C10.9348 16.6303 11.0918 16.4597 11.0918 15.9815ZM13.622 16.9929H12.931L12.9064 16.7341L12.6521 16.2618H12.4055V16.6854L12.473 16.9929H11.823L11.8904 16.6854V15.2783L11.823 14.9707H12.798C13.2775 14.9707 13.4805 15.1933 13.4805 15.6072C13.4805 15.866 13.3638 16.0639 13.112 16.1495L13.6213 16.9929H13.622ZM12.6826 15.8751C12.872 15.8751 12.9803 15.7992 12.9803 15.6163C12.9803 15.4333 12.907 15.3451 12.7176 15.3451H12.3952V15.8751H12.6826ZM14.7197 15.3814V16.6848L14.8306 16.9923H14.0962L14.2046 16.6848V15.3814H13.912L13.6356 15.4638L13.7031 14.9701H15.2225L15.2899 15.4638L15.0136 15.3814H14.7184H14.7197ZM17.2797 16.9929L17.1765 16.88C16.9897 16.9838 16.7918 17.0448 16.6238 17.0448C16.1333 17.0448 15.9056 16.8165 15.9056 16.5271C15.9056 16.3046 16.0191 16.1281 16.3176 15.9361C16.1547 15.7687 16.025 15.6253 16.025 15.4184C16.025 15.1076 16.3065 14.913 16.7431 14.913C17.1798 14.913 17.4879 15.0895 17.4879 15.373C17.4879 15.5923 17.3744 15.7596 16.954 15.964L17.3089 16.3357C17.3361 16.302 17.3601 16.2689 17.3763 16.2384L17.3491 15.94L17.8421 15.9368C17.8421 16.1774 17.7228 16.4026 17.5496 16.5888L17.9369 16.9936H17.2784L17.2797 16.9929ZM16.9469 16.6244L16.5544 16.1917C16.4434 16.2799 16.3948 16.3623 16.3948 16.4564C16.3922 16.5875 16.5083 16.6815 16.7088 16.6815C16.7899 16.6815 16.8684 16.6601 16.9469 16.6238V16.6244ZM16.5161 15.4275C16.5161 15.5099 16.581 15.5767 16.7191 15.7168C16.941 15.6013 17.028 15.5157 17.028 15.4216C17.028 15.3276 16.9306 15.2569 16.7626 15.2569C16.5946 15.2569 16.5161 15.3392 16.5161 15.4275ZM19.6476 15.8991L19.8293 15.8563V16.3312L19.6476 16.2884H19.1085V16.6841L19.2195 16.9916H18.5285L18.5934 16.6841V15.277L18.5285 14.9695H19.9668L20.0317 15.4476L19.7579 15.3652H19.1079V15.8985H19.647L19.6476 15.8991ZM20.2523 16.6854V15.2783L20.1874 14.9707H20.8349L20.7674 15.2783V16.6854L20.8349 16.9929H20.1874L20.2523 16.6854ZM22.6092 16.5148L22.5443 16.9929H21.0464L21.1112 16.6854V15.2783L21.0464 14.9707H22.5145L22.5768 15.4489L22.303 15.3665H21.6231V15.7778H22.0999L22.2816 15.7324V16.2047L22.0999 16.1593H21.6231V16.5978H22.3328L22.6092 16.5154V16.5148ZM24.1909 16.4992L24.1234 16.9929H22.7714L22.8363 16.6854V15.2783L22.7714 14.9707H23.4189L23.3514 15.2783V16.5816H23.9152L24.1915 16.4992H24.1909ZM24.3836 16.6854V15.2783L24.3187 14.9707H25.1121C25.8031 14.9707 26.1008 15.2873 26.1008 15.9822C26.1008 16.677 25.8031 16.9936 25.1121 16.9936H24.3187L24.3836 16.6861V16.6854ZM25.1368 16.5907C25.4404 16.5907 25.5702 16.4506 25.5702 15.9815C25.5702 15.5125 25.4482 15.3691 25.1446 15.3691H24.8954V16.5907H25.1368Z" fill="url(#paint6_linear_5_50)"/>
<path d="M15.9997 26.4032L15.9426 26.3662L0 16.0003L15.9997 5.59684L16.0568 5.63382L31.9994 15.9997L31.8638 16.0879L15.999 26.4032H15.9997ZM0.385362 16.0003L16.0003 26.1534L31.6153 16.0003L15.9997 5.84726L0.385362 16.0003Z" fill="url(#paint7_linear_5_50)"/>
<path d="M16.0613 22.7643C16.0561 22.7643 16.0509 22.7643 16.0464 22.7636C15.7531 22.7318 15.6454 22.484 15.5592 22.2842C15.5391 22.2381 15.5202 22.1947 15.5001 22.1551L15.4975 22.1493L15.4962 22.1428C15.4443 21.8197 15.1161 21.664 14.8261 21.5264C14.7923 21.5102 14.7586 21.4947 14.7262 21.4784C14.6697 21.4908 14.6133 21.5005 14.5575 21.5076C14.6107 21.52 14.6587 21.5569 14.6996 21.6179L14.7184 21.6452L14.695 21.6685C14.5406 21.8223 14.4673 21.928 14.4718 21.991C14.4744 22.0279 14.5056 22.0539 14.5568 22.0928C14.6282 22.1467 14.7255 22.2213 14.7177 22.3822V22.3906L14.7132 22.3984C14.6769 22.4704 14.6295 22.5067 14.5718 22.5067C14.4426 22.5067 14.3122 22.3114 14.2078 22.1551C14.1715 22.1012 14.1403 22.0545 14.1189 22.0312L14.1059 22.0176L14.1085 21.9987C14.128 21.8515 14.272 21.5855 14.4394 21.5187C14.407 21.5206 14.3752 21.5213 14.3434 21.5213C14.0631 21.5213 13.6849 21.4473 13.4721 21.0976C13.4643 21.0898 13.4591 21.0814 13.4572 21.073L13.3553 20.903L13.4987 21.0165L13.5136 21.0094L13.5337 21.0438C13.6045 21.0911 14.0274 21.278 14.3895 21.278C14.4076 21.278 14.4251 21.278 14.4426 21.2767C14.1494 21.2287 13.8691 21.1631 13.7336 20.9821L13.657 20.8803L13.8276 20.9361C13.8043 20.9056 13.7855 20.8706 13.779 20.829L13.7712 20.7817H13.8192C13.8581 20.783 13.897 20.7869 13.9353 20.7901C13.9768 20.794 14.0164 20.7972 14.056 20.7972C13.8893 20.7447 13.7517 20.661 13.6265 20.4949L13.5954 20.4534L13.7349 20.3963C13.6687 20.3885 13.598 20.3743 13.5273 20.3489C13.5292 20.4106 13.5428 20.4638 13.5701 20.5131L13.5837 20.5384L13.5357 20.5903L13.5078 20.5734C13.4565 20.5429 13.404 20.5092 13.3501 20.4748C13.1425 20.3418 12.9278 20.2043 12.7079 20.2043C12.6378 20.2043 12.5716 20.2179 12.5074 20.2464C12.5184 20.2516 12.5308 20.2568 12.5424 20.262C12.5671 20.2724 12.5924 20.2828 12.6164 20.2977L12.7358 20.3717C12.9265 20.3892 13.1049 20.4716 13.3132 20.7382L13.2548 20.7927C12.9758 20.5416 12.7922 20.5079 12.6501 20.5079C12.5924 20.5079 12.5359 20.5144 12.4815 20.5202C12.4263 20.5267 12.3686 20.5332 12.3095 20.5332C12.196 20.5332 12.0948 20.5085 11.9916 20.4553C11.6433 20.3009 11.5725 20.2211 11.5738 20.1485C11.5751 20.0615 11.6822 20.0181 11.8307 19.9577C11.9923 19.8922 12.1934 19.8105 12.2719 19.658L12.2745 19.6528L12.2784 19.6483C12.3802 19.5425 12.4549 19.49 12.5042 19.455C12.5708 19.4078 12.598 19.2698 12.5859 19.0411C12.584 19.0183 12.5775 18.9373 12.5749 18.8782L12.569 18.7582L12.6456 18.851C12.6793 18.8918 12.7221 18.96 12.7669 19.032C12.7883 19.0657 12.8097 19.1007 12.8298 19.1312C12.8311 19.1124 12.8324 19.0936 12.8331 19.0741C12.8363 19.0164 12.8396 18.9587 12.8448 18.9087L12.8558 18.8043L12.9174 18.8899C13.0264 19.0417 13.1036 19.1708 13.1646 19.274C13.356 19.5957 13.4351 19.7287 14.0625 19.8455L14.0722 19.8475L14.08 19.8539C14.2149 19.9616 14.3434 20.0135 14.4744 20.0135C14.6418 20.0135 14.7904 19.9286 14.9344 19.8462C15.0174 19.7988 15.0959 19.754 15.177 19.7248C15.5832 19.5808 15.9452 19.5166 16.3506 19.5166C16.4214 19.5166 16.4953 19.5185 16.5699 19.5224C17.0481 19.5289 17.5301 19.7326 17.9965 19.9292C18.4526 20.1219 18.9243 20.3211 19.3739 20.3211C19.7067 20.3211 20.0019 20.2134 20.2756 19.9908L20.3476 19.9324L20.3405 20.0298C20.3801 19.9779 20.4158 19.935 20.4586 19.935C20.4703 19.935 20.4995 19.9389 20.517 19.9759L20.5202 19.983V19.9908C20.5527 20.4093 20.4145 20.7629 20.1491 20.9503C20.1744 20.9692 20.1997 20.9893 20.2179 21.0198L20.2464 21.0665L20.1932 21.0795C19.8098 21.1748 19.5095 21.2196 19.2474 21.2196C18.5843 21.2196 18.112 20.9309 17.7176 20.2834L17.7143 20.2782L17.713 20.2724C17.6936 20.1978 17.6391 20.1634 17.5444 20.1264C17.5444 20.1264 17.5444 20.1264 17.5437 20.1264C17.5976 20.4618 17.4626 20.7648 17.1616 20.9763C17.1603 20.9821 17.1622 20.9893 17.1687 20.9964C17.1804 21.0087 17.1986 21.0321 17.2206 21.06C17.2641 21.1145 17.3238 21.1897 17.3724 21.2352C17.4049 21.265 17.4464 21.2864 17.4905 21.3098C17.5145 21.3221 17.5385 21.3344 17.5612 21.3487C17.5749 21.3571 17.5995 21.3746 17.6144 21.4025C17.6235 21.4188 17.6306 21.4363 17.6378 21.4538C17.6443 21.4687 17.6501 21.4843 17.6579 21.4985C17.6774 21.5336 17.6923 21.5881 17.6521 21.653L17.6462 21.662C17.6138 21.7139 17.58 21.7671 17.5431 21.8171C17.4347 21.9624 17.3316 22.1058 17.266 22.2667C17.257 22.2881 17.255 22.3147 17.2524 22.3432C17.2511 22.3543 17.2505 22.3659 17.2492 22.377C17.2472 22.3919 17.2459 22.4075 17.2453 22.4224C17.244 22.4386 17.2427 22.4548 17.2407 22.4717C17.2381 22.4905 17.231 22.5093 17.22 22.5236C17.1979 22.5534 17.1746 22.5826 17.1512 22.6118L17.135 22.6326C17.1188 22.6527 17.0961 22.6819 17.0545 22.6819C17.0455 22.6819 17.0364 22.6806 17.0267 22.6773C17.0215 22.676 17.0163 22.6741 17.0117 22.6722C17.0065 22.6838 16.9962 22.6962 16.9793 22.7072C16.9696 22.7137 16.9572 22.7169 16.9443 22.7169C16.9358 22.7169 16.928 22.7156 16.9216 22.7124C16.8359 22.6747 16.7899 22.6131 16.7853 22.5301C16.784 22.5106 16.7821 22.4905 16.7795 22.471C16.7769 22.4496 16.7743 22.4282 16.7736 22.4075C16.7736 22.3977 16.773 22.364 16.7925 22.338C16.8392 22.2764 16.8872 22.2154 16.9345 22.1551L16.9916 22.0824C16.9955 22.0772 17.0001 22.0714 17.002 22.0669C17.0578 21.9436 17.1136 21.821 17.1687 21.6977C17.1791 21.6744 17.1798 21.653 17.1493 21.6186C17.1045 21.5673 17.0481 21.5219 16.967 21.47C16.8917 21.422 16.8379 21.3896 16.7587 21.3409L16.6458 21.2721C16.4992 21.1826 16.3279 20.914 16.2974 20.8654C16.2105 20.8063 16.1002 20.7745 15.9763 20.7745C15.7051 20.7745 15.4022 20.9225 15.2439 21.1294C15.3769 21.3124 15.5189 21.4512 15.6772 21.553L15.6811 21.5556L15.6844 21.5589C15.7771 21.6555 15.8252 21.7834 15.8654 21.9138L15.8712 21.9099C15.8887 21.8975 15.9062 21.8852 15.9251 21.8729C16.0204 21.8087 16.119 21.7425 16.1515 21.6426L16.1528 21.638L16.1554 21.6335C16.1975 21.5673 16.145 21.2319 16.073 20.9594C16.0555 20.8939 16.0496 20.8504 16.0717 20.8219C16.0827 20.8076 16.0989 20.7998 16.1177 20.7998C16.156 20.7998 16.206 20.8316 16.3234 20.9309C16.3669 20.9679 16.4032 21.023 16.4382 21.0762C16.4739 21.1314 16.5109 21.1878 16.5518 21.2163L16.5719 21.2287C16.6225 21.2598 16.653 21.2825 16.6419 21.3636C16.6199 21.8995 16.6186 21.9319 16.3377 22.0312C16.254 22.061 16.1398 22.1012 15.988 22.1759L15.9562 22.1914C16.0107 22.3257 16.0892 22.4373 16.2443 22.4924L16.267 22.5002L16.2708 22.5236C16.2799 22.58 16.2637 22.6371 16.2241 22.6832C16.1813 22.7338 16.1164 22.7662 16.0594 22.7662L16.0613 22.7643ZM20.0583 20.8225L20.0421 20.8427C20.0259 20.8628 20.009 20.8809 19.9915 20.8984C20.2659 20.7032 20.3652 20.4339 20.3665 20.2134C20.3094 20.2633 20.2425 20.2951 20.1816 20.3198L20.0888 20.3574L20.1271 20.2717C20.0583 20.312 19.9856 20.3405 19.9149 20.3678C19.8539 20.3918 19.7956 20.4145 19.7398 20.4437C19.7527 20.443 19.7651 20.4417 19.778 20.4411C19.8202 20.4385 19.8643 20.4352 19.9078 20.4352C19.9402 20.4352 19.9694 20.4365 19.9973 20.4404L20.0635 20.4482L20.0259 20.5034C19.9311 20.6415 19.791 20.7453 19.6561 20.8251C19.7638 20.8174 19.8682 20.7946 19.9779 20.7706L20.0285 20.7596L20.0589 20.8219L20.0583 20.8225ZM12.5061 20.371C12.4393 20.371 12.3699 20.373 12.2998 20.3833C12.3608 20.3827 12.4192 20.3788 12.4756 20.3749C12.497 20.3736 12.5178 20.3723 12.5385 20.371C12.5275 20.371 12.5165 20.371 12.5061 20.371Z" fill="url(#paint8_linear_5_50)"/>
<path d="M12.6151 18.8763C12.6793 18.9541 12.787 19.1526 12.8519 19.2311C12.8551 19.2311 12.859 19.2311 12.8623 19.2311C12.872 19.1397 12.8746 19.0099 12.885 18.9126C13.3313 19.5322 13.2035 19.7255 14.0553 19.8844C14.2104 20.0084 14.3479 20.0531 14.4751 20.0531C14.7508 20.0531 14.972 19.8403 15.1913 19.7625C15.5871 19.6223 15.9471 19.5562 16.3513 19.5562C16.422 19.5562 16.4947 19.5581 16.5686 19.562C17.5119 19.5743 18.4591 20.3606 19.3745 20.3606C19.6879 20.3606 19.9973 20.2685 20.3016 20.0213C20.299 20.0596 20.2964 20.0953 20.2938 20.131C20.2964 20.1323 20.299 20.1342 20.3016 20.1355C20.3412 20.1135 20.4151 19.974 20.4599 19.974C20.4683 19.974 20.4761 19.9792 20.4826 19.9921C20.5098 20.3509 20.4099 20.7492 20.0817 20.9458C20.118 20.9776 20.1608 20.999 20.1855 21.0392C19.8455 21.1242 19.5348 21.1781 19.2493 21.1781C18.6544 21.1781 18.1698 20.9432 17.7539 20.2607C17.7286 20.1621 17.6495 20.1219 17.5612 20.0875C17.5521 20.0843 17.5444 20.0823 17.5372 20.0823C17.5165 20.0823 17.5041 20.0972 17.5054 20.1245C17.5606 20.4651 17.4133 20.7538 17.1324 20.9478C17.1324 20.9478 17.1071 20.9847 17.1415 21.0217C17.1759 21.0593 17.2719 21.1923 17.3478 21.2631C17.4023 21.3137 17.4775 21.3416 17.5431 21.3811C17.5586 21.3902 17.5736 21.4045 17.582 21.4194C17.5989 21.4499 17.6086 21.4849 17.6261 21.5154C17.6488 21.5556 17.6436 21.5926 17.6209 21.6283C17.5865 21.6828 17.5521 21.7379 17.5139 21.7898C17.4055 21.9345 17.2998 22.0805 17.2317 22.2485C17.2167 22.2855 17.2167 22.3283 17.2115 22.3685C17.2077 22.4003 17.207 22.4321 17.2031 22.4633C17.2018 22.4743 17.1973 22.4866 17.1901 22.4957C17.1629 22.532 17.1337 22.5677 17.1052 22.6034C17.0915 22.6203 17.0786 22.6371 17.0558 22.6371C17.0507 22.6371 17.0455 22.6365 17.039 22.6345C17.0059 22.6248 16.9871 22.6047 16.9767 22.5735C16.9715 22.558 16.9663 22.5431 16.9566 22.5288C16.9469 22.5625 16.9585 22.5937 16.9728 22.6228C16.9845 22.6456 16.9748 22.6585 16.9579 22.6696C16.9546 22.6715 16.9495 22.6728 16.9449 22.6728C16.9423 22.6728 16.9404 22.6728 16.9384 22.6715C16.8742 22.643 16.8301 22.5988 16.8262 22.5242C16.8236 22.4834 16.8165 22.4425 16.8145 22.4016C16.8139 22.3873 16.8171 22.3698 16.8255 22.3588C16.8911 22.2732 16.9579 22.1882 17.0247 22.1032C17.0305 22.0961 17.0364 22.0883 17.0403 22.0798C17.0961 21.9566 17.1519 21.834 17.207 21.7107C17.2278 21.664 17.2141 21.6264 17.1811 21.5887C17.1259 21.5258 17.0597 21.4771 16.9903 21.433C16.8839 21.3649 16.8203 21.3279 16.6685 21.2345C16.5167 21.1417 16.3292 20.8336 16.3292 20.8336C16.2287 20.7622 16.1067 20.7311 15.9783 20.7311C15.6824 20.7311 15.3555 20.8984 15.1959 21.1262C15.323 21.3052 15.4716 21.4648 15.6571 21.5842C15.9108 21.8476 15.8122 22.3783 16.2319 22.5275C16.2501 22.6417 16.1366 22.7234 16.06 22.7234C16.0561 22.7234 16.0529 22.7234 16.0496 22.7234C15.7175 22.6877 15.6461 22.3549 15.5352 22.1363C15.4729 21.7483 15.0486 21.5933 14.7307 21.4356C14.6074 21.4635 14.4751 21.4804 14.3427 21.4804C14.0125 21.4804 13.6843 21.3746 13.5026 21.071C13.5636 21.119 14.0086 21.3175 14.3888 21.3175C14.4887 21.3175 14.5841 21.3039 14.6665 21.2702C14.32 21.2163 13.9243 21.1696 13.7653 20.9575C13.825 20.9769 13.8828 20.9958 13.9405 21.0146C13.9418 21.012 13.9431 21.0087 13.9438 21.0061C13.8957 20.9497 13.8302 20.8984 13.8179 20.8219C13.8977 20.8232 13.9775 20.8368 14.0553 20.8368C14.1157 20.8368 14.176 20.8284 14.235 20.8005C13.9872 20.7499 13.8153 20.6779 13.6583 20.4696C13.7368 20.4372 13.8127 20.406 13.8893 20.3749C13.8893 20.371 13.888 20.3671 13.8873 20.3639C13.7511 20.3626 13.6168 20.347 13.4877 20.288C13.4812 20.3762 13.4929 20.456 13.5337 20.5306C13.5318 20.5332 13.5298 20.5351 13.5273 20.5377C13.2768 20.3898 12.9972 20.1634 12.7066 20.1634C12.6144 20.1634 12.521 20.1861 12.427 20.2413C12.4711 20.286 12.5392 20.2971 12.5937 20.3314C12.5638 20.3314 12.5334 20.3301 12.5035 20.3301C12.3562 20.3301 12.2103 20.3418 12.0688 20.408C12.1428 20.4197 12.2122 20.4229 12.2784 20.4229C12.4127 20.4229 12.5314 20.4067 12.6449 20.4067C12.8532 20.4067 13.0439 20.4599 13.2807 20.7616C13.0089 20.517 12.8169 20.4664 12.6488 20.4664C12.5301 20.4664 12.4231 20.4917 12.3082 20.4917C12.2168 20.4917 12.1201 20.4755 12.0092 20.4184C11.0587 19.9973 12.0896 20.0979 12.3069 19.6749C12.6307 19.3395 12.654 19.5646 12.6255 19.0378C12.6229 19.0138 12.617 18.934 12.6144 18.875M20.166 20.2828C20.1835 20.2432 20.1984 20.2101 20.2134 20.1764C20.2095 20.1744 20.2049 20.1718 20.201 20.1699C20.022 20.3262 19.7858 20.334 19.6048 20.4865C19.6204 20.4871 19.6366 20.4878 19.6522 20.4878C19.7378 20.4878 19.8228 20.4761 19.9078 20.4761C19.9357 20.4761 19.9642 20.4774 19.9921 20.4806C19.8747 20.6526 19.6846 20.7693 19.5004 20.8641C19.5289 20.8667 19.5568 20.868 19.5841 20.868C19.7281 20.868 19.8656 20.8362 20.0051 20.8057C20.007 20.8096 20.009 20.8135 20.0109 20.8174C19.9409 20.9049 19.8468 20.9666 19.7534 21.0392C19.8488 21.0211 19.9363 21.0048 20.0272 20.9873C20.0038 20.9808 19.9837 20.975 19.9597 20.9679C20.3399 20.7298 20.4326 20.371 20.4008 20.1147C20.3431 20.1984 20.2607 20.2439 20.1666 20.2821M16.121 20.8381C16.1482 20.8381 16.2047 20.8783 16.3007 20.9594C16.3844 21.0301 16.4428 21.1858 16.5317 21.2475C16.59 21.2851 16.614 21.2877 16.605 21.3565C16.5745 22.0857 16.581 21.8404 15.9731 22.1376L15.8978 21.9404C16.0068 21.8638 16.1489 21.7872 16.193 21.653C16.2546 21.5556 16.1645 21.1314 16.1158 20.9471C16.0963 20.8744 16.0957 20.8381 16.121 20.8381ZM13.4974 21.0619C13.4994 21.0652 13.5013 21.0684 13.5032 21.0717C13.4968 21.0665 13.4948 21.0632 13.4974 21.0619ZM14.5166 21.5433C14.5685 21.5433 14.6204 21.5712 14.6671 21.6406C14.1228 22.1823 14.695 22.0176 14.6775 22.3809C14.647 22.4418 14.6107 22.4671 14.5718 22.4671C14.4219 22.4671 14.2318 22.0948 14.1488 22.0046C14.1695 21.8469 14.3453 21.544 14.5166 21.544M12.5236 18.6401L12.5353 18.8802C12.5379 18.9386 12.5444 19.0171 12.547 19.0449C12.5582 19.2577 12.5366 19.3836 12.4821 19.4225C12.4315 19.4582 12.3549 19.5121 12.2505 19.6204L12.2421 19.6288L12.2369 19.6392C12.1655 19.778 11.9722 19.8565 11.8165 19.9201C11.6595 19.9837 11.5362 20.0343 11.5343 20.1472C11.5323 20.2562 11.6484 20.3464 11.9761 20.4917C12.0844 20.5468 12.1908 20.5728 12.3102 20.5728C12.3718 20.5728 12.4302 20.5663 12.4866 20.5598C12.5424 20.5533 12.5956 20.5475 12.6508 20.5475C12.7857 20.5475 12.9596 20.5799 13.2288 20.8219L13.2496 20.8024L13.4202 21.0879C13.4234 21.0983 13.4299 21.1099 13.4403 21.121C13.6531 21.4668 14.0177 21.5524 14.3019 21.5595C14.1754 21.6763 14.0852 21.8709 14.069 21.9923L14.0638 22.0299L14.0891 22.0578C14.1079 22.0785 14.1397 22.1259 14.1734 22.1765C14.3135 22.3861 14.4316 22.5463 14.5711 22.5463C14.6224 22.5463 14.6944 22.5236 14.7482 22.4159L14.756 22.4003V22.3835C14.7657 22.2012 14.6541 22.1162 14.5802 22.0604C14.538 22.0286 14.5127 22.0078 14.5114 21.9884C14.5101 21.9657 14.5276 21.8917 14.7229 21.6971L14.7703 21.6504L14.7333 21.5952C14.7151 21.5686 14.6963 21.5466 14.6775 21.5297C14.6918 21.5271 14.7067 21.5239 14.721 21.5206C14.7495 21.5342 14.7787 21.5485 14.8085 21.5628C15.1031 21.7029 15.408 21.8476 15.456 22.1493L15.458 22.1616L15.4638 22.1726C15.4833 22.2109 15.5021 22.2544 15.5215 22.2998C15.6117 22.5087 15.7246 22.7688 16.0412 22.8032C16.0477 22.8039 16.0542 22.8045 16.0607 22.8045C16.1294 22.8045 16.206 22.7662 16.2566 22.7072C16.3039 22.652 16.3234 22.5839 16.3124 22.5152L16.3046 22.4684L16.2598 22.4522C16.1314 22.4068 16.0607 22.3192 16.01 22.2083C16.1586 22.1356 16.2708 22.0961 16.3532 22.0669C16.6588 21.9585 16.6621 21.9021 16.6848 21.3623C16.6854 21.3545 16.6861 21.3467 16.6867 21.3396C16.7062 21.3513 16.7237 21.3623 16.7406 21.372C16.8203 21.4207 16.8729 21.4525 16.9482 21.5005C17.026 21.5505 17.0792 21.5939 17.1214 21.6419C17.1408 21.664 17.1382 21.6692 17.1343 21.6783C17.0792 21.8015 17.0234 21.9241 16.9683 22.0474C16.967 22.0493 16.965 22.0519 16.9624 22.0545L16.9053 22.1278C16.8573 22.1888 16.81 22.2498 16.7633 22.3108C16.736 22.3465 16.7354 22.3899 16.736 22.4068C16.7373 22.4289 16.7399 22.4509 16.7425 22.473C16.7444 22.4918 16.747 22.5106 16.7477 22.5294C16.7516 22.5975 16.7827 22.6903 16.9079 22.7461C16.9203 22.7513 16.9332 22.7539 16.9469 22.7539C16.967 22.7539 16.9871 22.7481 17.0033 22.7377C17.0137 22.7305 17.0228 22.7234 17.0299 22.7156C17.039 22.7176 17.0481 22.7182 17.0565 22.7182C17.1175 22.7182 17.1499 22.6773 17.1674 22.6553L17.1856 22.6319C17.209 22.6027 17.2317 22.5742 17.2544 22.5444C17.2693 22.5242 17.279 22.4996 17.2823 22.4736C17.2842 22.4568 17.2855 22.4399 17.2868 22.423C17.2881 22.4081 17.2888 22.3938 17.2907 22.3796C17.292 22.3679 17.2933 22.3562 17.2946 22.3445C17.2972 22.3192 17.2991 22.2952 17.3056 22.2797C17.3698 22.1227 17.4665 21.9871 17.5781 21.8385C17.6164 21.7872 17.6501 21.7334 17.6832 21.6809L17.689 21.6711C17.7286 21.6075 17.7312 21.5381 17.6962 21.4758C17.6897 21.4648 17.6838 21.4505 17.678 21.4356C17.6709 21.4188 17.6631 21.3993 17.6527 21.3805C17.6332 21.3448 17.6021 21.3221 17.5846 21.3117C17.5606 21.2968 17.5353 21.2838 17.5119 21.2715C17.4704 21.2501 17.4308 21.2293 17.4029 21.2034C17.3562 21.1599 17.2978 21.0866 17.2557 21.0327C17.2407 21.0139 17.2278 20.9977 17.2174 20.9847C17.4886 20.7817 17.6203 20.5027 17.595 20.1894C17.6404 20.2127 17.6663 20.2387 17.6767 20.2802L17.68 20.2919L17.6864 20.3022C18.0893 20.9633 18.5713 21.2579 19.2506 21.2579C19.5159 21.2579 19.8196 21.2131 20.2062 21.1164L20.3126 21.0898L20.2549 20.9964C20.2432 20.9776 20.2302 20.9627 20.2166 20.9497C20.4664 20.7479 20.5948 20.397 20.5637 19.9863L20.5624 19.9714L20.5559 19.9578C20.5371 19.9182 20.5014 19.8942 20.4612 19.8942C20.4352 19.8942 20.4119 19.9033 20.3911 19.9188L20.3963 19.8423L20.2523 19.959C19.9856 20.1751 19.6989 20.2802 19.3758 20.2802C18.9347 20.2802 18.4877 20.0914 18.0147 19.8916C17.545 19.6931 17.0597 19.488 16.5732 19.4816C16.4986 19.4777 16.4246 19.4757 16.3532 19.4757C15.9432 19.4757 15.5773 19.5406 15.1667 19.6866C15.0823 19.7164 15.0019 19.7625 14.9175 19.8105C14.7781 19.8903 14.634 19.9727 14.4777 19.9727C14.3564 19.9727 14.2357 19.9234 14.1085 19.8215L14.093 19.8092L14.0735 19.8053C13.4637 19.6918 13.393 19.5717 13.2029 19.2526C13.1406 19.1481 13.064 19.0183 12.9537 18.8652L12.8305 18.694L12.8084 18.9035C12.8052 18.9347 12.8026 18.9684 12.8006 19.0034C12.7565 18.9327 12.715 18.8659 12.6806 18.8244L12.5269 18.6395L12.5236 18.6401ZM12.6203 20.2536C12.6488 20.2477 12.6787 20.2451 12.7085 20.2451C12.9168 20.2451 13.1263 20.3794 13.3294 20.5092C13.3845 20.5442 13.4358 20.5773 13.4883 20.6085L13.5441 20.6415L13.5882 20.5935L13.5947 20.5864L13.6233 20.5553C13.6894 20.6364 13.7595 20.6967 13.8348 20.7427C13.8296 20.7427 13.825 20.7427 13.8198 20.7427L13.7238 20.7408L13.7387 20.8355C13.7407 20.8465 13.7433 20.8569 13.7459 20.8673L13.548 20.8031L13.7011 21.0068C13.7387 21.0567 13.7855 21.0983 13.84 21.1333C13.705 21.0879 13.6012 21.0392 13.5636 21.0159L13.5298 20.9575L13.5032 20.9698L13.2671 20.7856L13.3449 20.7129C13.1309 20.4398 12.946 20.3522 12.7487 20.3321L12.6378 20.2633C12.632 20.2594 12.6261 20.2562 12.6196 20.2529L12.6203 20.2536ZM20.0687 20.4093L20.1965 20.3574C20.2367 20.3412 20.2795 20.3217 20.321 20.2964C20.3055 20.4313 20.249 20.6123 20.0797 20.7745L20.0778 20.7706L20.0499 20.7136L19.9882 20.7272L19.9688 20.7317C19.9201 20.7421 19.8721 20.7531 19.8247 20.7616C19.9123 20.696 19.9947 20.6188 20.0583 20.5261L20.1336 20.4164L20.0687 20.4086V20.4093ZM19.9519 20.397C19.9824 20.3853 20.0129 20.373 20.0434 20.3593L20.0233 20.4041L20.0012 20.4015C19.985 20.3996 19.9688 20.3983 19.9513 20.3976L19.9519 20.397ZM13.5766 20.4177C13.5759 20.4138 13.5746 20.4099 13.574 20.406C13.5804 20.408 13.5863 20.4093 13.5928 20.4112L13.5766 20.4177ZM15.2977 21.1281C15.4534 20.9426 15.7304 20.8122 15.9796 20.8122C15.9971 20.8122 16.0146 20.8122 16.0315 20.8141C16.0133 20.8524 16.0204 20.901 16.0379 20.9672C16.1126 21.2481 16.1541 21.5543 16.1249 21.6101L16.1197 21.6186L16.1171 21.6277C16.0885 21.7152 15.9958 21.7769 15.9062 21.8372C15.9011 21.8404 15.8959 21.8443 15.8907 21.8476C15.8518 21.7308 15.8031 21.6186 15.7168 21.529L15.7103 21.5226L15.7025 21.5174C15.5559 21.4226 15.4236 21.2948 15.2984 21.1281H15.2977Z" fill="#354A5B"/>
<path d="M10.7019 17.0053C10.1492 17.0053 9.81896 16.6225 9.81896 15.9815C9.81896 15.3405 10.1323 14.961 10.7019 14.961C11.2715 14.961 11.5797 15.3237 11.5797 15.9815C11.5797 16.6394 11.2598 17.0053 10.7019 17.0053ZM10.7019 15.2809C10.4074 15.2809 10.2575 15.5164 10.2575 15.9815C10.2575 16.4467 10.4002 16.6789 10.6935 16.6789C10.9867 16.6789 11.1405 16.4506 11.1405 15.9815C11.1405 15.5125 10.9971 15.2809 10.7019 15.2809ZM7.02021 16.9962C6.74709 16.9962 6.55181 16.9546 6.39481 16.9209L6.37016 16.9157L6.31047 16.4791L6.58619 16.6478L6.59268 16.6497C6.75552 16.6971 6.86711 16.7159 6.99102 16.7159C7.19927 16.7159 7.32383 16.6225 7.32383 16.4661C7.32383 16.2897 7.19408 16.2235 6.92225 16.1482C6.47785 16.0263 6.30528 15.8544 6.30528 15.5345C6.30528 15.1745 6.56673 14.9682 7.02346 14.9682C7.21873 14.9682 7.40298 14.9883 7.61642 15.033L7.67222 15.4502L7.40817 15.301L7.40233 15.2997C7.28945 15.2672 7.18305 15.2523 7.06628 15.2523C6.85932 15.2523 6.73022 15.3412 6.73022 15.4839C6.73022 15.6383 6.82948 15.7175 7.12337 15.7986C7.56777 15.9218 7.74877 16.0983 7.74877 16.4064C7.74877 16.7762 7.47953 16.9975 7.02865 16.9975H7.02021V16.9962ZM16.6244 16.9962C16.2053 16.9962 15.9556 16.821 15.9556 16.5271C15.9556 16.3143 16.0684 16.1554 16.3448 15.977L16.3948 15.9445L16.3533 15.9017C16.1846 15.7278 16.0743 15.6007 16.0743 15.4177C16.0743 15.1362 16.3305 14.961 16.7438 14.961C17.1571 14.961 17.4399 15.1226 17.4399 15.3723C17.4399 15.5579 17.3549 15.7142 16.9339 15.9192L16.8742 15.9484L17.3134 16.4084L17.3484 16.3656C17.3815 16.3247 17.4049 16.2903 17.4211 16.2605L17.4282 16.2475L17.4049 15.9873L17.7941 15.9848C17.7766 16.2267 17.6358 16.4266 17.5165 16.5544L17.4853 16.5881L17.8259 16.9443H17.303L17.1889 16.8191L17.1551 16.8379C16.9709 16.9397 16.7827 16.9962 16.6257 16.9962H16.6244ZM16.5239 16.1534C16.4026 16.2501 16.3455 16.3461 16.3455 16.4564C16.3442 16.5219 16.3675 16.5823 16.4142 16.6296C16.4791 16.6958 16.581 16.7308 16.7088 16.7308C16.7925 16.7308 16.8774 16.7107 16.9676 16.6685L17.0273 16.6406L16.5596 16.1255L16.5239 16.1541V16.1534ZM16.7626 15.2082C16.5446 15.2082 16.4674 15.3263 16.4674 15.4275C16.4674 15.5287 16.5446 15.6091 16.6848 15.7512L16.7101 15.7765L16.7419 15.7596C16.9832 15.6338 17.0766 15.5391 17.0766 15.421C17.0766 15.3146 16.9793 15.2075 16.7626 15.2075V15.2082ZM24.379 16.9443L24.4329 16.6906V15.2731L24.379 15.0194H25.1128C25.7719 15.0194 26.0528 15.3075 26.0528 15.9822C26.0528 16.6569 25.7719 16.9449 25.1128 16.9449H24.379V16.9443ZM24.8468 16.6394H25.1368C25.4839 16.6394 25.6188 16.4551 25.6188 15.9815C25.6188 15.5079 25.4904 15.3204 25.1452 15.3204H24.8474V16.6394H24.8468ZM22.8317 16.9443L22.8856 16.6906V15.2731L22.8317 15.0194H23.3585L23.3027 15.2731V16.6309H23.9217L24.1325 16.568L24.0806 16.9449H22.8311L22.8317 16.9443ZM21.1061 16.9443L21.1599 16.6906V15.2731L21.1061 15.0194H22.4717L22.519 15.3808L22.3108 15.3178H21.5751V15.8265H22.1064L22.2336 15.7947V16.1418L22.1064 16.11H21.5751V16.6458H22.3406L22.5515 16.5829L22.5022 16.9443H21.1067H21.1061ZM20.2471 16.9443L20.3009 16.6906V15.2731L20.2471 15.0194H20.7739L20.7181 15.2731V16.6906L20.7739 16.9443H20.2471ZM18.5889 16.9443L18.6427 16.6906V15.2731L18.5889 15.0194H19.9247L19.974 15.3808L19.7657 15.3185H19.0599V15.9491H19.6535L19.7806 15.9192V16.2715L19.6535 16.2417H19.0599V16.6945L19.15 16.9449H18.5889V16.9443ZM14.1656 16.9443L14.2539 16.6938V15.3334H13.9055L13.6946 15.3963L13.7465 15.0194H15.1816L15.2335 15.3963L15.0226 15.3334H14.6717V16.6945L14.7618 16.9449H14.1656V16.9443ZM12.9758 16.9443L12.9544 16.7198L12.6813 16.2131H12.3569V16.6906L12.4127 16.9443H11.8833L11.9391 16.6906V15.2731L11.8833 15.0194H12.7981C13.2308 15.0194 13.4319 15.2062 13.4319 15.6072C13.4319 15.7817 13.3735 16.0094 13.0965 16.1035L13.0394 16.1229L13.535 16.9449H12.9745L12.9758 16.9443ZM12.3465 15.9238H12.6826C12.9693 15.9238 13.029 15.7564 13.029 15.6163C13.029 15.3983 12.9298 15.2964 12.7176 15.2964H12.3465V15.9238ZM8.04525 16.9443L8.10105 16.6906V15.2731L8.04525 15.0194H8.93535C9.38364 15.0194 9.57502 15.2134 9.57502 15.6682C9.57502 16.1229 9.3778 16.3046 8.91653 16.3046H8.5182V16.6938L8.60643 16.9443H8.04525ZM8.51041 16.0269H8.84906C9.07872 16.0269 9.1689 15.929 9.1689 15.6766C9.1689 15.4106 9.07808 15.3023 8.8549 15.3023H8.51106V16.0269H8.51041Z" fill="url(#paint9_linear_5_50)"/>
<path d="M13.9243 17.7844H14.211V17.6877H13.9243V17.5067H14.3187V17.4075H13.8283V18.1127H14.3194V18.0134H13.9243V17.7838V17.7844ZM14.7456 17.7215L14.6574 17.6988C14.575 17.6774 14.5361 17.6508 14.5354 17.5963C14.5354 17.5333 14.5951 17.499 14.6814 17.4983C14.7489 17.4983 14.8124 17.5217 14.8682 17.5599L14.9175 17.4756C14.8527 17.4308 14.7638 17.3997 14.673 17.4003C14.5348 17.401 14.4323 17.4795 14.4329 17.5937C14.4329 17.6975 14.4952 17.7604 14.6295 17.7948L14.7125 17.8162C14.8047 17.8402 14.8397 17.8623 14.8384 17.9213C14.8371 17.9855 14.7781 18.0232 14.6905 18.0238C14.6107 18.0245 14.525 17.9992 14.4582 17.9537L14.4057 18.0387C14.479 18.0906 14.5847 18.1231 14.6866 18.1224C14.8364 18.1224 14.9396 18.0407 14.939 17.9207C14.939 17.813 14.8799 17.7559 14.7469 17.7221L14.7456 17.7215ZM14.9986 17.5074H15.2179V18.1127H15.3139V17.5074H15.5326V17.4081H14.998V17.5074H14.9986ZM16.8061 17.8752C16.8937 17.7455 16.928 17.6767 16.928 17.6015C16.928 17.4775 16.8502 17.3978 16.738 17.3978C16.6685 17.3978 16.6011 17.4334 16.5492 17.4899L16.5887 17.5768C16.6348 17.5256 16.6809 17.499 16.7269 17.4977C16.7873 17.4957 16.8301 17.5392 16.832 17.6047C16.834 17.6586 16.808 17.7079 16.7477 17.7974C16.6841 17.8902 16.6017 18.0128 16.533 18.1127H16.9475V18.0167H16.7029L16.8054 17.8746L16.8061 17.8752ZM17.2699 17.3945C17.1279 17.3945 17.0494 17.5405 17.0494 17.7604C17.0494 17.9803 17.1279 18.1257 17.2699 18.1257C17.412 18.1257 17.4912 17.9803 17.4912 17.7604C17.4912 17.5405 17.4127 17.3945 17.2699 17.3945ZM17.2699 18.0342C17.1888 18.0342 17.1454 17.92 17.1454 17.7611C17.1454 17.6021 17.1882 17.4873 17.2699 17.4873C17.3517 17.4873 17.3945 17.6008 17.3945 17.7611C17.3945 17.9213 17.3517 18.0342 17.2699 18.0342ZM17.8402 17.8752C17.9278 17.7455 17.9622 17.6767 17.9622 17.6015C17.9622 17.4775 17.8843 17.3978 17.7721 17.3978C17.7027 17.3978 17.6352 17.4334 17.5833 17.4899L17.6229 17.5768C17.6689 17.5256 17.715 17.499 17.761 17.4977C17.8214 17.4957 17.8642 17.5392 17.8661 17.6047C17.8681 17.6586 17.8421 17.7079 17.7818 17.7974C17.7182 17.8902 17.6358 18.0128 17.5671 18.1127H17.9816V18.0167H17.737L17.8396 17.8746L17.8402 17.8752ZM18.4273 17.8305V17.4088H18.356L18.051 17.8422V17.9239H18.3307V18.1133H18.4273V17.9239H18.5214V17.8305H18.4273ZM18.3307 17.8305H18.151L18.3307 17.5788V17.8305ZM15.8193 17.4237H15.6889V17.8564H15.8193C15.9582 17.8564 16.0405 17.7643 16.0405 17.641C16.0405 17.5178 15.9588 17.4231 15.8193 17.4237ZM15.8193 17.7954H15.748V17.484H15.8193C15.9296 17.4847 15.9809 17.5502 15.9809 17.641C15.9809 17.7319 15.929 17.7954 15.8193 17.7954ZM15.8822 17.9732L15.8803 17.9713C15.8414 17.9135 15.7051 17.968 15.6779 17.9797L15.6999 18.0452C15.7687 18.016 15.8193 18.0128 15.8329 18.0173L15.8349 18.0193C15.8738 18.077 16.0101 18.0225 16.0373 18.0108L16.0152 17.9453C15.9465 17.9745 15.8959 17.9777 15.8822 17.9732Z" fill="url(#paint10_linear_5_50)"/>
</g>
<defs>
<linearGradient id="paint0_linear_5_50" x1="25.3295" y1="23.993" x2="17.5333" y2="17.2498" gradientUnits="userSpaceOnUse">
<stop stop-color="#1D2529"/>
<stop offset="0.27" stop-color="#232B33" stop-opacity="0.59"/>
<stop offset="0.65" stop-color="#29323E" stop-opacity="0.16"/>
<stop offset="0.93" stop-color="#2C3542" stop-opacity="0"/>
<stop offset="1" stop-color="#2C3542" stop-opacity="0"/>
</linearGradient>
<linearGradient id="paint1_linear_5_50" x1="9.298" y1="23.6635" x2="15.1517" y2="16.723" gradientUnits="userSpaceOnUse">
<stop stop-color="#1D2529" stop-opacity="0.97"/>
<stop offset="0.14" stop-color="#232C34" stop-opacity="0.54"/>
<stop offset="0.3" stop-color="#28313C" stop-opacity="0.23"/>
<stop offset="0.52" stop-color="#2B3440" stop-opacity="0.05"/>
<stop offset="1" stop-color="#2C3542" stop-opacity="0"/>
</linearGradient>
<radialGradient id="paint2_radial_5_50" cx="0" cy="0" r="1" gradientUnits="userSpaceOnUse" gradientTransform="translate(21.4661 21.108) scale(24.3064 24.3064)">
<stop stop-color="#3F6376"/>
<stop offset="0.09" stop-color="#3D5E70" stop-opacity="0.9"/>
<stop offset="0.93" stop-color="#2C3542" stop-opacity="0"/>
<stop offset="1" stop-color="#2C3542" stop-opacity="0"/>
</radialGradient>
<radialGradient id="paint3_radial_5_50" cx="0" cy="0" r="1" gradientUnits="userSpaceOnUse" gradientTransform="translate(19.7401 16.9093) rotate(-0.79) scale(39.331 11.0127)">
<stop stop-color="#B0DDD0" stop-opacity="0.3"/>
<stop offset="0.14" stop-color="#A7D2C6" stop-opacity="0.28"/>
<stop offset="0.27" stop-color="#8DB1AB" stop-opacity="0.22"/>
<stop offset="0.41" stop-color="#637B7D" stop-opacity="0.13"/>
<stop offset="0.55" stop-color="#2C3542" stop-opacity="0"/>
<stop offset="0.93" stop-color="#2C3542" stop-opacity="0"/>
</radialGradient>
<linearGradient id="paint4_linear_5_50" x1="14.9973" y1="8.03163" x2="18.7439" y2="19.5666" gradientUnits="userSpaceOnUse">
<stop offset="0.07" stop-color="#FEEAA5"/>
<stop offset="0.19" stop-color="#DFC074"/>
<stop offset="0.45" stop-color="#A7772B"/>
<stop offset="0.72" stop-color="#614D1F"/>
<stop offset="1" stop-color="#9C8553"/>
</linearGradient>
<linearGradient id="paint5_linear_5_50" x1="10.8725" y1="6.0886" x2="23.9333" y2="31.337" gradientUnits="userSpaceOnUse">
<stop offset="0.07" stop-color="#FEEAA5"/>
<stop offset="0.19" stop-color="#DFC074"/>
<stop offset="0.61" stop-color="#A7772B"/>
<stop offset="0.93" stop-color="#614D1F"/>
<stop offset="1" stop-color="#9C8553"/>
</linearGradient>
<linearGradient id="paint6_linear_5_50" x1="3.85946" y1="16.8619" x2="26.963" y2="15.1485" gradientUnits="userSpaceOnUse">
<stop offset="0.07" stop-color="#FEEAA5"/>
<stop offset="0.19" stop-color="#DFC074"/>
<stop offset="0.45" stop-color="#A7772B"/>
<stop offset="0.72" stop-color="#614D1F"/>
<stop offset="1" stop-color="#9C8553"/>
</linearGradient>
<linearGradient id="paint7_linear_5_50" x1="10.4697" y1="5.30944" x2="24.5568" y2="32.5417" gradientUnits="userSpaceOnUse">
<stop offset="0.07" stop-color="#FEEAA5"/>
<stop offset="0.19" stop-color="#DFC074"/>
<stop offset="0.61" stop-color="#A7772B"/>
<stop offset="0.93" stop-color="#614D1F"/>
<stop offset="1" stop-color="#9C8553"/>
</linearGradient>
<linearGradient id="paint8_linear_5_50" x1="15.1738" y1="17.6975" x2="19.4783" y2="29.4069" gradientUnits="userSpaceOnUse">
<stop offset="0.07" stop-color="#FEEAA5"/>
<stop offset="0.19" stop-color="#DFC074"/>
<stop offset="0.45" stop-color="#A7772B"/>
<stop offset="0.72" stop-color="#614D1F"/>
<stop offset="1" stop-color="#9C8553"/>
</linearGradient>
<linearGradient id="paint9_linear_5_50" x1="8.13089" y1="12.1525" x2="36.4096" y2="26.0243" gradientUnits="userSpaceOnUse">
<stop offset="0.07" stop-color="#FEEAA5"/>
<stop offset="0.19" stop-color="#DFC074"/>
<stop offset="0.45" stop-color="#A7772B"/>
<stop offset="0.72" stop-color="#614D1F"/>
<stop offset="1" stop-color="#9C8553"/>
</linearGradient>
<linearGradient id="paint10_linear_5_50" x1="11.943" y1="18.1542" x2="20.8816" y2="17.3141" gradientUnits="userSpaceOnUse">
<stop offset="0.07" stop-color="#FEEAA5"/>
<stop offset="0.19" stop-color="#DFC074"/>
<stop offset="0.45" stop-color="#A7772B"/>
<stop offset="0.88" stop-color="#614D1F"/>
<stop offset="1" stop-color="#9C8553"/>
</linearGradient>
<clipPath id="clip0_5_50">
<rect width="32" height="20.8063" fill="white" transform="translate(0 5.59684)"/>
</clipPath>
</defs>
</svg>
