<svg width="3256" height="855" viewBox="0 0 3256 855" fill="none" xmlns="http://www.w3.org/2000/svg">
<path d="M866 581L849.049 582.285L850.239 598H866V581ZM2242 803.002V820.002H2264.22L2258.41 798.552L2242 803.002ZM2365.93 528.935C2374.73 525.661 2379.21 515.873 2375.93 507.074C2372.66 498.274 2362.87 493.795 2354.07 497.069L2365.93 528.935ZM1818 395.002L1834.96 396.114L1818 395.002ZM2050 595.002L2038.91 582.12L2050 595.002ZM2338 205.002L2350.99 215.97L2338 205.002ZM2708 19.0003L2708.66 35.9876L2708 19.0003ZM3086 153.001L3073.49 164.511L3086 153.001ZM3186 477.002L3202.97 478.076L3186 477.002ZM2964 781.002L2957.99 765.099L2956.69 765.591L2955.48 766.289L2964 781.002ZM2740 815.002L2741.84 798.102L2740 815.002ZM2548 669.002L2564.13 663.626L2548 669.002ZM2548 503.002L2531.78 497.897L2548 503.002ZM2951 53.9999L2943.6 69.3062L2951 53.9999ZM3226 513.002L3209.54 508.742L3226 513.002ZM3051 730L3040.26 716.821L3051 730ZM56 661.002L72.4354 665.347C87.3945 608.763 119.224 525.833 176.351 457.396C233.116 389.393 314.476 336.002 430 336.002V319.002V302.002C302.324 302.002 212.017 361.611 150.249 435.608C88.8429 509.171 55.2722 597.241 39.5646 656.657L56 661.002ZM430 319.002V336.002C668.159 336.002 814.179 449.506 870.706 476.356L878 461L885.294 445.645C835.155 421.828 678.241 302.002 430 302.002V319.002ZM878 461L870.706 476.356C926.159 502.696 986.106 520.002 1072 520.002V503.002V486.002C991.494 486.002 936.508 469.971 885.294 445.645L878 461ZM1072 503.002V520.002C1126.63 520.002 1165.11 506.333 1189.87 482.171C1214.69 457.957 1223 425.893 1223 395.002H1206H1189C1189 420.113 1182.31 442.048 1166.13 457.834C1149.89 473.672 1121.37 486.002 1072 486.002V503.002ZM1206 395.002H1223C1223 329.958 1165.73 256.002 1072 256.002V273.002V290.002C1146.27 290.002 1189 348.043 1189 395.002H1206ZM1072 273.002V256.002C1043.51 256.002 982.65 268.118 931.23 315.499C878.981 363.644 838.731 446.091 849.049 582.285L866 581L882.951 579.716C873.269 451.91 911.019 380.357 954.27 340.503C998.35 299.885 1050.49 290.002 1072 290.002V273.002ZM866 581V598C932.348 598 974.121 611.453 1000.8 629.717C1027.2 647.786 1040.62 671.789 1047.93 696.778C1055.44 722.396 1056.29 747.861 1058.02 769.663C1058.82 779.743 1059.92 790.663 1062.98 799.199C1064.57 803.648 1067.18 808.898 1071.83 813.109C1076.92 817.718 1083.26 820.002 1090 820.002V803.002V786.002C1091.24 786.002 1093.16 786.551 1094.66 787.908C1095.71 788.868 1095.56 789.348 1094.98 787.727C1093.69 784.122 1092.77 777.698 1091.92 766.966C1090.34 747.142 1089.31 717.106 1080.57 687.224C1071.63 656.713 1054.42 625.216 1020.01 601.66C985.879 578.298 936.652 564 866 564V581ZM1090 803.002V820.002H2242V803.002V786.002H1090V803.002ZM2242 803.002L2258.41 798.552C2248.38 761.559 2243.76 704.946 2257.83 652.072C2271.73 599.8 2303.47 552.176 2365.93 528.935L2360 513.002L2354.07 497.069C2278.93 525.028 2241 583.07 2224.97 643.332C2209.1 702.992 2214.29 765.778 2225.59 807.451L2242 803.002ZM1658 477.002L1653.67 493.442C1680.76 500.57 1722.59 505.072 1759.53 493.87C1778.28 488.184 1796.43 478.24 1810.36 461.893C1824.4 445.423 1833.16 423.635 1834.96 396.114L1818 395.002L1801.04 393.89C1799.64 415.169 1793.13 429.697 1784.49 439.836C1775.74 450.098 1763.78 457.053 1749.67 461.334C1720.87 470.065 1685.91 466.767 1662.33 460.562L1658 477.002ZM1818 395.002L1834.96 396.114C1837.15 362.73 1830.63 335.708 1817.96 314.382C1805.33 293.119 1787.29 278.692 1768.31 269.274C1749.42 259.904 1729.36 255.344 1711.81 253.758C1694.51 252.195 1678.36 253.411 1667.2 256.693L1672 273.002L1676.8 289.311C1682.64 287.593 1694.24 286.309 1708.75 287.62C1723.02 288.91 1738.83 292.6 1753.19 299.73C1767.46 306.812 1780.05 317.135 1788.73 331.747C1797.37 346.296 1802.85 366.274 1801.04 393.89L1818 395.002ZM1672 273.002L1667.2 256.693C1650.06 261.734 1612.99 272.517 1579.79 300.504C1545.93 329.05 1517.16 374.555 1515.01 446.495L1532 447.002L1548.99 447.509C1550.84 385.448 1575.07 348.953 1601.71 326.5C1629.01 303.487 1659.94 294.27 1676.8 289.311L1672 273.002ZM1532 447.002L1515.01 446.495C1512.8 520.324 1552.34 583.527 1608.19 627.597C1663.98 671.623 1737.66 698.002 1808 698.002V681.002V664.002C1745.6 664.002 1679.28 640.38 1629.25 600.906C1579.29 561.477 1547.2 507.68 1548.99 447.509L1532 447.002ZM1808 681.002V698.002C1922.39 698.002 2000.39 660.157 2061.09 607.884L2050 595.002L2038.91 582.12C1983.88 629.507 1913.61 664.002 1808 664.002V681.002ZM2050 595.002L2061.09 607.884C2080.59 591.09 2103.78 563.294 2128.27 530.793C2152.96 498.011 2179.78 459.351 2206.55 420.075C2260.5 340.911 2313.73 260.088 2350.99 215.97L2338 205.002L2325.01 194.033C2286.27 239.914 2231.5 323.091 2178.45 400.927C2151.72 440.151 2125.29 478.242 2101.11 510.335C2076.72 542.709 2055.41 567.913 2038.91 582.12L2050 595.002ZM2338 205.002L2350.99 215.97C2415.69 139.349 2539.07 42.5608 2708.66 35.9876L2708 19.0003L2707.34 2.01307C2525.1 9.07675 2393.54 112.888 2325.01 194.033L2338 205.002ZM3086 153.001L3073.49 164.511C3132.8 228.976 3178.75 322.454 3169.03 475.928L3186 477.002L3202.97 478.076C3213.25 315.55 3164.23 212.927 3098.51 141.491L3086 153.001ZM2964 781.002L2955.48 766.289C2939.32 775.646 2904.62 785.816 2863.07 792.528C2822.07 799.152 2777.2 801.959 2741.84 798.102L2740 815.002L2738.16 831.902C2777.56 836.2 2825.69 833.007 2868.49 826.093C2910.76 819.265 2950.68 808.357 2972.52 795.714L2964 781.002ZM2740 815.002L2741.84 798.102C2691.18 792.575 2650.05 768.998 2619.66 741.314C2588.99 713.379 2570.34 682.25 2564.13 663.626L2548 669.002L2531.87 674.378C2540.22 699.434 2562.57 735.306 2596.76 766.45C2631.23 797.846 2678.82 825.429 2738.16 831.902L2740 815.002ZM2548 669.002L2564.13 663.626C2555.23 636.939 2549.77 616.873 2549.03 594.445C2548.3 572.043 2552.27 546.064 2564.22 508.107L2548 503.002L2531.78 497.897C2519.18 537.94 2514.15 567.961 2515.05 595.559C2515.95 623.13 2522.77 647.064 2531.87 674.378L2548 669.002ZM2548 503.002L2564.22 508.107C2578.92 461.398 2622.97 429.002 2671.5 416.461C2721.04 403.662 2766.64 413.363 2786.5 439.328L2800 429.002L2813.5 418.675C2781.36 376.64 2717.96 369.342 2663 383.542C2607.03 398.002 2551.08 436.606 2531.78 497.897L2548 503.002ZM2708 19.0003L2708.66 35.9876C2793.99 32.6801 2864.93 31.2858 2943.6 69.3062L2951 53.9999L2958.4 38.6937C2871.32 -3.3902 2792.54 -1.28942 2707.34 2.01307L2708 19.0003ZM2951 53.9999L2943.6 69.3062C2984.33 88.99 3043.86 132.305 3073.49 164.511L3086 153.001L3098.51 141.491C3065.76 105.893 3002.68 60.0945 2958.4 38.6937L2951 53.9999ZM2951 53.9999L2943.6 69.3062C3093.71 141.848 3172.54 217.386 3196.12 279.073L3212 273.002L3227.88 266.931C3199.46 192.617 3110.42 112.162 2958.4 38.6937L2951 53.9999ZM3212 273.002L3196.12 279.073C3221.01 344.168 3230.56 427.55 3209.54 508.742L3226 513.002L3242.46 517.262C3265.44 428.454 3254.99 337.836 3227.88 266.931L3212 273.002ZM3186 477.002L3169.03 475.928C3162.26 583.034 3102.7 665.954 3040.26 716.821L3051 730L3061.74 743.18C3129.41 688.043 3195.44 597.038 3202.97 478.076L3186 477.002ZM3051 730L3040.26 716.821C3011.13 740.555 2984.99 754.898 2957.99 765.099L2964 781.002L2970.01 796.905C3000.49 785.387 3029.82 769.187 3061.74 743.18L3051 730ZM3226 513.002L3209.54 508.742C3190.32 583.001 3136.79 646.142 3040.96 716.282L3051 730L3061.04 743.718C3159.21 671.859 3220.31 602.816 3242.46 517.262L3226 513.002Z" fill="black"/>
<path d="M866 581L849.049 582.285L850.239 598H866V581ZM2242 803.002V820.002H2264.22L2258.41 798.552L2242 803.002ZM2365.93 528.935C2374.73 525.661 2379.21 515.873 2375.93 507.074C2372.66 498.274 2362.87 493.795 2354.07 497.069L2365.93 528.935ZM1818 395.002L1834.96 396.114L1818 395.002ZM2050 595.002L2038.91 582.12L2050 595.002ZM2338 205.002L2350.99 215.97L2338 205.002ZM2708 19.0003L2708.66 35.9876L2708 19.0003ZM3086 153.001L3073.49 164.511L3086 153.001ZM3186 477.002L3202.97 478.076L3186 477.002ZM2964 781.002L2957.99 765.099L2956.69 765.591L2955.48 766.289L2964 781.002ZM2740 815.002L2741.84 798.102L2740 815.002ZM2548 669.002L2564.13 663.626L2548 669.002ZM2548 503.002L2531.78 497.897L2548 503.002ZM2951 53.9999L2943.6 69.3062L2951 53.9999ZM3226 513.002L3209.54 508.742L3226 513.002ZM3051 730L3040.26 716.821L3051 730ZM56 661.002L72.4354 665.347C87.3945 608.763 119.224 525.833 176.351 457.396C233.116 389.393 314.476 336.002 430 336.002V319.002V302.002C302.324 302.002 212.017 361.611 150.249 435.608C88.8429 509.171 55.2722 597.241 39.5646 656.657L56 661.002ZM430 319.002V336.002C668.159 336.002 814.179 449.506 870.706 476.356L878 461L885.294 445.645C835.155 421.828 678.241 302.002 430 302.002V319.002ZM878 461L870.706 476.356C926.159 502.696 986.106 520.002 1072 520.002V503.002V486.002C991.494 486.002 936.508 469.971 885.294 445.645L878 461ZM1072 503.002V520.002C1126.63 520.002 1165.11 506.333 1189.87 482.171C1214.69 457.957 1223 425.893 1223 395.002H1206H1189C1189 420.113 1182.31 442.048 1166.13 457.834C1149.89 473.672 1121.37 486.002 1072 486.002V503.002ZM1206 395.002H1223C1223 329.958 1165.73 256.002 1072 256.002V273.002V290.002C1146.27 290.002 1189 348.043 1189 395.002H1206ZM1072 273.002V256.002C1043.51 256.002 982.65 268.118 931.23 315.499C878.981 363.644 838.731 446.091 849.049 582.285L866 581L882.951 579.716C873.269 451.91 911.019 380.357 954.27 340.503C998.35 299.885 1050.49 290.002 1072 290.002V273.002ZM866 581V598C932.348 598 974.121 611.453 1000.8 629.717C1027.2 647.786 1040.62 671.789 1047.93 696.778C1055.44 722.396 1056.29 747.861 1058.02 769.663C1058.82 779.743 1059.92 790.663 1062.98 799.199C1064.57 803.648 1067.18 808.898 1071.83 813.109C1076.92 817.718 1083.26 820.002 1090 820.002V803.002V786.002C1091.24 786.002 1093.16 786.551 1094.66 787.908C1095.71 788.868 1095.56 789.348 1094.98 787.727C1093.69 784.122 1092.77 777.698 1091.92 766.966C1090.34 747.142 1089.31 717.106 1080.57 687.224C1071.63 656.713 1054.42 625.216 1020.01 601.66C985.879 578.298 936.652 564 866 564V581ZM1090 803.002V820.002H2242V803.002V786.002H1090V803.002ZM2242 803.002L2258.41 798.552C2248.38 761.559 2243.76 704.946 2257.83 652.072C2271.73 599.8 2303.47 552.176 2365.93 528.935L2360 513.002L2354.07 497.069C2278.93 525.028 2241 583.07 2224.97 643.332C2209.1 702.992 2214.29 765.778 2225.59 807.451L2242 803.002ZM1658 477.002L1653.67 493.442C1680.76 500.57 1722.59 505.072 1759.53 493.87C1778.28 488.184 1796.43 478.24 1810.36 461.893C1824.4 445.423 1833.16 423.635 1834.96 396.114L1818 395.002L1801.04 393.89C1799.64 415.169 1793.13 429.697 1784.49 439.836C1775.74 450.098 1763.78 457.053 1749.67 461.334C1720.87 470.065 1685.91 466.767 1662.33 460.562L1658 477.002ZM1818 395.002L1834.96 396.114C1837.15 362.73 1830.63 335.708 1817.96 314.382C1805.33 293.119 1787.29 278.692 1768.31 269.274C1749.42 259.904 1729.36 255.344 1711.81 253.758C1694.51 252.195 1678.36 253.411 1667.2 256.693L1672 273.002L1676.8 289.311C1682.64 287.593 1694.24 286.309 1708.75 287.62C1723.02 288.91 1738.83 292.6 1753.19 299.73C1767.46 306.812 1780.05 317.135 1788.73 331.747C1797.37 346.296 1802.85 366.274 1801.04 393.89L1818 395.002ZM1672 273.002L1667.2 256.693C1650.06 261.734 1612.99 272.517 1579.79 300.504C1545.93 329.05 1517.16 374.555 1515.01 446.495L1532 447.002L1548.99 447.509C1550.84 385.448 1575.07 348.953 1601.71 326.5C1629.01 303.487 1659.94 294.27 1676.8 289.311L1672 273.002ZM1532 447.002L1515.01 446.495C1512.8 520.324 1552.34 583.527 1608.19 627.597C1663.98 671.623 1737.66 698.002 1808 698.002V681.002V664.002C1745.6 664.002 1679.28 640.38 1629.25 600.906C1579.29 561.477 1547.2 507.68 1548.99 447.509L1532 447.002ZM1808 681.002V698.002C1922.39 698.002 2000.39 660.157 2061.09 607.884L2050 595.002L2038.91 582.12C1983.88 629.507 1913.61 664.002 1808 664.002V681.002ZM2050 595.002L2061.09 607.884C2080.59 591.09 2103.78 563.294 2128.27 530.793C2152.96 498.011 2179.78 459.351 2206.55 420.075C2260.5 340.911 2313.73 260.088 2350.99 215.97L2338 205.002L2325.01 194.033C2286.27 239.914 2231.5 323.091 2178.45 400.927C2151.72 440.151 2125.29 478.242 2101.11 510.335C2076.72 542.709 2055.41 567.913 2038.91 582.12L2050 595.002ZM2338 205.002L2350.99 215.97C2415.69 139.349 2539.07 42.5608 2708.66 35.9876L2708 19.0003L2707.34 2.01307C2525.1 9.07675 2393.54 112.888 2325.01 194.033L2338 205.002ZM3086 153.001L3073.49 164.511C3132.8 228.976 3178.75 322.454 3169.03 475.928L3186 477.002L3202.97 478.076C3213.25 315.55 3164.23 212.927 3098.51 141.491L3086 153.001ZM2964 781.002L2955.48 766.289C2939.32 775.646 2904.62 785.816 2863.07 792.528C2822.07 799.152 2777.2 801.959 2741.84 798.102L2740 815.002L2738.16 831.902C2777.56 836.2 2825.69 833.007 2868.49 826.093C2910.76 819.265 2950.68 808.357 2972.52 795.714L2964 781.002ZM2740 815.002L2741.84 798.102C2691.18 792.575 2650.05 768.998 2619.66 741.314C2588.99 713.379 2570.34 682.25 2564.13 663.626L2548 669.002L2531.87 674.378C2540.22 699.434 2562.57 735.306 2596.76 766.45C2631.23 797.846 2678.82 825.429 2738.16 831.902L2740 815.002ZM2548 669.002L2564.13 663.626C2555.23 636.939 2549.77 616.873 2549.03 594.445C2548.3 572.043 2552.27 546.064 2564.22 508.107L2548 503.002L2531.78 497.897C2519.18 537.94 2514.15 567.961 2515.05 595.559C2515.95 623.13 2522.77 647.064 2531.87 674.378L2548 669.002ZM2548 503.002L2564.22 508.107C2578.92 461.398 2622.97 429.002 2671.5 416.461C2721.04 403.662 2766.64 413.363 2786.5 439.328L2800 429.002L2813.5 418.675C2781.36 376.64 2717.96 369.342 2663 383.542C2607.03 398.002 2551.08 436.606 2531.78 497.897L2548 503.002ZM2708 19.0003L2708.66 35.9876C2793.99 32.6801 2864.93 31.2858 2943.6 69.3062L2951 53.9999L2958.4 38.6937C2871.32 -3.3902 2792.54 -1.28942 2707.34 2.01307L2708 19.0003ZM2951 53.9999L2943.6 69.3062C2984.33 88.99 3043.86 132.305 3073.49 164.511L3086 153.001L3098.51 141.491C3065.76 105.893 3002.68 60.0945 2958.4 38.6937L2951 53.9999ZM2951 53.9999L2943.6 69.3062C3093.71 141.848 3172.54 217.386 3196.12 279.073L3212 273.002L3227.88 266.931C3199.46 192.617 3110.42 112.162 2958.4 38.6937L2951 53.9999ZM3212 273.002L3196.12 279.073C3221.01 344.168 3230.56 427.55 3209.54 508.742L3226 513.002L3242.46 517.262C3265.44 428.454 3254.99 337.836 3227.88 266.931L3212 273.002ZM3186 477.002L3169.03 475.928C3162.26 583.034 3102.7 665.954 3040.26 716.821L3051 730L3061.74 743.18C3129.41 688.043 3195.44 597.038 3202.97 478.076L3186 477.002ZM3051 730L3040.26 716.821C3011.13 740.555 2984.99 754.898 2957.99 765.099L2964 781.002L2970.01 796.905C3000.49 785.387 3029.82 769.187 3061.74 743.18L3051 730ZM3226 513.002L3209.54 508.742C3190.32 583.001 3136.79 646.142 3040.96 716.282L3051 730L3061.04 743.718C3159.21 671.859 3220.31 602.816 3242.46 517.262L3226 513.002Z" fill="black" fill-opacity="0.2"/>
<path d="M70.5 663.75L43.0382 738.247C39.1771 748.722 23.4755 744.19 25.7891 733.269L42 656.75L70.5 663.75Z" fill="black"/>
<path d="M2347 501.499C2384.63 485.348 2413.12 485.517 2430.3 488.445C2437.88 489.738 2437.91 498.303 2430.74 501.086L2382 520L2359.5 529.499C2359.5 529.499 2336 506.221 2347 501.499Z" fill="black"/>
</svg>
